<?xml version="1.0" encoding="UTF-8" standalone="no"?><svg xmlns="http://www.w3.org/2000/svg" xmlns:xlink="http://www.w3.org/1999/xlink" contentScriptType="application/ecmascript" contentStyleType="text/css" height="296px" preserveAspectRatio="none" style="width:278px;height:296px;" version="1.1" viewBox="0 0 278 296" width="278px" zoomAndPan="magnify"><defs><filter height="300%" id="f1d5cmcp7kg77h" width="300%" x="-1" y="-1"><feGaussianBlur result="blurOut" stdDeviation="2.0"/><feColorMatrix in="blurOut" result="blurOut2" type="matrix" values="0 0 0 0 0 0 0 0 0 0 0 0 0 0 0 0 0 0 .4 0"/><feOffset dx="4.0" dy="4.0" in="blurOut2" result="blurOut3"/><feBlend in="SourceGraphic" in2="blurOut3" mode="normal"/></filter></defs><g><!--MD5=[2818c929747a9c50f8b0363b497f2bb7]
class DefaultPresetLink--><rect fill="#FEFECE" filter="url(#f1d5cmcp7kg77h)" height="60.8047" id="DefaultPresetLink" style="stroke: #A80036; stroke-width: 1.5;" width="142" x="68" y="116"/><ellipse cx="83" cy="132" fill="#ADD1B2" rx="11" ry="11" style="stroke: #A80036; stroke-width: 1.0;"/><path d="M85.9688,137.6406 Q85.3906,137.9375 84.75,138.0781 Q84.1094,138.2344 83.4063,138.2344 Q80.9063,138.2344 79.5781,136.5938 Q78.2656,134.9375 78.2656,131.8125 Q78.2656,128.6875 79.5781,127.0313 Q80.9063,125.375 83.4063,125.375 Q84.1094,125.375 84.75,125.5313 Q85.4063,125.6875 85.9688,125.9844 L85.9688,128.7031 Q85.3438,128.125 84.75,127.8594 Q84.1563,127.5781 83.5313,127.5781 Q82.1875,127.5781 81.5,128.6563 Q80.8125,129.7188 80.8125,131.8125 Q80.8125,133.9063 81.5,134.9844 Q82.1875,136.0469 83.5313,136.0469 Q84.1563,136.0469 84.75,135.7813 Q85.3438,135.5 85.9688,134.9219 L85.9688,137.6406 Z "/><text fill="#000000" font-family="sans-serif" font-size="12" lengthAdjust="spacingAndGlyphs" textLength="110" x="97" y="136.1543">DefaultPresetLink</text><line style="stroke: #A80036; stroke-width: 1.5;" x1="69" x2="209" y1="148" y2="148"/><line style="stroke: #A80036; stroke-width: 1.5;" x1="69" x2="209" y1="156" y2="156"/><ellipse cx="79" cy="167" fill="#84BE84" rx="3" ry="3" style="stroke: #038048; stroke-width: 1.0;"/><text fill="#000000" font-family="sans-serif" font-size="11" lengthAdjust="spacingAndGlyphs" textLength="79" x="88" y="170.2104">Debug() : void</text><!--MD5=[44895057fba17b10f3053a7baa21df04]
class ScriptableObject--><rect fill="#FEFECE" filter="url(#f1d5cmcp7kg77h)" height="48" id="ScriptableObject" style="stroke: #A80036; stroke-width: 1.5;" width="135" x="71.5" y="8"/><ellipse cx="86.5" cy="24" fill="#ADD1B2" rx="11" ry="11" style="stroke: #A80036; stroke-width: 1.0;"/><path d="M89.4688,29.6406 Q88.8906,29.9375 88.25,30.0781 Q87.6094,30.2344 86.9063,30.2344 Q84.4063,30.2344 83.0781,28.5938 Q81.7656,26.9375 81.7656,23.8125 Q81.7656,20.6875 83.0781,19.0313 Q84.4063,17.375 86.9063,17.375 Q87.6094,17.375 88.25,17.5313 Q88.9063,17.6875 89.4688,17.9844 L89.4688,20.7031 Q88.8438,20.125 88.25,19.8594 Q87.6563,19.5781 87.0313,19.5781 Q85.6875,19.5781 85,20.6563 Q84.3125,21.7188 84.3125,23.8125 Q84.3125,25.9063 85,26.9844 Q85.6875,28.0469 87.0313,28.0469 Q87.6563,28.0469 88.25,27.7813 Q88.8438,27.5 89.4688,26.9219 L89.4688,29.6406 Z "/><text fill="#000000" font-family="sans-serif" font-size="12" lengthAdjust="spacingAndGlyphs" textLength="103" x="100.5" y="28.1543">ScriptableObject</text><line style="stroke: #A80036; stroke-width: 1.5;" x1="72.5" x2="205.5" y1="40" y2="40"/><line style="stroke: #A80036; stroke-width: 1.5;" x1="72.5" x2="205.5" y1="48" y2="48"/><!--MD5=[3195b7efb96e3177104ad4899b9f3bf0]
class DefaultPreset--><rect fill="#FEFECE" filter="url(#f1d5cmcp7kg77h)" height="48" id="DefaultPreset" style="stroke: #A80036; stroke-width: 1.5;" width="118" x="6" y="237"/><ellipse cx="21" cy="253" fill="#ADD1B2" rx="11" ry="11" style="stroke: #A80036; stroke-width: 1.0;"/><path d="M23.9688,258.6406 Q23.3906,258.9375 22.75,259.0781 Q22.1094,259.2344 21.4063,259.2344 Q18.9063,259.2344 17.5781,257.5938 Q16.2656,255.9375 16.2656,252.8125 Q16.2656,249.6875 17.5781,248.0313 Q18.9063,246.375 21.4063,246.375 Q22.1094,246.375 22.75,246.5313 Q23.4063,246.6875 23.9688,246.9844 L23.9688,249.7031 Q23.3438,249.125 22.75,248.8594 Q22.1563,248.5781 21.5313,248.5781 Q20.1875,248.5781 19.5,249.6563 Q18.8125,250.7188 18.8125,252.8125 Q18.8125,254.9063 19.5,255.9844 Q20.1875,257.0469 21.5313,257.0469 Q22.1563,257.0469 22.75,256.7813 Q23.3438,256.5 23.9688,255.9219 L23.9688,258.6406 Z "/><text fill="#000000" font-family="sans-serif" font-size="12" lengthAdjust="spacingAndGlyphs" textLength="86" x="35" y="257.1543">DefaultPreset</text><line style="stroke: #A80036; stroke-width: 1.5;" x1="7" x2="123" y1="269" y2="269"/><line style="stroke: #A80036; stroke-width: 1.5;" x1="7" x2="123" y1="277" y2="277"/><!--MD5=[064f7a74fee85463ec1a30143664ee17]
class GameObject--><rect fill="#FEFECE" filter="url(#f1d5cmcp7kg77h)" height="48" id="GameObject" style="stroke: #A80036; stroke-width: 1.5;" width="108" x="159" y="237"/><ellipse cx="174" cy="253" fill="#ADD1B2" rx="11" ry="11" style="stroke: #A80036; stroke-width: 1.0;"/><path d="M176.9688,258.6406 Q176.3906,258.9375 175.75,259.0781 Q175.1094,259.2344 174.4063,259.2344 Q171.9063,259.2344 170.5781,257.5938 Q169.2656,255.9375 169.2656,252.8125 Q169.2656,249.6875 170.5781,248.0313 Q171.9063,246.375 174.4063,246.375 Q175.1094,246.375 175.75,246.5313 Q176.4063,246.6875 176.9688,246.9844 L176.9688,249.7031 Q176.3438,249.125 175.75,248.8594 Q175.1563,248.5781 174.5313,248.5781 Q173.1875,248.5781 172.5,249.6563 Q171.8125,250.7188 171.8125,252.8125 Q171.8125,254.9063 172.5,255.9844 Q173.1875,257.0469 174.5313,257.0469 Q175.1563,257.0469 175.75,256.7813 Q176.3438,256.5 176.9688,255.9219 L176.9688,258.6406 Z "/><text fill="#000000" font-family="sans-serif" font-size="12" lengthAdjust="spacingAndGlyphs" textLength="76" x="188" y="257.1543">GameObject</text><line style="stroke: #A80036; stroke-width: 1.5;" x1="160" x2="266" y1="269" y2="269"/><line style="stroke: #A80036; stroke-width: 1.5;" x1="160" x2="266" y1="277" y2="277"/><!--MD5=[bd4373e06a638ae53038d9d5557e16e7]
reverse link ScriptableObject to DefaultPresetLink--><path d="M139,76.11 C139,89.31 139,103.54 139,115.65 " fill="none" id="ScriptableObject&lt;-DefaultPresetLink" style="stroke: #A80036; stroke-width: 1.0;"/><polygon fill="none" points="132,76.04,139,56.04,146,76.04,132,76.04" style="stroke: #A80036; stroke-width: 1.0;"/><!--MD5=[8689a6dfd8368b59a5e81bb06ee6cbf8]
link DefaultPresetLink to DefaultPreset--><path d="M119.56,177.06 C108.36,194.08 94.38,215.34 83.37,232.08 " fill="none" id="DefaultPresetLink-&gt;DefaultPreset" style="stroke: #A80036; stroke-width: 1.0;"/><polygon fill="#A80036" points="80.35,236.67,88.6285,231.3346,83.0905,232.4879,81.9372,226.9499,80.35,236.67" style="stroke: #A80036; stroke-width: 1.0;"/><text fill="#000000" font-family="sans-serif" font-size="13" lengthAdjust="spacingAndGlyphs" textLength="41" x="38.0947" y="225.9945">preset</text><!--MD5=[caeffe0335ca42e5e5583759d7957dcb]
link DefaultPresetLink to GameObject--><path d="M158.44,177.06 C169.64,194.08 183.62,215.34 194.63,232.08 " fill="none" id="DefaultPresetLink-&gt;GameObject" style="stroke: #A80036; stroke-width: 1.0;"/><polygon fill="#A80036" points="197.65,236.67,196.0628,226.9499,194.9095,232.4879,189.3715,231.3346,197.65,236.67" style="stroke: #A80036; stroke-width: 1.0;"/><text fill="#000000" font-family="sans-serif" font-size="13" lengthAdjust="spacingAndGlyphs" textLength="41" x="147.9116" y="225.9945">prefab</text><!--MD5=[f2c825284fd0c50160293adcb1c0e983]
@startuml
class DefaultPresetLink {
    + Debug() : void
}
ScriptableObject <|- - DefaultPresetLink
DefaultPresetLink - -> "preset" DefaultPreset
DefaultPresetLink - -> "prefab" GameObject
@enduml

PlantUML version 1.2020.02(Sun Mar 01 10:22:07 GMT 2020)
(GPL source distribution)
Java Runtime: OpenJDK Runtime Environment
JVM: OpenJDK 64-Bit Server VM
Java Version: 11.0.9+11-Ubuntu-0ubuntu1
Operating System: Linux
Default Encoding: ANSI_X3.4-1968
Language: en
Country: US
--></g></svg>