<?xml version="1.0" encoding="UTF-8" standalone="no"?><svg xmlns="http://www.w3.org/2000/svg" xmlns:xlink="http://www.w3.org/1999/xlink" contentScriptType="application/ecmascript" contentStyleType="text/css" height="200px" preserveAspectRatio="none" style="width:321px;height:200px;" version="1.1" viewBox="0 0 321 200" width="321px" zoomAndPan="magnify"><defs><filter height="300%" id="f176438jktwscm" width="300%" x="-1" y="-1"><feGaussianBlur result="blurOut" stdDeviation="2.0"/><feColorMatrix in="blurOut" result="blurOut2" type="matrix" values="0 0 0 0 0 0 0 0 0 0 0 0 0 0 0 0 0 0 .4 0"/><feOffset dx="4.0" dy="4.0" in="blurOut2" result="blurOut3"/><feBlend in="SourceGraphic" in2="blurOut3" mode="normal"/></filter></defs><g><!--MD5=[3195b7efb96e3177104ad4899b9f3bf0]
class DefaultPreset--><rect fill="#FEFECE" filter="url(#f176438jktwscm)" height="73.6094" id="DefaultPreset" style="stroke: #A80036; stroke-width: 1.5;" width="304" x="6" y="116"/><ellipse cx="110.75" cy="132" fill="#ADD1B2" rx="11" ry="11" style="stroke: #A80036; stroke-width: 1.0;"/><path d="M113.7188,137.6406 Q113.1406,137.9375 112.5,138.0781 Q111.8594,138.2344 111.1563,138.2344 Q108.6563,138.2344 107.3281,136.5938 Q106.0156,134.9375 106.0156,131.8125 Q106.0156,128.6875 107.3281,127.0313 Q108.6563,125.375 111.1563,125.375 Q111.8594,125.375 112.5,125.5313 Q113.1563,125.6875 113.7188,125.9844 L113.7188,128.7031 Q113.0938,128.125 112.5,127.8594 Q111.9063,127.5781 111.2813,127.5781 Q109.9375,127.5781 109.25,128.6563 Q108.5625,129.7188 108.5625,131.8125 Q108.5625,133.9063 109.25,134.9844 Q109.9375,136.0469 111.2813,136.0469 Q111.9063,136.0469 112.5,135.7813 Q113.0938,135.5 113.7188,134.9219 L113.7188,137.6406 Z "/><text fill="#000000" font-family="sans-serif" font-size="12" lengthAdjust="spacingAndGlyphs" textLength="86" x="131.25" y="136.1543">DefaultPreset</text><line style="stroke: #A80036; stroke-width: 1.5;" x1="7" x2="309" y1="148" y2="148"/><line style="stroke: #A80036; stroke-width: 1.5;" x1="7" x2="309" y1="156" y2="156"/><ellipse cx="17" cy="167" fill="#84BE84" rx="3" ry="3" style="stroke: #038048; stroke-width: 1.0;"/><text fill="#000000" font-family="sans-serif" font-size="11" lengthAdjust="spacingAndGlyphs" textLength="278" x="26" y="170.2104">DefaultPreset(_name:string, _category:Category)</text><ellipse cx="17" cy="179.8047" fill="#84BE84" rx="3" ry="3" style="stroke: #038048; stroke-width: 1.0;"/><text fill="#000000" font-family="sans-serif" font-size="11" lengthAdjust="spacingAndGlyphs" textLength="230" x="26" y="183.0151">«override» LoadInstance() : GameObject</text><!--MD5=[991e412d88df16baad981f5d4c802308]
class Preset--><rect fill="#FEFECE" filter="url(#f176438jktwscm)" height="48" id="Preset" style="stroke: #A80036; stroke-width: 1.5;" width="73" x="121.5" y="8"/><ellipse cx="136.5" cy="24" fill="#ADD1B2" rx="11" ry="11" style="stroke: #A80036; stroke-width: 1.0;"/><path d="M139.4688,29.6406 Q138.8906,29.9375 138.25,30.0781 Q137.6094,30.2344 136.9063,30.2344 Q134.4063,30.2344 133.0781,28.5938 Q131.7656,26.9375 131.7656,23.8125 Q131.7656,20.6875 133.0781,19.0313 Q134.4063,17.375 136.9063,17.375 Q137.6094,17.375 138.25,17.5313 Q138.9063,17.6875 139.4688,17.9844 L139.4688,20.7031 Q138.8438,20.125 138.25,19.8594 Q137.6563,19.5781 137.0313,19.5781 Q135.6875,19.5781 135,20.6563 Q134.3125,21.7188 134.3125,23.8125 Q134.3125,25.9063 135,26.9844 Q135.6875,28.0469 137.0313,28.0469 Q137.6563,28.0469 138.25,27.7813 Q138.8438,27.5 139.4688,26.9219 L139.4688,29.6406 Z "/><text fill="#000000" font-family="sans-serif" font-size="12" lengthAdjust="spacingAndGlyphs" textLength="41" x="150.5" y="28.1543">Preset</text><line style="stroke: #A80036; stroke-width: 1.5;" x1="122.5" x2="193.5" y1="40" y2="40"/><line style="stroke: #A80036; stroke-width: 1.5;" x1="122.5" x2="193.5" y1="48" y2="48"/><!--MD5=[4fcc1651385cd3ce6c89b2e14cf7edf4]
reverse link Preset to DefaultPreset--><path d="M158,76.43 C158,89.33 158,103.32 158,115.71 " fill="none" id="Preset&lt;-DefaultPreset" style="stroke: #A80036; stroke-width: 1.0;"/><polygon fill="none" points="151,76.23,158,56.23,165,76.23,151,76.23" style="stroke: #A80036; stroke-width: 1.0;"/><!--MD5=[5b08c6e37535fd3a71da5d43b0b963d7]
@startuml
class DefaultPreset {
    + DefaultPreset(_name:string, _category:Category)
    + <<override>> LoadInstance() : GameObject
}
Preset <|- - DefaultPreset
@enduml

PlantUML version 1.2020.02(Sun Mar 01 10:22:07 GMT 2020)
(GPL source distribution)
Java Runtime: OpenJDK Runtime Environment
JVM: OpenJDK 64-Bit Server VM
Java Version: 11.0.9+11-Ubuntu-0ubuntu1
Operating System: Linux
Default Encoding: ANSI_X3.4-1968
Language: en
Country: US
--></g></svg>