<?xml version="1.0" encoding="UTF-8" standalone="no"?><svg xmlns="http://www.w3.org/2000/svg" xmlns:xlink="http://www.w3.org/1999/xlink" contentScriptType="application/ecmascript" contentStyleType="text/css" height="187px" preserveAspectRatio="none" style="width:307px;height:187px;" version="1.1" viewBox="0 0 307 187" width="307px" zoomAndPan="magnify"><defs><filter height="300%" id="f1hb7yesalijsa" width="300%" x="-1" y="-1"><feGaussianBlur result="blurOut" stdDeviation="2.0"/><feColorMatrix in="blurOut" result="blurOut2" type="matrix" values="0 0 0 0 0 0 0 0 0 0 0 0 0 0 0 0 0 0 .4 0"/><feOffset dx="4.0" dy="4.0" in="blurOut2" result="blurOut3"/><feBlend in="SourceGraphic" in2="blurOut3" mode="normal"/></filter></defs><g><!--MD5=[0e19444ef8ac5ca846310d3385ed511e]
class Instantiator--><rect fill="#FEFECE" filter="url(#f1hb7yesalijsa)" height="60.8047" id="Instantiator" style="stroke: #A80036; stroke-width: 1.5;" width="290" x="6" y="116"/><ellipse cx="110.25" cy="132" fill="#ADD1B2" rx="11" ry="11" style="stroke: #A80036; stroke-width: 1.0;"/><path d="M113.2188,137.6406 Q112.6406,137.9375 112,138.0781 Q111.3594,138.2344 110.6563,138.2344 Q108.1563,138.2344 106.8281,136.5938 Q105.5156,134.9375 105.5156,131.8125 Q105.5156,128.6875 106.8281,127.0313 Q108.1563,125.375 110.6563,125.375 Q111.3594,125.375 112,125.5313 Q112.6563,125.6875 113.2188,125.9844 L113.2188,128.7031 Q112.5938,128.125 112,127.8594 Q111.4063,127.5781 110.7813,127.5781 Q109.4375,127.5781 108.75,128.6563 Q108.0625,129.7188 108.0625,131.8125 Q108.0625,133.9063 108.75,134.9844 Q109.4375,136.0469 110.7813,136.0469 Q111.4063,136.0469 112,135.7813 Q112.5938,135.5 113.2188,134.9219 L113.2188,137.6406 Z "/><text fill="#000000" font-family="sans-serif" font-size="12" lengthAdjust="spacingAndGlyphs" textLength="73" x="130.75" y="136.1543">Instantiator</text><line style="stroke: #A80036; stroke-width: 1.5;" x1="7" x2="295" y1="148" y2="148"/><line style="stroke: #A80036; stroke-width: 1.5;" x1="7" x2="295" y1="156" y2="156"/><ellipse cx="17" cy="167" fill="#84BE84" rx="3" ry="3" style="stroke: #038048; stroke-width: 1.0;"/><text fill="#000000" font-family="sans-serif" font-size="11" lengthAdjust="spacingAndGlyphs" text-decoration="underline" textLength="264" x="26" y="170.2104">Instantiate(_object:GameObject) : GameObject</text><!--MD5=[83b3cf3d23d77c6f1e1b5291a241bc2a]
class MonoBehaviour--><rect fill="#FEFECE" filter="url(#f1hb7yesalijsa)" height="48" id="MonoBehaviour" style="stroke: #A80036; stroke-width: 1.5;" width="128" x="87" y="8"/><ellipse cx="102" cy="24" fill="#ADD1B2" rx="11" ry="11" style="stroke: #A80036; stroke-width: 1.0;"/><path d="M104.9688,29.6406 Q104.3906,29.9375 103.75,30.0781 Q103.1094,30.2344 102.4063,30.2344 Q99.9063,30.2344 98.5781,28.5938 Q97.2656,26.9375 97.2656,23.8125 Q97.2656,20.6875 98.5781,19.0313 Q99.9063,17.375 102.4063,17.375 Q103.1094,17.375 103.75,17.5313 Q104.4063,17.6875 104.9688,17.9844 L104.9688,20.7031 Q104.3438,20.125 103.75,19.8594 Q103.1563,19.5781 102.5313,19.5781 Q101.1875,19.5781 100.5,20.6563 Q99.8125,21.7188 99.8125,23.8125 Q99.8125,25.9063 100.5,26.9844 Q101.1875,28.0469 102.5313,28.0469 Q103.1563,28.0469 103.75,27.7813 Q104.3438,27.5 104.9688,26.9219 L104.9688,29.6406 Z "/><text fill="#000000" font-family="sans-serif" font-size="12" lengthAdjust="spacingAndGlyphs" textLength="96" x="116" y="28.1543">MonoBehaviour</text><line style="stroke: #A80036; stroke-width: 1.5;" x1="88" x2="214" y1="40" y2="40"/><line style="stroke: #A80036; stroke-width: 1.5;" x1="88" x2="214" y1="48" y2="48"/><!--MD5=[6c121c298570fcd59a5ed18dfacbe15f]
reverse link MonoBehaviour to Instantiator--><path d="M151,76.11 C151,89.31 151,103.54 151,115.65 " fill="none" id="MonoBehaviour&lt;-Instantiator" style="stroke: #A80036; stroke-width: 1.0;"/><polygon fill="none" points="144,76.04,151,56.04,158,76.04,144,76.04" style="stroke: #A80036; stroke-width: 1.0;"/><!--MD5=[223c326bf9bdfe7c32afd90bff7af58c]
@startuml
class Instantiator {
    + {static} Instantiate(_object:GameObject) : GameObject
}
MonoBehaviour <|- - Instantiator
@enduml

PlantUML version 1.2020.02(Sun Mar 01 10:22:07 GMT 2020)
(GPL source distribution)
Java Runtime: OpenJDK Runtime Environment
JVM: OpenJDK 64-Bit Server VM
Java Version: 11.0.9+11-Ubuntu-0ubuntu1
Operating System: Linux
Default Encoding: ANSI_X3.4-1968
Language: en
Country: US
--></g></svg>