<?xml version="1.0" encoding="UTF-8" standalone="no"?><svg xmlns="http://www.w3.org/2000/svg" xmlns:xlink="http://www.w3.org/1999/xlink" contentScriptType="application/ecmascript" contentStyleType="text/css" height="283px" preserveAspectRatio="none" style="width:281px;height:283px;" version="1.1" viewBox="0 0 281 283" width="281px" zoomAndPan="magnify"><defs><filter height="300%" id="f1kggagrnmflt6" width="300%" x="-1" y="-1"><feGaussianBlur result="blurOut" stdDeviation="2.0"/><feColorMatrix in="blurOut" result="blurOut2" type="matrix" values="0 0 0 0 0 0 0 0 0 0 0 0 0 0 0 0 0 0 .4 0"/><feOffset dx="4.0" dy="4.0" in="blurOut2" result="blurOut3"/><feBlend in="SourceGraphic" in2="blurOut3" mode="normal"/></filter></defs><g><!--MD5=[64c2712a0477811515412555727a7ab7]
class PresetLibrary--><rect fill="#FEFECE" filter="url(#f1kggagrnmflt6)" height="48" id="PresetLibrary" style="stroke: #A80036; stroke-width: 1.5;" width="114" x="146" y="116"/><ellipse cx="161" cy="132" fill="#ADD1B2" rx="11" ry="11" style="stroke: #A80036; stroke-width: 1.0;"/><path d="M163.9688,137.6406 Q163.3906,137.9375 162.75,138.0781 Q162.1094,138.2344 161.4063,138.2344 Q158.9063,138.2344 157.5781,136.5938 Q156.2656,134.9375 156.2656,131.8125 Q156.2656,128.6875 157.5781,127.0313 Q158.9063,125.375 161.4063,125.375 Q162.1094,125.375 162.75,125.5313 Q163.4063,125.6875 163.9688,125.9844 L163.9688,128.7031 Q163.3438,128.125 162.75,127.8594 Q162.1563,127.5781 161.5313,127.5781 Q160.1875,127.5781 159.5,128.6563 Q158.8125,129.7188 158.8125,131.8125 Q158.8125,133.9063 159.5,134.9844 Q160.1875,136.0469 161.5313,136.0469 Q162.1563,136.0469 162.75,135.7813 Q163.3438,135.5 163.9688,134.9219 L163.9688,137.6406 Z "/><text fill="#000000" font-family="sans-serif" font-size="12" lengthAdjust="spacingAndGlyphs" textLength="82" x="175" y="136.1543">PresetLibrary</text><line style="stroke: #A80036; stroke-width: 1.5;" x1="147" x2="259" y1="148" y2="148"/><line style="stroke: #A80036; stroke-width: 1.5;" x1="147" x2="259" y1="156" y2="156"/><!--MD5=[e644022de7dea015dd09463c37421447]
class List`1--><rect fill="#FEFECE" filter="url(#f1kggagrnmflt6)" height="48" id="List`1" style="stroke: #A80036; stroke-width: 1.5;" width="78" x="164" y="224"/><ellipse cx="179" cy="240" fill="#ADD1B2" rx="11" ry="11" style="stroke: #A80036; stroke-width: 1.0;"/><path d="M181.9688,245.6406 Q181.3906,245.9375 180.75,246.0781 Q180.1094,246.2344 179.4063,246.2344 Q176.9063,246.2344 175.5781,244.5938 Q174.2656,242.9375 174.2656,239.8125 Q174.2656,236.6875 175.5781,235.0313 Q176.9063,233.375 179.4063,233.375 Q180.1094,233.375 180.75,233.5313 Q181.4063,233.6875 181.9688,233.9844 L181.9688,236.7031 Q181.3438,236.125 180.75,235.8594 Q180.1563,235.5781 179.5313,235.5781 Q178.1875,235.5781 177.5,236.6563 Q176.8125,237.7188 176.8125,239.8125 Q176.8125,241.9063 177.5,242.9844 Q178.1875,244.0469 179.5313,244.0469 Q180.1563,244.0469 180.75,243.7813 Q181.3438,243.5 181.9688,242.9219 L181.9688,245.6406 Z "/><text fill="#000000" font-family="sans-serif" font-size="12" lengthAdjust="spacingAndGlyphs" textLength="35" x="193" y="244.1543">List`1</text><rect fill="#FFFFFF" height="15.9688" style="stroke: #000000; stroke-width: 1.0; stroke-dasharray: 2.0,2.0;" width="9" x="236" y="221"/><text fill="#000000" font-family="sans-serif" font-size="12" font-style="italic" lengthAdjust="spacingAndGlyphs" textLength="7" x="237" y="233.1387">T</text><line style="stroke: #A80036; stroke-width: 1.5;" x1="165" x2="241" y1="256" y2="256"/><line style="stroke: #A80036; stroke-width: 1.5;" x1="165" x2="241" y1="264" y2="264"/><!--MD5=[44895057fba17b10f3053a7baa21df04]
class ScriptableObject--><rect fill="#FEFECE" filter="url(#f1kggagrnmflt6)" height="48" id="ScriptableObject" style="stroke: #A80036; stroke-width: 1.5;" width="135" x="135.5" y="8"/><ellipse cx="150.5" cy="24" fill="#ADD1B2" rx="11" ry="11" style="stroke: #A80036; stroke-width: 1.0;"/><path d="M153.4688,29.6406 Q152.8906,29.9375 152.25,30.0781 Q151.6094,30.2344 150.9063,30.2344 Q148.4063,30.2344 147.0781,28.5938 Q145.7656,26.9375 145.7656,23.8125 Q145.7656,20.6875 147.0781,19.0313 Q148.4063,17.375 150.9063,17.375 Q151.6094,17.375 152.25,17.5313 Q152.9063,17.6875 153.4688,17.9844 L153.4688,20.7031 Q152.8438,20.125 152.25,19.8594 Q151.6563,19.5781 151.0313,19.5781 Q149.6875,19.5781 149,20.6563 Q148.3125,21.7188 148.3125,23.8125 Q148.3125,25.9063 149,26.9844 Q149.6875,28.0469 151.0313,28.0469 Q151.6563,28.0469 152.25,27.7813 Q152.8438,27.5 153.4688,26.9219 L153.4688,29.6406 Z "/><text fill="#000000" font-family="sans-serif" font-size="12" lengthAdjust="spacingAndGlyphs" textLength="103" x="164.5" y="28.1543">ScriptableObject</text><line style="stroke: #A80036; stroke-width: 1.5;" x1="136.5" x2="269.5" y1="40" y2="40"/><line style="stroke: #A80036; stroke-width: 1.5;" x1="136.5" x2="269.5" y1="48" y2="48"/><!--MD5=[b69333230ee4cff7445c492b2d8e0f06]
reverse link ScriptableObject to PresetLibrary--><path d="M203,76.02 C203,89.58 203,104.04 203,115.68 " fill="none" id="ScriptableObject&lt;-PresetLibrary" style="stroke: #A80036; stroke-width: 1.0;"/><polygon fill="none" points="196,76,203,56,210,76,196,76" style="stroke: #A80036; stroke-width: 1.0;"/><!--MD5=[ae296c051ef6b4dbf9efffa2c54cc496]
link PresetLibrary to List`1--><path d="M203,164 C203,180 203,201.45 203,218.53 " fill="none" id="PresetLibrary-&gt;List`1" style="stroke: #A80036; stroke-width: 1.0;"/><polygon fill="#A80036" points="203,223.68,207,214.68,203,218.68,199,214.68,203,223.68" style="stroke: #A80036; stroke-width: 1.0;"/><text fill="#000000" font-family="sans-serif" font-size="13" lengthAdjust="spacingAndGlyphs" textLength="182" x="-1.1812" y="213.007">presets&lt;DefaultPresetLink&gt;</text><!--MD5=[afb8d70b41698c7660f0f41a4ee624c1]
@startuml
class PresetLibrary {
}
class "List`1"<T> {
}
ScriptableObject <|- - PresetLibrary
PresetLibrary - -> "presets<DefaultPresetLink>" "List`1"
@enduml

PlantUML version 1.2020.02(Sun Mar 01 10:22:07 GMT 2020)
(GPL source distribution)
Java Runtime: OpenJDK Runtime Environment
JVM: OpenJDK 64-Bit Server VM
Java Version: 11.0.9+11-Ubuntu-0ubuntu1
Operating System: Linux
Default Encoding: ANSI_X3.4-1968
Language: en
Country: US
--></g></svg>