<?xml version="1.0" encoding="UTF-8" standalone="no"?><svg xmlns="http://www.w3.org/2000/svg" xmlns:xlink="http://www.w3.org/1999/xlink" contentScriptType="application/ecmascript" contentStyleType="text/css" height="162px" preserveAspectRatio="none" style="width:797px;height:162px;" version="1.1" viewBox="0 0 797 162" width="797px" zoomAndPan="magnify"><defs><filter height="300%" id="fo58b0gpz2p1v" width="300%" x="-1" y="-1"><feGaussianBlur result="blurOut" stdDeviation="2.0"/><feColorMatrix in="blurOut" result="blurOut2" type="matrix" values="0 0 0 0 0 0 0 0 0 0 0 0 0 0 0 0 0 0 .4 0"/><feOffset dx="4.0" dy="4.0" in="blurOut2" result="blurOut3"/><feBlend in="SourceGraphic" in2="blurOut3" mode="normal"/></filter></defs><g><!--MD5=[64372461e0b2997cf37bdf0b89408faa]
class PresetCatalogue--><rect fill="#FEFECE" filter="url(#fo58b0gpz2p1v)" height="143.5703" id="PresetCatalogue" style="stroke: #A80036; stroke-width: 1.5;" width="497" x="6" y="8"/><ellipse cx="197.75" cy="26.9688" fill="#ADD1B2" rx="11" ry="11" style="stroke: #A80036; stroke-width: 1.0;"/><path d="M200.7188,32.6094 Q200.1406,32.9063 199.5,33.0469 Q198.8594,33.2031 198.1563,33.2031 Q195.6563,33.2031 194.3281,31.5625 Q193.0156,29.9063 193.0156,26.7813 Q193.0156,23.6563 194.3281,22 Q195.6563,20.3438 198.1563,20.3438 Q198.8594,20.3438 199.5,20.5 Q200.1563,20.6563 200.7188,20.9531 L200.7188,23.6719 Q200.0938,23.0938 199.5,22.8281 Q198.9063,22.5469 198.2813,22.5469 Q196.9375,22.5469 196.25,23.625 Q195.5625,24.6875 195.5625,26.7813 Q195.5625,28.875 196.25,29.9531 Q196.9375,31.0156 198.2813,31.0156 Q198.9063,31.0156 199.5,30.75 Q200.0938,30.4688 200.7188,29.8906 L200.7188,32.6094 Z "/><text fill="#000000" font-family="sans-serif" font-size="12" font-style="italic" lengthAdjust="spacingAndGlyphs" textLength="48" x="246.75" y="24.1387">«static»</text><text fill="#000000" font-family="sans-serif" font-size="12" lengthAdjust="spacingAndGlyphs" textLength="105" x="218.25" y="38.1074">PresetCatalogue</text><line style="stroke: #A80036; stroke-width: 1.5;" x1="7" x2="502" y1="45.9375" y2="45.9375"/><line style="stroke: #A80036; stroke-width: 1.5;" x1="7" x2="502" y1="53.9375" y2="53.9375"/><ellipse cx="17" cy="64.9375" fill="#84BE84" rx="3" ry="3" style="stroke: #038048; stroke-width: 1.0;"/><text fill="#000000" font-family="sans-serif" font-size="11" lengthAdjust="spacingAndGlyphs" text-decoration="underline" textLength="471" x="26" y="68.1479">SetDefaultPresets(_presetList:List&lt;DefaultPresetLink&gt;, _addToPresets:bool) : void</text><ellipse cx="17" cy="77.7422" fill="#84BE84" rx="3" ry="3" style="stroke: #038048; stroke-width: 1.0;"/><text fill="#000000" font-family="sans-serif" font-size="11" lengthAdjust="spacingAndGlyphs" text-decoration="underline" textLength="232" x="26" y="80.9526">LoadList(_presetList:List&lt;Preset&gt;) : void</text><ellipse cx="17" cy="90.5469" fill="#84BE84" rx="3" ry="3" style="stroke: #038048; stroke-width: 1.0;"/><text fill="#000000" font-family="sans-serif" font-size="11" lengthAdjust="spacingAndGlyphs" text-decoration="underline" textLength="211" x="26" y="93.7573">GetPresetByID(_presetID:int) : Preset</text><ellipse cx="17" cy="103.3516" fill="#84BE84" rx="3" ry="3" style="stroke: #038048; stroke-width: 1.0;"/><text fill="#000000" font-family="sans-serif" font-size="11" lengthAdjust="spacingAndGlyphs" text-decoration="underline" textLength="282" x="26" y="106.562">GetPrefabByPreset(_preset:Preset) : GameObject</text><ellipse cx="17" cy="116.1563" fill="#84BE84" rx="3" ry="3" style="stroke: #038048; stroke-width: 1.0;"/><text fill="#000000" font-family="sans-serif" font-size="11" lengthAdjust="spacingAndGlyphs" text-decoration="underline" textLength="277" x="26" y="119.3667">PresetWithOBJNameExits(_objName:string) : bool</text><ellipse cx="17" cy="128.9609" fill="#84BE84" rx="3" ry="3" style="stroke: #038048; stroke-width: 1.0;"/><text fill="#000000" font-family="sans-serif" font-size="11" lengthAdjust="spacingAndGlyphs" text-decoration="underline" textLength="201" x="26" y="132.1714">AddNewEntry(_preset:Preset) : void</text><ellipse cx="17" cy="141.7656" fill="#84BE84" rx="3" ry="3" style="stroke: #038048; stroke-width: 1.0;"/><text fill="#000000" font-family="sans-serif" font-size="11" lengthAdjust="spacingAndGlyphs" text-decoration="underline" textLength="140" x="26" y="144.9761">GetFirstAvailableID() : int</text><!--MD5=[e644022de7dea015dd09463c37421447]
class List`1--><rect fill="#FEFECE" filter="url(#fo58b0gpz2p1v)" height="48" id="List`1" style="stroke: #A80036; stroke-width: 1.5;" width="78" x="538.5" y="56"/><ellipse cx="553.5" cy="72" fill="#ADD1B2" rx="11" ry="11" style="stroke: #A80036; stroke-width: 1.0;"/><path d="M556.4688,77.6406 Q555.8906,77.9375 555.25,78.0781 Q554.6094,78.2344 553.9063,78.2344 Q551.4063,78.2344 550.0781,76.5938 Q548.7656,74.9375 548.7656,71.8125 Q548.7656,68.6875 550.0781,67.0313 Q551.4063,65.375 553.9063,65.375 Q554.6094,65.375 555.25,65.5313 Q555.9063,65.6875 556.4688,65.9844 L556.4688,68.7031 Q555.8438,68.125 555.25,67.8594 Q554.6563,67.5781 554.0313,67.5781 Q552.6875,67.5781 552,68.6563 Q551.3125,69.7188 551.3125,71.8125 Q551.3125,73.9063 552,74.9844 Q552.6875,76.0469 554.0313,76.0469 Q554.6563,76.0469 555.25,75.7813 Q555.8438,75.5 556.4688,74.9219 L556.4688,77.6406 Z "/><text fill="#000000" font-family="sans-serif" font-size="12" lengthAdjust="spacingAndGlyphs" textLength="35" x="567.5" y="76.1543">List`1</text><rect fill="#FFFFFF" height="15.9688" style="stroke: #000000; stroke-width: 1.0; stroke-dasharray: 2.0,2.0;" width="9" x="610.5" y="53"/><text fill="#000000" font-family="sans-serif" font-size="12" font-style="italic" lengthAdjust="spacingAndGlyphs" textLength="7" x="611.5" y="65.1387">T</text><line style="stroke: #A80036; stroke-width: 1.5;" x1="539.5" x2="615.5" y1="88" y2="88"/><line style="stroke: #A80036; stroke-width: 1.5;" x1="539.5" x2="615.5" y1="96" y2="96"/><!--MD5=[cef46f8cd50a500c9f8ab0b4b70b43c2]
link PresetCatalogue to List`1--><path d="M514.2581,113.9969 C514.2581,113.9969 522.8,110.41 526.48,108.73 " fill="none" id="PresetCatalogue-List`1" style="stroke: #A80036; stroke-width: 1.0;"/><polygon fill="#A80036" points="538.24,103.06,528.3959,103.3668,533.7364,105.2321,531.8712,110.5726,538.24,103.06" style="stroke: #A80036; stroke-width: 1.0;"/><line style="stroke: #A80036; stroke-width: 1.0;" x1="533.7364" x2="526.535" y1="105.2321" y2="108.705"/><polygon fill="#FFFFFF" points="503.06,118.31,510.0967,119.8862,514.2581,113.9969,507.2214,112.4208,503.06,118.31" style="stroke: #A80036; stroke-width: 1.0;"/><text fill="#000000" font-family="sans-serif" font-size="13" lengthAdjust="spacingAndGlyphs" textLength="125" x="545.0668" y="124.1234">allPresets&lt;Preset&gt;</text><!--MD5=[cef46f8cd50a500c9f8ab0b4b70b43c2]
link PresetCatalogue to List`1--><path d="M515.06,80 C515.06,80 522.21,80 525.19,80 " fill="none" id="PresetCatalogue-List`1-1" style="stroke: #A80036; stroke-width: 1.0;"/><polygon fill="#A80036" points="538.24,80,529.24,76,533.24,80,529.24,84,538.24,80" style="stroke: #A80036; stroke-width: 1.0;"/><line style="stroke: #A80036; stroke-width: 1.0;" x1="533.24" x2="525.24" y1="80" y2="80"/><polygon fill="#FFFFFF" points="503.06,80,509.06,84,515.06,80,509.06,76,503.06,80" style="stroke: #A80036; stroke-width: 1.0;"/><text fill="#000000" font-family="sans-serif" font-size="13" lengthAdjust="spacingAndGlyphs" textLength="139" x="624.424" y="55.8812">userPresets&lt;Preset&gt;</text><!--MD5=[cef46f8cd50a500c9f8ab0b4b70b43c2]
link PresetCatalogue to List`1--><path d="M514.2581,46.0031 C514.2581,46.0031 522.8,49.59 526.48,51.27 " fill="none" id="PresetCatalogue-List`1-2" style="stroke: #A80036; stroke-width: 1.0;"/><polygon fill="#A80036" points="538.24,56.94,531.8712,49.4274,533.7364,54.7679,528.3959,56.6332,538.24,56.94" style="stroke: #A80036; stroke-width: 1.0;"/><line style="stroke: #A80036; stroke-width: 1.0;" x1="533.7364" x2="526.535" y1="54.7679" y2="51.295"/><polygon fill="#FFFFFF" points="503.06,41.69,507.2214,47.5792,514.2581,46.0031,510.0967,40.1138,503.06,41.69" style="stroke: #A80036; stroke-width: 1.0;"/><text fill="#000000" font-family="sans-serif" font-size="13" lengthAdjust="spacingAndGlyphs" textLength="226" x="559.9011" y="45.0494">defaultPresets&lt;DefaultPresetLink&gt;</text><!--MD5=[63ef45f49eb2b371130fa4e13e00d533]
@startuml
class PresetCatalogue <<static>> {
    + {static} SetDefaultPresets(_presetList:List<DefaultPresetLink>, _addToPresets:bool) : void
    + {static} LoadList(_presetList:List<Preset>) : void
    + {static} GetPresetByID(_presetID:int) : Preset
    + {static} GetPrefabByPreset(_preset:Preset) : GameObject
    + {static} PresetWithOBJNameExits(_objName:string) : bool
    + {static} AddNewEntry(_preset:Preset) : void
    + {static} GetFirstAvailableID() : int
}
class "List`1"<T> {
}
PresetCatalogue o-> "allPresets<Preset>" "List`1"
PresetCatalogue o-> "userPresets<Preset>" "List`1"
PresetCatalogue o-> "defaultPresets<DefaultPresetLink>" "List`1"
@enduml

PlantUML version 1.2020.02(Sun Mar 01 10:22:07 GMT 2020)
(GPL source distribution)
Java Runtime: OpenJDK Runtime Environment
JVM: OpenJDK 64-Bit Server VM
Java Version: 11.0.9+11-Ubuntu-0ubuntu1
Operating System: Linux
Default Encoding: ANSI_X3.4-1968
Language: en
Country: US
--></g></svg>