<?xml version="1.0" encoding="UTF-8" standalone="no"?><svg xmlns="http://www.w3.org/2000/svg" xmlns:xlink="http://www.w3.org/1999/xlink" contentScriptType="application/ecmascript" contentStyleType="text/css" height="204px" preserveAspectRatio="none" style="width:669px;height:204px;" version="1.1" viewBox="0 0 669 204" width="669px" zoomAndPan="magnify"><defs><filter height="300%" id="fgyq58ggask4y" width="300%" x="-1" y="-1"><feGaussianBlur result="blurOut" stdDeviation="2.0"/><feColorMatrix in="blurOut" result="blurOut2" type="matrix" values="0 0 0 0 0 0 0 0 0 0 0 0 0 0 0 0 0 0 .4 0"/><feOffset dx="4.0" dy="4.0" in="blurOut2" result="blurOut3"/><feBlend in="SourceGraphic" in2="blurOut3" mode="normal"/></filter></defs><g><!--MD5=[991e412d88df16baad981f5d4c802308]
class Preset--><rect fill="#FEFECE" filter="url(#fgyq58ggask4y)" height="137.6328" id="Preset" style="stroke: #A80036; stroke-width: 1.5;" width="404" x="6" y="56"/><ellipse cx="184.25" cy="72" fill="#A9DCDF" rx="11" ry="11" style="stroke: #A80036; stroke-width: 1.0;"/><path d="M184.3594,67.3438 L183.2031,72.4219 L185.5313,72.4219 L184.3594,67.3438 Z M182.875,65.1094 L185.8594,65.1094 L189.2188,77.5 L186.7656,77.5 L186,74.4375 L182.7188,74.4375 L181.9688,77.5 L179.5313,77.5 L182.875,65.1094 Z "/><text fill="#000000" font-family="sans-serif" font-size="12" font-style="italic" lengthAdjust="spacingAndGlyphs" textLength="39" x="204.75" y="76.1543">Preset</text><line style="stroke: #A80036; stroke-width: 1.5;" x1="7" x2="409" y1="88" y2="88"/><ellipse cx="17" cy="99" fill="none" rx="3" ry="3" style="stroke: #038048; stroke-width: 1.0;"/><text fill="#000000" font-family="sans-serif" font-size="11" lengthAdjust="spacingAndGlyphs" textLength="74" x="26" y="102.2104">presetID : int</text><ellipse cx="17" cy="111.8047" fill="none" rx="3" ry="3" style="stroke: #038048; stroke-width: 1.0;"/><text fill="#000000" font-family="sans-serif" font-size="11" lengthAdjust="spacingAndGlyphs" textLength="115" x="26" y="115.0151">presetName : string</text><line style="stroke: #A80036; stroke-width: 1.5;" x1="7" x2="409" y1="121.6094" y2="121.6094"/><ellipse cx="17" cy="132.6094" fill="#84BE84" rx="3" ry="3" style="stroke: #038048; stroke-width: 1.0;"/><text fill="#000000" font-family="sans-serif" font-size="11" lengthAdjust="spacingAndGlyphs" textLength="238" x="26" y="135.8198">Preset(_name:string, _category:Category)</text><ellipse cx="17" cy="145.4141" fill="#84BE84" rx="3" ry="3" style="stroke: #038048; stroke-width: 1.0;"/><text fill="#000000" font-family="sans-serif" font-size="11" font-style="italic" lengthAdjust="spacingAndGlyphs" textLength="164" x="26" y="148.6245">LoadInstance() : GameObject</text><ellipse cx="17" cy="158.2188" fill="#84BE84" rx="3" ry="3" style="stroke: #038048; stroke-width: 1.0;"/><text fill="#000000" font-family="sans-serif" font-size="11" lengthAdjust="spacingAndGlyphs" textLength="263" x="26" y="161.4292">LoadInstance(_position:Vector3) : GameObject</text><ellipse cx="17" cy="171.0234" fill="#84BE84" rx="3" ry="3" style="stroke: #038048; stroke-width: 1.0;"/><text fill="#000000" font-family="sans-serif" font-size="11" lengthAdjust="spacingAndGlyphs" textLength="272" x="26" y="174.2339">LoadInstance(_parent:Transform) : GameObject</text><ellipse cx="17" cy="183.8281" fill="#84BE84" rx="3" ry="3" style="stroke: #038048; stroke-width: 1.0;"/><text fill="#000000" font-family="sans-serif" font-size="11" lengthAdjust="spacingAndGlyphs" textLength="378" x="26" y="187.0386">LoadInstance(_position:Vector3, _parent:Transform) : GameObject</text><!--MD5=[a96594a83e2ecdc78cbf17c2ddf01934]
class Category--><rect fill="#FEFECE" filter="url(#fgyq58ggask4y)" height="99.2188" id="Category" style="stroke: #A80036; stroke-width: 1.5;" width="97" x="561.5" y="75.5"/><ellipse cx="580.55" cy="91.5" fill="#EB937F" rx="11" ry="11" style="stroke: #A80036; stroke-width: 1.0;"/><path d="M584.6594,97.5 L576.9406,97.5 L576.9406,85.1094 L584.6594,85.1094 L584.6594,87.2656 L579.3938,87.2656 L579.3938,89.9375 L584.1594,89.9375 L584.1594,92.0938 L579.3938,92.0938 L579.3938,95.3438 L584.6594,95.3438 L584.6594,97.5 Z "/><text fill="#000000" font-family="sans-serif" font-size="12" lengthAdjust="spacingAndGlyphs" textLength="56" x="595.45" y="95.6543">Category</text><line style="stroke: #A80036; stroke-width: 1.5;" x1="562.5" x2="657.5" y1="107.5" y2="107.5"/><text fill="#000000" font-family="sans-serif" font-size="11" lengthAdjust="spacingAndGlyphs" textLength="53" x="567.5" y="121.7104">None= 0,</text><text fill="#000000" font-family="sans-serif" font-size="11" lengthAdjust="spacingAndGlyphs" textLength="52" x="567.5" y="134.5151">Road= 1,</text><text fill="#000000" font-family="sans-serif" font-size="11" lengthAdjust="spacingAndGlyphs" textLength="60" x="567.5" y="147.3198">House= 2,</text><text fill="#000000" font-family="sans-serif" font-size="11" lengthAdjust="spacingAndGlyphs" textLength="85" x="567.5" y="160.1245">Decoration= 3,</text><line style="stroke: #A80036; stroke-width: 1.5;" x1="562.5" x2="657.5" y1="166.7188" y2="166.7188"/><!--MD5=[3f551f1273bbfa514d2f681c1c48b5c1]
class Vector2--><rect fill="#FEFECE" filter="url(#fgyq58ggask4y)" height="48" id="Vector2" style="stroke: #A80036; stroke-width: 1.5;" width="81" x="445.5" y="101"/><ellipse cx="460.5" cy="117" fill="#ADD1B2" rx="11" ry="11" style="stroke: #A80036; stroke-width: 1.0;"/><path d="M463.4688,122.6406 Q462.8906,122.9375 462.25,123.0781 Q461.6094,123.2344 460.9063,123.2344 Q458.4063,123.2344 457.0781,121.5938 Q455.7656,119.9375 455.7656,116.8125 Q455.7656,113.6875 457.0781,112.0313 Q458.4063,110.375 460.9063,110.375 Q461.6094,110.375 462.25,110.5313 Q462.9063,110.6875 463.4688,110.9844 L463.4688,113.7031 Q462.8438,113.125 462.25,112.8594 Q461.6563,112.5781 461.0313,112.5781 Q459.6875,112.5781 459,113.6563 Q458.3125,114.7188 458.3125,116.8125 Q458.3125,118.9063 459,119.9844 Q459.6875,121.0469 461.0313,121.0469 Q461.6563,121.0469 462.25,120.7813 Q462.8438,120.5 463.4688,119.9219 L463.4688,122.6406 Z "/><text fill="#000000" font-family="sans-serif" font-size="12" lengthAdjust="spacingAndGlyphs" textLength="49" x="474.5" y="121.1543">Vector2</text><line style="stroke: #A80036; stroke-width: 1.5;" x1="446.5" x2="525.5" y1="133" y2="133"/><line style="stroke: #A80036; stroke-width: 1.5;" x1="446.5" x2="525.5" y1="141" y2="141"/><!--MD5=[c1aa83805cec32248a71cab49f23634d]
link Preset to Category--><path d="M333.1125,51.019 C333.1125,51.019 469.54,7.46 532.33,36 C546.77,42.56 559.58,53.29 570.41,65.05 " fill="none" id="Preset-Category" style="stroke: #A80036; stroke-width: 1.0;"/><polygon fill="#A80036" points="579.05,75.12,576.2322,65.6829,575.7969,71.3229,570.1569,70.8877,579.05,75.12" style="stroke: #A80036; stroke-width: 1.0;"/><line style="stroke: #A80036; stroke-width: 1.0;" x1="575.7969" x2="570.585" y1="71.3229" y2="65.25"/><polygon fill="#FFFFFF" points="322.15,55.9,329.2582,57.1137,333.1125,51.019,326.0042,49.8053,322.15,55.9" style="stroke: #A80036; stroke-width: 1.0;"/><text fill="#000000" font-family="sans-serif" font-size="13" lengthAdjust="spacingAndGlyphs" textLength="56" x="515.1286" y="64.4707">category</text><!--MD5=[30920d671f02cc36be5deb7c47a90a45]
reverse link Preset to Category--><path d="M349.11,49.85 C381.8,35.84 417.07,23.32 451.33,16 C481.47,9.56 492.81,2.82 520.67,16 C546.98,28.46 568.14,52.89 583.24,75.46 " fill="none" id="Preset&lt;-Category" style="stroke: #A80036; stroke-width: 1.0;"/><ellipse cx="342.5949" cy="52.7135" fill="#FFFFFF" rx="8" ry="8" style="stroke: #A80036; stroke-width: 1.0;"/><line style="stroke: #A80036; stroke-width: 1.0;" x1="349.9198" x2="335.27" y1="49.4969" y2="55.93"/><line style="stroke: #A80036; stroke-width: 1.0;" x1="345.8114" x2="339.3783" y1="60.0383" y2="45.3886"/><!--MD5=[997369daad8fd07a5a14f07682f032b0]
link Preset to Vector2--><path d="M422.26,125 C422.26,125 429.42,125 432.4,125 " fill="none" id="Preset-Vector2" style="stroke: #A80036; stroke-width: 1.0;"/><polygon fill="#A80036" points="445.47,125,436.47,121,440.47,125,436.47,129,445.47,125" style="stroke: #A80036; stroke-width: 1.0;"/><line style="stroke: #A80036; stroke-width: 1.0;" x1="440.47" x2="432.47" y1="125" y2="125"/><polygon fill="#FFFFFF" points="410.26,125,416.26,129,422.26,125,416.26,121,410.26,125" style="stroke: #A80036; stroke-width: 1.0;"/><text fill="#000000" font-family="sans-serif" font-size="13" lengthAdjust="spacingAndGlyphs" textLength="78" x="359.5502" y="101.1617">XZSizeUnits</text><!--MD5=[a5eaf7a5383eb83e48f77858653fe80d]
@startuml
abstract class Preset {
    + presetID : int
    + presetName : string
    + Preset(_name:string, _category:Category)
    + {abstract} LoadInstance() : GameObject
    + LoadInstance(_position:Vector3) : GameObject
    + LoadInstance(_parent:Transform) : GameObject
    + LoadInstance(_position:Vector3, _parent:Transform) : GameObject
}
enum Category {
    None= 0,
    Road= 1,
    House= 2,
    Decoration= 3,
}
Preset o-> "category" Category
Preset o-> "XZSizeUnits" Vector2
Preset +- - Category
@enduml

PlantUML version 1.2020.02(Sun Mar 01 10:22:07 GMT 2020)
(GPL source distribution)
Java Runtime: OpenJDK Runtime Environment
JVM: OpenJDK 64-Bit Server VM
Java Version: 11.0.9+11-Ubuntu-0ubuntu1
Operating System: Linux
Default Encoding: ANSI_X3.4-1968
Language: en
Country: US
--></g></svg>