<?xml version="1.0" encoding="UTF-8" standalone="no"?><svg xmlns="http://www.w3.org/2000/svg" xmlns:xlink="http://www.w3.org/1999/xlink" contentScriptType="application/ecmascript" contentStyleType="text/css" height="226px" preserveAspectRatio="none" style="width:523px;height:226px;" version="1.1" viewBox="0 0 523 226" width="523px" zoomAndPan="magnify"><defs><filter height="300%" id="f15t271h55op09" width="300%" x="-1" y="-1"><feGaussianBlur result="blurOut" stdDeviation="2.0"/><feColorMatrix in="blurOut" result="blurOut2" type="matrix" values="0 0 0 0 0 0 0 0 0 0 0 0 0 0 0 0 0 0 .4 0"/><feOffset dx="4.0" dy="4.0" in="blurOut2" result="blurOut3"/><feBlend in="SourceGraphic" in2="blurOut3" mode="normal"/></filter></defs><g><!--MD5=[ee1edf96b7b12359e8e073a6e922f1e7]
class UserPreset--><rect fill="#FEFECE" filter="url(#f15t271h55op09)" height="99.2188" id="UserPreset" style="stroke: #A80036; stroke-width: 1.5;" width="506" x="6" y="116"/><ellipse cx="219.75" cy="132" fill="#ADD1B2" rx="11" ry="11" style="stroke: #A80036; stroke-width: 1.0;"/><path d="M222.7188,137.6406 Q222.1406,137.9375 221.5,138.0781 Q220.8594,138.2344 220.1563,138.2344 Q217.6563,138.2344 216.3281,136.5938 Q215.0156,134.9375 215.0156,131.8125 Q215.0156,128.6875 216.3281,127.0313 Q217.6563,125.375 220.1563,125.375 Q220.8594,125.375 221.5,125.5313 Q222.1563,125.6875 222.7188,125.9844 L222.7188,128.7031 Q222.0938,128.125 221.5,127.8594 Q220.9063,127.5781 220.2813,127.5781 Q218.9375,127.5781 218.25,128.6563 Q217.5625,129.7188 217.5625,131.8125 Q217.5625,133.9063 218.25,134.9844 Q218.9375,136.0469 220.2813,136.0469 Q220.9063,136.0469 221.5,135.7813 Q222.0938,135.5 222.7188,134.9219 L222.7188,137.6406 Z "/><text fill="#000000" font-family="sans-serif" font-size="12" lengthAdjust="spacingAndGlyphs" textLength="70" x="240.25" y="136.1543">UserPreset</text><line style="stroke: #A80036; stroke-width: 1.5;" x1="7" x2="511" y1="148" y2="148"/><ellipse cx="17" cy="159" fill="none" rx="3" ry="3" style="stroke: #038048; stroke-width: 1.0;"/><text fill="#000000" font-family="sans-serif" font-size="11" lengthAdjust="spacingAndGlyphs" textLength="114" x="26" y="162.2104">objFileName : string</text><line style="stroke: #A80036; stroke-width: 1.5;" x1="7" x2="511" y1="168.8047" y2="168.8047"/><ellipse cx="17" cy="179.8047" fill="#84BE84" rx="3" ry="3" style="stroke: #038048; stroke-width: 1.0;"/><text fill="#000000" font-family="sans-serif" font-size="11" lengthAdjust="spacingAndGlyphs" textLength="385" x="26" y="183.0151">UserPreset(_name:string, _category:Category, _objFileName:string)</text><ellipse cx="17" cy="192.6094" fill="#84BE84" rx="3" ry="3" style="stroke: #038048; stroke-width: 1.0;"/><text fill="#000000" font-family="sans-serif" font-size="11" lengthAdjust="spacingAndGlyphs" textLength="480" x="26" y="195.8198">UserPreset(_name:string, _category:Category, _objFileName:string, _xzSize:Vector2)</text><ellipse cx="17" cy="205.4141" fill="#84BE84" rx="3" ry="3" style="stroke: #038048; stroke-width: 1.0;"/><text fill="#000000" font-family="sans-serif" font-size="11" lengthAdjust="spacingAndGlyphs" textLength="230" x="26" y="208.6245">«override» LoadInstance() : GameObject</text><!--MD5=[991e412d88df16baad981f5d4c802308]
class Preset--><rect fill="#FEFECE" filter="url(#f15t271h55op09)" height="48" id="Preset" style="stroke: #A80036; stroke-width: 1.5;" width="73" x="222.5" y="8"/><ellipse cx="237.5" cy="24" fill="#ADD1B2" rx="11" ry="11" style="stroke: #A80036; stroke-width: 1.0;"/><path d="M240.4688,29.6406 Q239.8906,29.9375 239.25,30.0781 Q238.6094,30.2344 237.9063,30.2344 Q235.4063,30.2344 234.0781,28.5938 Q232.7656,26.9375 232.7656,23.8125 Q232.7656,20.6875 234.0781,19.0313 Q235.4063,17.375 237.9063,17.375 Q238.6094,17.375 239.25,17.5313 Q239.9063,17.6875 240.4688,17.9844 L240.4688,20.7031 Q239.8438,20.125 239.25,19.8594 Q238.6563,19.5781 238.0313,19.5781 Q236.6875,19.5781 236,20.6563 Q235.3125,21.7188 235.3125,23.8125 Q235.3125,25.9063 236,26.9844 Q236.6875,28.0469 238.0313,28.0469 Q238.6563,28.0469 239.25,27.7813 Q239.8438,27.5 240.4688,26.9219 L240.4688,29.6406 Z "/><text fill="#000000" font-family="sans-serif" font-size="12" lengthAdjust="spacingAndGlyphs" textLength="41" x="251.5" y="28.1543">Preset</text><line style="stroke: #A80036; stroke-width: 1.5;" x1="223.5" x2="294.5" y1="40" y2="40"/><line style="stroke: #A80036; stroke-width: 1.5;" x1="223.5" x2="294.5" y1="48" y2="48"/><!--MD5=[fc355cf50f083ae2f8888a6e7d680f3e]
reverse link Preset to UserPreset--><path d="M259,76.51 C259,89.14 259,103.01 259,115.93 " fill="none" id="Preset&lt;-UserPreset" style="stroke: #A80036; stroke-width: 1.0;"/><polygon fill="none" points="252,76.21,259,56.21,266,76.21,252,76.21" style="stroke: #A80036; stroke-width: 1.0;"/><!--MD5=[d2311244a252fe46be93b76a465b1338]
@startuml
class UserPreset {
    + objFileName : string
    + UserPreset(_name:string, _category:Category, _objFileName:string)
    + UserPreset(_name:string, _category:Category, _objFileName:string, _xzSize:Vector2)
    + <<override>> LoadInstance() : GameObject
}
Preset <|- - UserPreset
@enduml

PlantUML version 1.2020.02(Sun Mar 01 10:22:07 GMT 2020)
(GPL source distribution)
Java Runtime: OpenJDK Runtime Environment
JVM: OpenJDK 64-Bit Server VM
Java Version: 11.0.9+11-Ubuntu-0ubuntu1
Operating System: Linux
Default Encoding: ANSI_X3.4-1968
Language: en
Country: US
--></g></svg>