<?xml version="1.0" encoding="UTF-8" standalone="no"?><svg xmlns="http://www.w3.org/2000/svg" xmlns:xlink="http://www.w3.org/1999/xlink" contentScriptType="application/ecmascript" contentStyleType="text/css" height="360px" preserveAspectRatio="none" style="width:488px;height:360px;" version="1.1" viewBox="0 0 488 360" width="488px" zoomAndPan="magnify"><defs><filter height="300%" id="f1oio7ra01ar22" width="300%" x="-1" y="-1"><feGaussianBlur result="blurOut" stdDeviation="2.0"/><feColorMatrix in="blurOut" result="blurOut2" type="matrix" values="0 0 0 0 0 0 0 0 0 0 0 0 0 0 0 0 0 0 .4 0"/><feOffset dx="4.0" dy="4.0" in="blurOut2" result="blurOut3"/><feBlend in="SourceGraphic" in2="blurOut3" mode="normal"/></filter></defs><g><!--MD5=[a8dc8aefce085dae70bec15e302cfec9]
class Builder--><rect fill="#FEFECE" filter="url(#f1oio7ra01ar22)" height="124.8281" id="Builder" style="stroke: #A80036; stroke-width: 1.5;" width="332" x="6" y="116"/><ellipse cx="146.25" cy="132" fill="#ADD1B2" rx="11" ry="11" style="stroke: #A80036; stroke-width: 1.0;"/><path d="M149.2188,137.6406 Q148.6406,137.9375 148,138.0781 Q147.3594,138.2344 146.6563,138.2344 Q144.1563,138.2344 142.8281,136.5938 Q141.5156,134.9375 141.5156,131.8125 Q141.5156,128.6875 142.8281,127.0313 Q144.1563,125.375 146.6563,125.375 Q147.3594,125.375 148,125.5313 Q148.6563,125.6875 149.2188,125.9844 L149.2188,128.7031 Q148.5938,128.125 148,127.8594 Q147.4063,127.5781 146.7813,127.5781 Q145.4375,127.5781 144.75,128.6563 Q144.0625,129.7188 144.0625,131.8125 Q144.0625,133.9063 144.75,134.9844 Q145.4375,136.0469 146.7813,136.0469 Q147.4063,136.0469 148,135.7813 Q148.5938,135.5 149.2188,134.9219 L149.2188,137.6406 Z "/><text fill="#000000" font-family="sans-serif" font-size="12" lengthAdjust="spacingAndGlyphs" textLength="43" x="166.75" y="136.1543">Builder</text><line style="stroke: #A80036; stroke-width: 1.5;" x1="7" x2="337" y1="148" y2="148"/><ellipse cx="17" cy="159" fill="none" rx="3" ry="3" style="stroke: #038048; stroke-width: 1.0;"/><text fill="#000000" font-family="sans-serif" font-size="11" lengthAdjust="spacingAndGlyphs" textLength="115" x="26" y="162.2104">isGridEnabled : bool</text><line style="stroke: #A80036; stroke-width: 1.5;" x1="7" x2="337" y1="168.8047" y2="168.8047"/><ellipse cx="17" cy="179.8047" fill="#84BE84" rx="3" ry="3" style="stroke: #038048; stroke-width: 1.0;"/><text fill="#000000" font-family="sans-serif" font-size="11" lengthAdjust="spacingAndGlyphs" textLength="87" x="26" y="183.0151">OnStart() : void</text><ellipse cx="17" cy="192.6094" fill="#84BE84" rx="3" ry="3" style="stroke: #038048; stroke-width: 1.0;"/><text fill="#000000" font-family="sans-serif" font-size="11" lengthAdjust="spacingAndGlyphs" textLength="306" x="26" y="195.8198">Reconstruct(_gameObjects:List&lt;PlacedObject&gt;) : void</text><ellipse cx="17" cy="205.4141" fill="#84BE84" rx="3" ry="3" style="stroke: #038048; stroke-width: 1.0;"/><text fill="#000000" font-family="sans-serif" font-size="11" lengthAdjust="spacingAndGlyphs" textLength="226" x="26" y="208.6245">SetCurrentPreset(_preset:Preset) : void</text><ellipse cx="17" cy="218.2188" fill="#84BE84" rx="3" ry="3" style="stroke: #038048; stroke-width: 1.0;"/><text fill="#000000" font-family="sans-serif" font-size="11" lengthAdjust="spacingAndGlyphs" textLength="244" x="26" y="221.4292">GetPlacedObjectList() : List&lt;PlacedObject&gt;</text><ellipse cx="17" cy="231.0234" fill="#84BE84" rx="3" ry="3" style="stroke: #038048; stroke-width: 1.0;"/><text fill="#000000" font-family="sans-serif" font-size="11" lengthAdjust="spacingAndGlyphs" textLength="203" x="26" y="234.2339">SwitchState(_stateType:Type) : void</text><!--MD5=[83b3cf3d23d77c6f1e1b5291a241bc2a]
class MonoBehaviour--><rect fill="#FEFECE" filter="url(#f1oio7ra01ar22)" height="48" id="MonoBehaviour" style="stroke: #A80036; stroke-width: 1.5;" width="128" x="34" y="8"/><ellipse cx="49" cy="24" fill="#ADD1B2" rx="11" ry="11" style="stroke: #A80036; stroke-width: 1.0;"/><path d="M51.9688,29.6406 Q51.3906,29.9375 50.75,30.0781 Q50.1094,30.2344 49.4063,30.2344 Q46.9063,30.2344 45.5781,28.5938 Q44.2656,26.9375 44.2656,23.8125 Q44.2656,20.6875 45.5781,19.0313 Q46.9063,17.375 49.4063,17.375 Q50.1094,17.375 50.75,17.5313 Q51.4063,17.6875 51.9688,17.9844 L51.9688,20.7031 Q51.3438,20.125 50.75,19.8594 Q50.1563,19.5781 49.5313,19.5781 Q48.1875,19.5781 47.5,20.6563 Q46.8125,21.7188 46.8125,23.8125 Q46.8125,25.9063 47.5,26.9844 Q48.1875,28.0469 49.5313,28.0469 Q50.1563,28.0469 50.75,27.7813 Q51.3438,27.5 51.9688,26.9219 L51.9688,29.6406 Z "/><text fill="#000000" font-family="sans-serif" font-size="12" lengthAdjust="spacingAndGlyphs" textLength="96" x="63" y="28.1543">MonoBehaviour</text><line style="stroke: #A80036; stroke-width: 1.5;" x1="35" x2="161" y1="40" y2="40"/><line style="stroke: #A80036; stroke-width: 1.5;" x1="35" x2="161" y1="48" y2="48"/><!--MD5=[022420edfd15304498dad6edb0046305]
class IFSMOwner--><rect fill="#FEFECE" filter="url(#f1oio7ra01ar22)" height="48" id="IFSMOwner" style="stroke: #A80036; stroke-width: 1.5;" width="99" x="197.5" y="8"/><ellipse cx="212.5" cy="24" fill="#ADD1B2" rx="11" ry="11" style="stroke: #A80036; stroke-width: 1.0;"/><path d="M215.4688,29.6406 Q214.8906,29.9375 214.25,30.0781 Q213.6094,30.2344 212.9063,30.2344 Q210.4063,30.2344 209.0781,28.5938 Q207.7656,26.9375 207.7656,23.8125 Q207.7656,20.6875 209.0781,19.0313 Q210.4063,17.375 212.9063,17.375 Q213.6094,17.375 214.25,17.5313 Q214.9063,17.6875 215.4688,17.9844 L215.4688,20.7031 Q214.8438,20.125 214.25,19.8594 Q213.6563,19.5781 213.0313,19.5781 Q211.6875,19.5781 211,20.6563 Q210.3125,21.7188 210.3125,23.8125 Q210.3125,25.9063 211,26.9844 Q211.6875,28.0469 213.0313,28.0469 Q213.6563,28.0469 214.25,27.7813 Q214.8438,27.5 215.4688,26.9219 L215.4688,29.6406 Z "/><text fill="#000000" font-family="sans-serif" font-size="12" lengthAdjust="spacingAndGlyphs" textLength="67" x="226.5" y="28.1543">IFSMOwner</text><line style="stroke: #A80036; stroke-width: 1.5;" x1="198.5" x2="295.5" y1="40" y2="40"/><line style="stroke: #A80036; stroke-width: 1.5;" x1="198.5" x2="295.5" y1="48" y2="48"/><!--MD5=[765ccc346b64740462227fe7a304c529]
class ScratchPad--><rect fill="#FEFECE" filter="url(#f1oio7ra01ar22)" height="48" id="ScratchPad" style="stroke: #A80036; stroke-width: 1.5;" width="104" x="373" y="154.5"/><ellipse cx="388" cy="170.5" fill="#ADD1B2" rx="11" ry="11" style="stroke: #A80036; stroke-width: 1.0;"/><path d="M390.9688,176.1406 Q390.3906,176.4375 389.75,176.5781 Q389.1094,176.7344 388.4063,176.7344 Q385.9063,176.7344 384.5781,175.0938 Q383.2656,173.4375 383.2656,170.3125 Q383.2656,167.1875 384.5781,165.5313 Q385.9063,163.875 388.4063,163.875 Q389.1094,163.875 389.75,164.0313 Q390.4063,164.1875 390.9688,164.4844 L390.9688,167.2031 Q390.3438,166.625 389.75,166.3594 Q389.1563,166.0781 388.5313,166.0781 Q387.1875,166.0781 386.5,167.1563 Q385.8125,168.2188 385.8125,170.3125 Q385.8125,172.4063 386.5,173.4844 Q387.1875,174.5469 388.5313,174.5469 Q389.1563,174.5469 389.75,174.2813 Q390.3438,174 390.9688,173.4219 L390.9688,176.1406 Z "/><text fill="#000000" font-family="sans-serif" font-size="12" lengthAdjust="spacingAndGlyphs" textLength="72" x="402" y="174.6543">ScratchPad</text><line style="stroke: #A80036; stroke-width: 1.5;" x1="374" x2="476" y1="186.5" y2="186.5"/><line style="stroke: #A80036; stroke-width: 1.5;" x1="374" x2="476" y1="194.5" y2="194.5"/><!--MD5=[64c2712a0477811515412555727a7ab7]
class PresetLibrary--><rect fill="#FEFECE" filter="url(#f1oio7ra01ar22)" height="48" id="PresetLibrary" style="stroke: #A80036; stroke-width: 1.5;" width="114" x="49" y="301"/><ellipse cx="64" cy="317" fill="#ADD1B2" rx="11" ry="11" style="stroke: #A80036; stroke-width: 1.0;"/><path d="M66.9688,322.6406 Q66.3906,322.9375 65.75,323.0781 Q65.1094,323.2344 64.4063,323.2344 Q61.9063,323.2344 60.5781,321.5938 Q59.2656,319.9375 59.2656,316.8125 Q59.2656,313.6875 60.5781,312.0313 Q61.9063,310.375 64.4063,310.375 Q65.1094,310.375 65.75,310.5313 Q66.4063,310.6875 66.9688,310.9844 L66.9688,313.7031 Q66.3438,313.125 65.75,312.8594 Q65.1563,312.5781 64.5313,312.5781 Q63.1875,312.5781 62.5,313.6563 Q61.8125,314.7188 61.8125,316.8125 Q61.8125,318.9063 62.5,319.9844 Q63.1875,321.0469 64.5313,321.0469 Q65.1563,321.0469 65.75,320.7813 Q66.3438,320.5 66.9688,319.9219 L66.9688,322.6406 Z "/><text fill="#000000" font-family="sans-serif" font-size="12" lengthAdjust="spacingAndGlyphs" textLength="82" x="78" y="321.1543">PresetLibrary</text><line style="stroke: #A80036; stroke-width: 1.5;" x1="50" x2="162" y1="333" y2="333"/><line style="stroke: #A80036; stroke-width: 1.5;" x1="50" x2="162" y1="341" y2="341"/><!--MD5=[65d619c042c23702cef2ca07d67b1cf6]
class Vector3--><rect fill="#FEFECE" filter="url(#f1oio7ra01ar22)" height="48" id="Vector3" style="stroke: #A80036; stroke-width: 1.5;" width="81" x="198.5" y="301"/><ellipse cx="213.5" cy="317" fill="#ADD1B2" rx="11" ry="11" style="stroke: #A80036; stroke-width: 1.0;"/><path d="M216.4688,322.6406 Q215.8906,322.9375 215.25,323.0781 Q214.6094,323.2344 213.9063,323.2344 Q211.4063,323.2344 210.0781,321.5938 Q208.7656,319.9375 208.7656,316.8125 Q208.7656,313.6875 210.0781,312.0313 Q211.4063,310.375 213.9063,310.375 Q214.6094,310.375 215.25,310.5313 Q215.9063,310.6875 216.4688,310.9844 L216.4688,313.7031 Q215.8438,313.125 215.25,312.8594 Q214.6563,312.5781 214.0313,312.5781 Q212.6875,312.5781 212,313.6563 Q211.3125,314.7188 211.3125,316.8125 Q211.3125,318.9063 212,319.9844 Q212.6875,321.0469 214.0313,321.0469 Q214.6563,321.0469 215.25,320.7813 Q215.8438,320.5 216.4688,319.9219 L216.4688,322.6406 Z "/><text fill="#000000" font-family="sans-serif" font-size="12" lengthAdjust="spacingAndGlyphs" textLength="49" x="227.5" y="321.1543">Vector3</text><line style="stroke: #A80036; stroke-width: 1.5;" x1="199.5" x2="278.5" y1="333" y2="333"/><line style="stroke: #A80036; stroke-width: 1.5;" x1="199.5" x2="278.5" y1="341" y2="341"/><!--MD5=[f3233b78205f2e777967752655975dc1]
reverse link MonoBehaviour to Builder--><path d="M119.18,74.36 C125.82,87.33 133.3,101.94 140.5,115.99 " fill="none" id="MonoBehaviour&lt;-Builder" style="stroke: #A80036; stroke-width: 1.0;"/><polygon fill="none" points="112.78,77.21,109.89,56.22,125.24,70.83,112.78,77.21" style="stroke: #A80036; stroke-width: 1.0;"/><!--MD5=[d81361ec641860d61c2f553d2ba4a130]
reverse link IFSMOwner to Builder--><path d="M225.53,74.36 C218.8,87.33 211.22,101.94 203.92,115.99 " fill="none" id="IFSMOwner&lt;-Builder" style="stroke: #A80036; stroke-width: 1.0;"/><polygon fill="none" points="219.52,70.74,234.95,56.22,231.95,77.19,219.52,70.74" style="stroke: #A80036; stroke-width: 1.0;"/><!--MD5=[9ecea1915b420994eb41dd2cf6ff44ca]
link Builder to ScratchPad--><path d="M350.03,178.5 C350.03,178.5 356.87,178.5 359.65,178.5 " fill="none" id="Builder-ScratchPad" style="stroke: #A80036; stroke-width: 1.0;"/><polygon fill="#A80036" points="372.68,178.5,363.68,174.5,367.68,178.5,363.68,182.5,372.68,178.5" style="stroke: #A80036; stroke-width: 1.0;"/><line style="stroke: #A80036; stroke-width: 1.0;" x1="367.68" x2="359.68" y1="178.5" y2="178.5"/><polygon fill="#FFFFFF" points="338.03,178.5,344.03,182.5,350.03,178.5,344.03,174.5,338.03,178.5" style="stroke: #A80036; stroke-width: 1.0;"/><text fill="#000000" font-family="sans-serif" font-size="13" lengthAdjust="spacingAndGlyphs" textLength="75" x="290.1153" y="160.6992">sharedData</text><!--MD5=[4b4f7266145026400ceca0b4306c3b59]
link Builder to PresetLibrary--><path d="M143.82,241.2 C135.06,260.39 125.83,280.59 118.68,296.23 " fill="none" id="Builder-&gt;PresetLibrary" style="stroke: #A80036; stroke-width: 1.0;"/><polygon fill="#A80036" points="116.53,300.94,123.9204,294.4298,118.6162,296.396,116.65,291.0919,116.53,300.94" style="stroke: #A80036; stroke-width: 1.0;"/><text fill="#000000" font-family="sans-serif" font-size="13" lengthAdjust="spacingAndGlyphs" textLength="39" x="75.2314" y="289.9367">library</text><!--MD5=[c84fe774760819aae5a2f0b5adf9839d]
link Builder to Vector3--><path d="M200.61,241.2 C209.5,260.39 218.87,280.59 226.13,296.23 " fill="none" id="Builder-&gt;Vector3" style="stroke: #A80036; stroke-width: 1.0;"/><polygon fill="#A80036" points="228.31,300.94,228.1271,291.0928,226.1948,296.4094,220.8782,294.4772,228.31,300.94" style="stroke: #A80036; stroke-width: 1.0;"/><text fill="#000000" font-family="sans-serif" font-size="13" lengthAdjust="spacingAndGlyphs" textLength="85" x="163.7102" y="289.8748">mouseHitPos</text><!--MD5=[130f5a0e1f6f40f992757fe32cba127b]
@startuml
class Builder {
    + isGridEnabled : bool
    + OnStart() : void
    + Reconstruct(_gameObjects:List<PlacedObject>) : void
    + SetCurrentPreset(_preset:Preset) : void
    + GetPlacedObjectList() : List<PlacedObject>
    + SwitchState(_stateType:Type) : void
}
MonoBehaviour <|- - Builder
IFSMOwner <|- - Builder
Builder o-> "sharedData" ScratchPad
Builder - -> "library" PresetLibrary
Builder - -> "mouseHitPos" Vector3
@enduml

PlantUML version 1.2020.02(Sun Mar 01 10:22:07 GMT 2020)
(GPL source distribution)
Java Runtime: OpenJDK Runtime Environment
JVM: OpenJDK 64-Bit Server VM
Java Version: 11.0.9+11-Ubuntu-0ubuntu1
Operating System: Linux
Default Encoding: ANSI_X3.4-1968
Language: en
Country: US
--></g></svg>