<?xml version="1.0" encoding="UTF-8" standalone="no"?><svg xmlns="http://www.w3.org/2000/svg" xmlns:xlink="http://www.w3.org/1999/xlink" contentScriptType="application/ecmascript" contentStyleType="text/css" height="188px" preserveAspectRatio="none" style="width:483px;height:188px;" version="1.1" viewBox="0 0 483 188" width="483px" zoomAndPan="magnify"><defs><filter height="300%" id="f1p1gysgpx9nym" width="300%" x="-1" y="-1"><feGaussianBlur result="blurOut" stdDeviation="2.0"/><feColorMatrix in="blurOut" result="blurOut2" type="matrix" values="0 0 0 0 0 0 0 0 0 0 0 0 0 0 0 0 0 0 .4 0"/><feOffset dx="4.0" dy="4.0" in="blurOut2" result="blurOut3"/><feBlend in="SourceGraphic" in2="blurOut3" mode="normal"/></filter></defs><g><!--MD5=[76f271c26af5bf1a66e3d781bce136ac]
class PlacedObject--><rect fill="#FEFECE" filter="url(#f1p1gysgpx9nym)" height="60.8047" id="PlacedObject" style="stroke: #A80036; stroke-width: 1.5;" width="466" x="6" y="8"/><ellipse cx="193.75" cy="24" fill="#ADD1B2" rx="11" ry="11" style="stroke: #A80036; stroke-width: 1.0;"/><path d="M196.7188,29.6406 Q196.1406,29.9375 195.5,30.0781 Q194.8594,30.2344 194.1563,30.2344 Q191.6563,30.2344 190.3281,28.5938 Q189.0156,26.9375 189.0156,23.8125 Q189.0156,20.6875 190.3281,19.0313 Q191.6563,17.375 194.1563,17.375 Q194.8594,17.375 195.5,17.5313 Q196.1563,17.6875 196.7188,17.9844 L196.7188,20.7031 Q196.0938,20.125 195.5,19.8594 Q194.9063,19.5781 194.2813,19.5781 Q192.9375,19.5781 192.25,20.6563 Q191.5625,21.7188 191.5625,23.8125 Q191.5625,25.9063 192.25,26.9844 Q192.9375,28.0469 194.2813,28.0469 Q194.9063,28.0469 195.5,27.7813 Q196.0938,27.5 196.7188,26.9219 L196.7188,29.6406 Z "/><text fill="#000000" font-family="sans-serif" font-size="12" lengthAdjust="spacingAndGlyphs" textLength="82" x="214.25" y="28.1543">PlacedObject</text><line style="stroke: #A80036; stroke-width: 1.5;" x1="7" x2="471" y1="40" y2="40"/><line style="stroke: #A80036; stroke-width: 1.5;" x1="7" x2="471" y1="48" y2="48"/><ellipse cx="17" cy="59" fill="#84BE84" rx="3" ry="3" style="stroke: #038048; stroke-width: 1.0;"/><text fill="#000000" font-family="sans-serif" font-size="11" lengthAdjust="spacingAndGlyphs" textLength="440" x="26" y="62.2104">PlacedObject(_preset:Preset, _buildingPosition:Vector3, _rotation:Quaternion)</text><!--MD5=[991e412d88df16baad981f5d4c802308]
class Preset--><rect fill="#FEFECE" filter="url(#f1p1gysgpx9nym)" height="48" id="Preset" style="stroke: #A80036; stroke-width: 1.5;" width="73" x="90.5" y="129"/><ellipse cx="105.5" cy="145" fill="#ADD1B2" rx="11" ry="11" style="stroke: #A80036; stroke-width: 1.0;"/><path d="M108.4688,150.6406 Q107.8906,150.9375 107.25,151.0781 Q106.6094,151.2344 105.9063,151.2344 Q103.4063,151.2344 102.0781,149.5938 Q100.7656,147.9375 100.7656,144.8125 Q100.7656,141.6875 102.0781,140.0313 Q103.4063,138.375 105.9063,138.375 Q106.6094,138.375 107.25,138.5313 Q107.9063,138.6875 108.4688,138.9844 L108.4688,141.7031 Q107.8438,141.125 107.25,140.8594 Q106.6563,140.5781 106.0313,140.5781 Q104.6875,140.5781 104,141.6563 Q103.3125,142.7188 103.3125,144.8125 Q103.3125,146.9063 104,147.9844 Q104.6875,149.0469 106.0313,149.0469 Q106.6563,149.0469 107.25,148.7813 Q107.8438,148.5 108.4688,147.9219 L108.4688,150.6406 Z "/><text fill="#000000" font-family="sans-serif" font-size="12" lengthAdjust="spacingAndGlyphs" textLength="41" x="119.5" y="149.1543">Preset</text><line style="stroke: #A80036; stroke-width: 1.5;" x1="91.5" x2="162.5" y1="161" y2="161"/><line style="stroke: #A80036; stroke-width: 1.5;" x1="91.5" x2="162.5" y1="169" y2="169"/><!--MD5=[65d619c042c23702cef2ca07d67b1cf6]
class Vector3--><rect fill="#FEFECE" filter="url(#f1p1gysgpx9nym)" height="48" id="Vector3" style="stroke: #A80036; stroke-width: 1.5;" width="81" x="198.5" y="129"/><ellipse cx="213.5" cy="145" fill="#ADD1B2" rx="11" ry="11" style="stroke: #A80036; stroke-width: 1.0;"/><path d="M216.4688,150.6406 Q215.8906,150.9375 215.25,151.0781 Q214.6094,151.2344 213.9063,151.2344 Q211.4063,151.2344 210.0781,149.5938 Q208.7656,147.9375 208.7656,144.8125 Q208.7656,141.6875 210.0781,140.0313 Q211.4063,138.375 213.9063,138.375 Q214.6094,138.375 215.25,138.5313 Q215.9063,138.6875 216.4688,138.9844 L216.4688,141.7031 Q215.8438,141.125 215.25,140.8594 Q214.6563,140.5781 214.0313,140.5781 Q212.6875,140.5781 212,141.6563 Q211.3125,142.7188 211.3125,144.8125 Q211.3125,146.9063 212,147.9844 Q212.6875,149.0469 214.0313,149.0469 Q214.6563,149.0469 215.25,148.7813 Q215.8438,148.5 216.4688,147.9219 L216.4688,150.6406 Z "/><text fill="#000000" font-family="sans-serif" font-size="12" lengthAdjust="spacingAndGlyphs" textLength="49" x="227.5" y="149.1543">Vector3</text><line style="stroke: #A80036; stroke-width: 1.5;" x1="199.5" x2="278.5" y1="161" y2="161"/><line style="stroke: #A80036; stroke-width: 1.5;" x1="199.5" x2="278.5" y1="169" y2="169"/><!--MD5=[4c7b140fed10e9877852f4b8dc88c33d]
class Quaternion--><rect fill="#FEFECE" filter="url(#f1p1gysgpx9nym)" height="48" id="Quaternion" style="stroke: #A80036; stroke-width: 1.5;" width="102" x="315" y="129"/><ellipse cx="330" cy="145" fill="#ADD1B2" rx="11" ry="11" style="stroke: #A80036; stroke-width: 1.0;"/><path d="M332.9688,150.6406 Q332.3906,150.9375 331.75,151.0781 Q331.1094,151.2344 330.4063,151.2344 Q327.9063,151.2344 326.5781,149.5938 Q325.2656,147.9375 325.2656,144.8125 Q325.2656,141.6875 326.5781,140.0313 Q327.9063,138.375 330.4063,138.375 Q331.1094,138.375 331.75,138.5313 Q332.4063,138.6875 332.9688,138.9844 L332.9688,141.7031 Q332.3438,141.125 331.75,140.8594 Q331.1563,140.5781 330.5313,140.5781 Q329.1875,140.5781 328.5,141.6563 Q327.8125,142.7188 327.8125,144.8125 Q327.8125,146.9063 328.5,147.9844 Q329.1875,149.0469 330.5313,149.0469 Q331.1563,149.0469 331.75,148.7813 Q332.3438,148.5 332.9688,147.9219 L332.9688,150.6406 Z "/><text fill="#000000" font-family="sans-serif" font-size="12" lengthAdjust="spacingAndGlyphs" textLength="70" x="344" y="149.1543">Quaternion</text><line style="stroke: #A80036; stroke-width: 1.5;" x1="316" x2="416" y1="161" y2="161"/><line style="stroke: #A80036; stroke-width: 1.5;" x1="316" x2="416" y1="169" y2="169"/><!--MD5=[75fdcc41b661f9b60d6a6c9531ae38bc]
link PlacedObject to Preset--><path d="M209.57,69.06 C192.34,86.37 170.74,108.07 153.95,124.93 " fill="none" id="PlacedObject-&gt;Preset" style="stroke: #A80036; stroke-width: 1.0;"/><polygon fill="#A80036" points="150.23,128.67,159.4152,125.1159,153.7584,125.1273,153.747,119.4705,150.23,128.67" style="stroke: #A80036; stroke-width: 1.0;"/><text fill="#000000" font-family="sans-serif" font-size="13" lengthAdjust="spacingAndGlyphs" textLength="41" x="109.8954" y="117.9945">preset</text><!--MD5=[4d7b56d4571badbc2e2a80d71611ce10]
link PlacedObject to Vector3--><path d="M239,69.06 C239,85.93 239,106.98 239,123.65 " fill="none" id="PlacedObject-&gt;Vector3" style="stroke: #A80036; stroke-width: 1.0;"/><polygon fill="#A80036" points="239,128.67,243,119.67,239,123.67,235,119.67,239,128.67" style="stroke: #A80036; stroke-width: 1.0;"/><text fill="#000000" font-family="sans-serif" font-size="13" lengthAdjust="spacingAndGlyphs" textLength="72" x="165.7639" y="117.9156">buildingPos</text><!--MD5=[3d7c99a166c4977280b4b9d4327fd533]
link PlacedObject to Quaternion--><path d="M272.37,69.06 C291.91,86.37 316.41,108.07 335.44,124.93 " fill="none" id="PlacedObject-&gt;Quaternion" style="stroke: #A80036; stroke-width: 1.0;"/><polygon fill="#A80036" points="339.66,128.67,335.5738,119.7088,335.9167,125.3553,330.2702,125.6982,339.66,128.67" style="stroke: #A80036; stroke-width: 1.0;"/><text fill="#000000" font-family="sans-serif" font-size="13" lengthAdjust="spacingAndGlyphs" textLength="50" x="277.1459" y="117.9945">rotation</text><!--MD5=[39f36095f13270baae12851dd6ab6df0]
@startuml
class PlacedObject {
    + PlacedObject(_preset:Preset, _buildingPosition:Vector3, _rotation:Quaternion)
}
PlacedObject - -> "preset" Preset
PlacedObject - -> "buildingPos" Vector3
PlacedObject - -> "rotation" Quaternion
@enduml

PlantUML version 1.2020.02(Sun Mar 01 10:22:07 GMT 2020)
(GPL source distribution)
Java Runtime: OpenJDK Runtime Environment
JVM: OpenJDK 64-Bit Server VM
Java Version: 11.0.9+11-Ubuntu-0ubuntu1
Operating System: Linux
Default Encoding: ANSI_X3.4-1968
Language: en
Country: US
--></g></svg>