<?xml version="1.0" encoding="UTF-8" standalone="no"?><svg xmlns="http://www.w3.org/2000/svg" xmlns:xlink="http://www.w3.org/1999/xlink" contentScriptType="application/ecmascript" contentStyleType="text/css" height="207px" preserveAspectRatio="none" style="width:1131px;height:207px;" version="1.1" viewBox="0 0 1131 207" width="1131px" zoomAndPan="magnify"><defs><filter height="300%" id="fmlwtbauu3w3a" width="300%" x="-1" y="-1"><feGaussianBlur result="blurOut" stdDeviation="2.0"/><feColorMatrix in="blurOut" result="blurOut2" type="matrix" values="0 0 0 0 0 0 0 0 0 0 0 0 0 0 0 0 0 0 .4 0"/><feOffset dx="4.0" dy="4.0" in="blurOut2" result="blurOut3"/><feBlend in="SourceGraphic" in2="blurOut3" mode="normal"/></filter></defs><g><!--MD5=[01e5e254e7a0d41d89df0d7112719e1c]
class ExtensionFilter--><rect fill="#FEFECE" filter="url(#fmlwtbauu3w3a)" height="79.5469" id="ExtensionFilter" style="stroke: #A80036; stroke-width: 1.5;" width="354" x="6" y="62.5"/><ellipse cx="132.75" cy="81.4688" fill="#ADD1B2" rx="11" ry="11" style="stroke: #A80036; stroke-width: 1.0;"/><path d="M135.7188,87.1094 Q135.1406,87.4063 134.5,87.5469 Q133.8594,87.7031 133.1563,87.7031 Q130.6563,87.7031 129.3281,86.0625 Q128.0156,84.4063 128.0156,81.2813 Q128.0156,78.1563 129.3281,76.5 Q130.6563,74.8438 133.1563,74.8438 Q133.8594,74.8438 134.5,75 Q135.1563,75.1563 135.7188,75.4531 L135.7188,78.1719 Q135.0938,77.5938 134.5,77.3281 Q133.9063,77.0469 133.2813,77.0469 Q131.9375,77.0469 131.25,78.125 Q130.5625,79.1875 130.5625,81.2813 Q130.5625,83.375 131.25,84.4531 Q131.9375,85.5156 133.2813,85.5156 Q133.9063,85.5156 134.5,85.25 Q135.0938,84.9688 135.7188,84.3906 L135.7188,87.1094 Z "/><text fill="#000000" font-family="sans-serif" font-size="12" font-style="italic" lengthAdjust="spacingAndGlyphs" textLength="50" x="174.25" y="78.6387">«struct»</text><text fill="#000000" font-family="sans-serif" font-size="12" lengthAdjust="spacingAndGlyphs" textLength="92" x="153.25" y="92.6074">ExtensionFilter</text><line style="stroke: #A80036; stroke-width: 1.5;" x1="7" x2="359" y1="100.4375" y2="100.4375"/><ellipse cx="17" cy="111.4375" fill="none" rx="3" ry="3" style="stroke: #038048; stroke-width: 1.0;"/><text fill="#000000" font-family="sans-serif" font-size="11" lengthAdjust="spacingAndGlyphs" textLength="78" x="26" y="114.6479">Name : string</text><line style="stroke: #A80036; stroke-width: 1.5;" x1="7" x2="359" y1="121.2422" y2="121.2422"/><ellipse cx="17" cy="132.2422" fill="#84BE84" rx="3" ry="3" style="stroke: #038048; stroke-width: 1.0;"/><text fill="#000000" font-family="sans-serif" font-size="11" lengthAdjust="spacingAndGlyphs" textLength="328" x="26" y="135.4526">ExtensionFilter(filterName:string, filterExtensions:string[])</text><!--MD5=[0eaa4a8cee10e7aedc3a0f728ff1bd88]
class StandaloneFileBrowser--><rect fill="#FEFECE" filter="url(#fmlwtbauu3w3a)" height="188.8516" id="StandaloneFileBrowser" style="stroke: #A80036; stroke-width: 1.5;" width="725" x="395.5" y="8"/><ellipse cx="682.25" cy="24" fill="#ADD1B2" rx="11" ry="11" style="stroke: #A80036; stroke-width: 1.0;"/><path d="M685.2188,29.6406 Q684.6406,29.9375 684,30.0781 Q683.3594,30.2344 682.6563,30.2344 Q680.1563,30.2344 678.8281,28.5938 Q677.5156,26.9375 677.5156,23.8125 Q677.5156,20.6875 678.8281,19.0313 Q680.1563,17.375 682.6563,17.375 Q683.3594,17.375 684,17.5313 Q684.6563,17.6875 685.2188,17.9844 L685.2188,20.7031 Q684.5938,20.125 684,19.8594 Q683.4063,19.5781 682.7813,19.5781 Q681.4375,19.5781 680.75,20.6563 Q680.0625,21.7188 680.0625,23.8125 Q680.0625,25.9063 680.75,26.9844 Q681.4375,28.0469 682.7813,28.0469 Q683.4063,28.0469 684,27.7813 Q684.5938,27.5 685.2188,26.9219 L685.2188,29.6406 Z "/><text fill="#000000" font-family="sans-serif" font-size="12" lengthAdjust="spacingAndGlyphs" textLength="143" x="702.75" y="28.1543">StandaloneFileBrowser</text><line style="stroke: #A80036; stroke-width: 1.5;" x1="396.5" x2="1119.5" y1="40" y2="40"/><line style="stroke: #A80036; stroke-width: 1.5;" x1="396.5" x2="1119.5" y1="48" y2="48"/><text fill="#000000" font-family="sans-serif" font-size="11" lengthAdjust="spacingAndGlyphs" text-decoration="underline" textLength="139" x="415.5" y="62.2104">StandaloneFileBrowser()</text><ellipse cx="406.5" cy="71.8047" fill="#84BE84" rx="3" ry="3" style="stroke: #038048; stroke-width: 1.0;"/><text fill="#000000" font-family="sans-serif" font-size="11" lengthAdjust="spacingAndGlyphs" text-decoration="underline" textLength="492" x="415.5" y="75.0151">OpenFilePanel(title:string, directory:string, extension:string, multiselect:bool) : string[]</text><ellipse cx="406.5" cy="84.6094" fill="#84BE84" rx="3" ry="3" style="stroke: #038048; stroke-width: 1.0;"/><text fill="#000000" font-family="sans-serif" font-size="11" lengthAdjust="spacingAndGlyphs" text-decoration="underline" textLength="557" x="415.5" y="87.8198">OpenFilePanel(title:string, directory:string, extensions:ExtensionFilter[], multiselect:bool) : string[]</text><ellipse cx="406.5" cy="97.4141" fill="#84BE84" rx="3" ry="3" style="stroke: #038048; stroke-width: 1.0;"/><text fill="#000000" font-family="sans-serif" font-size="11" lengthAdjust="spacingAndGlyphs" text-decoration="underline" textLength="625" x="415.5" y="100.6245">OpenFilePanelAsync(title:string, directory:string, extension:string, multiselect:bool, cb:Action&lt;string[]&gt;) : void</text><ellipse cx="406.5" cy="110.2188" fill="#84BE84" rx="3" ry="3" style="stroke: #038048; stroke-width: 1.0;"/><text fill="#000000" font-family="sans-serif" font-size="11" lengthAdjust="spacingAndGlyphs" text-decoration="underline" textLength="690" x="415.5" y="113.4292">OpenFilePanelAsync(title:string, directory:string, extensions:ExtensionFilter[], multiselect:bool, cb:Action&lt;string[]&gt;) : void</text><ellipse cx="406.5" cy="123.0234" fill="#84BE84" rx="3" ry="3" style="stroke: #038048; stroke-width: 1.0;"/><text fill="#000000" font-family="sans-serif" font-size="11" lengthAdjust="spacingAndGlyphs" text-decoration="underline" textLength="408" x="415.5" y="126.2339">OpenFolderPanel(title:string, directory:string, multiselect:bool) : string[]</text><ellipse cx="406.5" cy="135.8281" fill="#84BE84" rx="3" ry="3" style="stroke: #038048; stroke-width: 1.0;"/><text fill="#000000" font-family="sans-serif" font-size="11" lengthAdjust="spacingAndGlyphs" text-decoration="underline" textLength="541" x="415.5" y="139.0386">OpenFolderPanelAsync(title:string, directory:string, multiselect:bool, cb:Action&lt;string[]&gt;) : void</text><ellipse cx="406.5" cy="148.6328" fill="#84BE84" rx="3" ry="3" style="stroke: #038048; stroke-width: 1.0;"/><text fill="#000000" font-family="sans-serif" font-size="11" lengthAdjust="spacingAndGlyphs" text-decoration="underline" textLength="501" x="415.5" y="151.8433">SaveFilePanel(title:string, directory:string, defaultName:string, extension:string) : string</text><ellipse cx="406.5" cy="161.4375" fill="#84BE84" rx="3" ry="3" style="stroke: #038048; stroke-width: 1.0;"/><text fill="#000000" font-family="sans-serif" font-size="11" lengthAdjust="spacingAndGlyphs" text-decoration="underline" textLength="566" x="415.5" y="164.6479">SaveFilePanel(title:string, directory:string, defaultName:string, extensions:ExtensionFilter[]) : string</text><ellipse cx="406.5" cy="174.2422" fill="#84BE84" rx="3" ry="3" style="stroke: #038048; stroke-width: 1.0;"/><text fill="#000000" font-family="sans-serif" font-size="11" lengthAdjust="spacingAndGlyphs" text-decoration="underline" textLength="634" x="415.5" y="177.4526">SaveFilePanelAsync(title:string, directory:string, defaultName:string, extension:string, cb:Action&lt;string&gt;) : void</text><ellipse cx="406.5" cy="187.0469" fill="#84BE84" rx="3" ry="3" style="stroke: #038048; stroke-width: 1.0;"/><text fill="#000000" font-family="sans-serif" font-size="11" lengthAdjust="spacingAndGlyphs" text-decoration="underline" textLength="699" x="415.5" y="190.2573">SaveFilePanelAsync(title:string, directory:string, defaultName:string, extensions:ExtensionFilter[], cb:Action&lt;string&gt;) : void</text><!--MD5=[564f9dd750c405b3cf3bc826378e7f84]
@startuml
class ExtensionFilter <<struct>> {
    + Name : string
    + ExtensionFilter(filterName:string, filterExtensions:string[])
}
class StandaloneFileBrowser {
    {static} StandaloneFileBrowser()
    + {static} OpenFilePanel(title:string, directory:string, extension:string, multiselect:bool) : string[]
    + {static} OpenFilePanel(title:string, directory:string, extensions:ExtensionFilter[], multiselect:bool) : string[]
    + {static} OpenFilePanelAsync(title:string, directory:string, extension:string, multiselect:bool, cb:Action<string[]>) : void
    + {static} OpenFilePanelAsync(title:string, directory:string, extensions:ExtensionFilter[], multiselect:bool, cb:Action<string[]>) : void
    + {static} OpenFolderPanel(title:string, directory:string, multiselect:bool) : string[]
    + {static} OpenFolderPanelAsync(title:string, directory:string, multiselect:bool, cb:Action<string[]>) : void
    + {static} SaveFilePanel(title:string, directory:string, defaultName:string, extension:string) : string
    + {static} SaveFilePanel(title:string, directory:string, defaultName:string, extensions:ExtensionFilter[]) : string
    + {static} SaveFilePanelAsync(title:string, directory:string, defaultName:string, extension:string, cb:Action<string>) : void
    + {static} SaveFilePanelAsync(title:string, directory:string, defaultName:string, extensions:ExtensionFilter[], cb:Action<string>) : void
}
@enduml

PlantUML version 1.2020.02(Sun Mar 01 10:22:07 GMT 2020)
(GPL source distribution)
Java Runtime: OpenJDK Runtime Environment
JVM: OpenJDK 64-Bit Server VM
Java Version: 11.0.9+11-Ubuntu-0ubuntu1
Operating System: Linux
Default Encoding: ANSI_X3.4-1968
Language: en
Country: US
--></g></svg>