<?xml version="1.0" encoding="UTF-8" standalone="no"?><svg xmlns="http://www.w3.org/2000/svg" xmlns:xlink="http://www.w3.org/1999/xlink" contentScriptType="application/ecmascript" contentStyleType="text/css" height="296px" preserveAspectRatio="none" style="width:211px;height:296px;" version="1.1" viewBox="0 0 211 296" width="211px" zoomAndPan="magnify"><defs><filter height="300%" id="fhwg4waczf9vx" width="300%" x="-1" y="-1"><feGaussianBlur result="blurOut" stdDeviation="2.0"/><feColorMatrix in="blurOut" result="blurOut2" type="matrix" values="0 0 0 0 0 0 0 0 0 0 0 0 0 0 0 0 0 0 .4 0"/><feOffset dx="4.0" dy="4.0" in="blurOut2" result="blurOut3"/><feBlend in="SourceGraphic" in2="blurOut3" mode="normal"/></filter></defs><g><!--MD5=[aa4617302d5207a1740f8e35839836af]
class Exporter--><rect fill="#FEFECE" filter="url(#fhwg4waczf9vx)" height="60.8047" id="Exporter" style="stroke: #A80036; stroke-width: 1.5;" width="190" x="10" y="116"/><ellipse cx="74.25" cy="132" fill="#ADD1B2" rx="11" ry="11" style="stroke: #A80036; stroke-width: 1.0;"/><path d="M77.2188,137.6406 Q76.6406,137.9375 76,138.0781 Q75.3594,138.2344 74.6563,138.2344 Q72.1563,138.2344 70.8281,136.5938 Q69.5156,134.9375 69.5156,131.8125 Q69.5156,128.6875 70.8281,127.0313 Q72.1563,125.375 74.6563,125.375 Q75.3594,125.375 76,125.5313 Q76.6563,125.6875 77.2188,125.9844 L77.2188,128.7031 Q76.5938,128.125 76,127.8594 Q75.4063,127.5781 74.7813,127.5781 Q73.4375,127.5781 72.75,128.6563 Q72.0625,129.7188 72.0625,131.8125 Q72.0625,133.9063 72.75,134.9844 Q73.4375,136.0469 74.7813,136.0469 Q75.4063,136.0469 76,135.7813 Q76.5938,135.5 77.2188,134.9219 L77.2188,137.6406 Z "/><text fill="#000000" font-family="sans-serif" font-size="12" lengthAdjust="spacingAndGlyphs" textLength="53" x="94.75" y="136.1543">Exporter</text><line style="stroke: #A80036; stroke-width: 1.5;" x1="11" x2="199" y1="148" y2="148"/><ellipse cx="21" cy="159" fill="none" rx="3" ry="3" style="stroke: #038048; stroke-width: 1.0;"/><text fill="#000000" font-family="sans-serif" font-size="11" lengthAdjust="spacingAndGlyphs" textLength="164" x="30" y="162.2104">fileName : string = "City.fbx"</text><line style="stroke: #A80036; stroke-width: 1.5;" x1="11" x2="199" y1="168.8047" y2="168.8047"/><!--MD5=[83b3cf3d23d77c6f1e1b5291a241bc2a]
class MonoBehaviour--><rect fill="#FEFECE" filter="url(#fhwg4waczf9vx)" height="48" id="MonoBehaviour" style="stroke: #A80036; stroke-width: 1.5;" width="128" x="41" y="8"/><ellipse cx="56" cy="24" fill="#ADD1B2" rx="11" ry="11" style="stroke: #A80036; stroke-width: 1.0;"/><path d="M58.9688,29.6406 Q58.3906,29.9375 57.75,30.0781 Q57.1094,30.2344 56.4063,30.2344 Q53.9063,30.2344 52.5781,28.5938 Q51.2656,26.9375 51.2656,23.8125 Q51.2656,20.6875 52.5781,19.0313 Q53.9063,17.375 56.4063,17.375 Q57.1094,17.375 57.75,17.5313 Q58.4063,17.6875 58.9688,17.9844 L58.9688,20.7031 Q58.3438,20.125 57.75,19.8594 Q57.1563,19.5781 56.5313,19.5781 Q55.1875,19.5781 54.5,20.6563 Q53.8125,21.7188 53.8125,23.8125 Q53.8125,25.9063 54.5,26.9844 Q55.1875,28.0469 56.5313,28.0469 Q57.1563,28.0469 57.75,27.7813 Q58.3438,27.5 58.9688,26.9219 L58.9688,29.6406 Z "/><text fill="#000000" font-family="sans-serif" font-size="12" lengthAdjust="spacingAndGlyphs" textLength="96" x="70" y="28.1543">MonoBehaviour</text><line style="stroke: #A80036; stroke-width: 1.5;" x1="42" x2="168" y1="40" y2="40"/><line style="stroke: #A80036; stroke-width: 1.5;" x1="42" x2="168" y1="48" y2="48"/><!--MD5=[90ba54f54370e77ef24813dec6818fa3]
class Button--><rect fill="#FEFECE" filter="url(#fhwg4waczf9vx)" height="48" id="Button" style="stroke: #A80036; stroke-width: 1.5;" width="74" x="68" y="237"/><ellipse cx="83" cy="253" fill="#ADD1B2" rx="11" ry="11" style="stroke: #A80036; stroke-width: 1.0;"/><path d="M85.9688,258.6406 Q85.3906,258.9375 84.75,259.0781 Q84.1094,259.2344 83.4063,259.2344 Q80.9063,259.2344 79.5781,257.5938 Q78.2656,255.9375 78.2656,252.8125 Q78.2656,249.6875 79.5781,248.0313 Q80.9063,246.375 83.4063,246.375 Q84.1094,246.375 84.75,246.5313 Q85.4063,246.6875 85.9688,246.9844 L85.9688,249.7031 Q85.3438,249.125 84.75,248.8594 Q84.1563,248.5781 83.5313,248.5781 Q82.1875,248.5781 81.5,249.6563 Q80.8125,250.7188 80.8125,252.8125 Q80.8125,254.9063 81.5,255.9844 Q82.1875,257.0469 83.5313,257.0469 Q84.1563,257.0469 84.75,256.7813 Q85.3438,256.5 85.9688,255.9219 L85.9688,258.6406 Z "/><text fill="#000000" font-family="sans-serif" font-size="12" lengthAdjust="spacingAndGlyphs" textLength="42" x="97" y="257.1543">Button</text><line style="stroke: #A80036; stroke-width: 1.5;" x1="69" x2="141" y1="269" y2="269"/><line style="stroke: #A80036; stroke-width: 1.5;" x1="69" x2="141" y1="277" y2="277"/><!--MD5=[46e5a8055f1aba05b769cc49e3c8bb7f]
reverse link MonoBehaviour to Exporter--><path d="M105,76.11 C105,89.31 105,103.54 105,115.65 " fill="none" id="MonoBehaviour&lt;-Exporter" style="stroke: #A80036; stroke-width: 1.0;"/><polygon fill="none" points="98,76.04,105,56.04,112,76.04,98,76.04" style="stroke: #A80036; stroke-width: 1.0;"/><!--MD5=[72a280386f943c2609a33eb9815f6672]
link Exporter to Button--><path d="M105,177.06 C105,193.93 105,214.98 105,231.65 " fill="none" id="Exporter-&gt;Button" style="stroke: #A80036; stroke-width: 1.0;"/><polygon fill="#A80036" points="105,236.67,109,227.67,105,231.67,101,227.67,105,236.67" style="stroke: #A80036; stroke-width: 1.0;"/><text fill="#000000" font-family="sans-serif" font-size="13" lengthAdjust="spacingAndGlyphs" textLength="84" x="10.7625" y="225.9945">exportButton</text><!--MD5=[3a2a5c6f951b06f559368f9a3a9a850a]
@startuml
class Exporter {
    + fileName : string = "City.fbx"
}
MonoBehaviour <|- - Exporter
Exporter - -> "exportButton" Button
@enduml

PlantUML version 1.2020.02(Sun Mar 01 10:22:07 GMT 2020)
(GPL source distribution)
Java Runtime: OpenJDK Runtime Environment
JVM: OpenJDK 64-Bit Server VM
Java Version: 11.0.9+11-Ubuntu-0ubuntu1
Operating System: Linux
Default Encoding: ANSI_X3.4-1968
Language: en
Country: US
--></g></svg>