<?xml version="1.0" encoding="UTF-8" standalone="no"?><svg xmlns="http://www.w3.org/2000/svg" xmlns:xlink="http://www.w3.org/1999/xlink" contentScriptType="application/ecmascript" contentStyleType="text/css" height="199px" preserveAspectRatio="none" style="width:320px;height:199px;" version="1.1" viewBox="0 0 320 199" width="320px" zoomAndPan="magnify"><defs><filter height="300%" id="fou3cv416ojud" width="300%" x="-1" y="-1"><feGaussianBlur result="blurOut" stdDeviation="2.0"/><feColorMatrix in="blurOut" result="blurOut2" type="matrix" values="0 0 0 0 0 0 0 0 0 0 0 0 0 0 0 0 0 0 .4 0"/><feOffset dx="4.0" dy="4.0" in="blurOut2" result="blurOut3"/><feBlend in="SourceGraphic" in2="blurOut3" mode="normal"/></filter></defs><g><!--MD5=[a7e7843fcd28125a1072481aabadbfb0]
class FilepathManager--><rect fill="#FEFECE" filter="url(#fou3cv416ojud)" height="181.9844" id="FilepathManager" style="stroke: #A80036; stroke-width: 1.5;" width="302" x="7" y="7"/><ellipse cx="101.25" cy="25.9688" fill="#ADD1B2" rx="11" ry="11" style="stroke: #A80036; stroke-width: 1.0;"/><path d="M104.2188,31.6094 Q103.6406,31.9063 103,32.0469 Q102.3594,32.2031 101.6563,32.2031 Q99.1563,32.2031 97.8281,30.5625 Q96.5156,28.9063 96.5156,25.7813 Q96.5156,22.6563 97.8281,21 Q99.1563,19.3438 101.6563,19.3438 Q102.3594,19.3438 103,19.5 Q103.6563,19.6563 104.2188,19.9531 L104.2188,22.6719 Q103.5938,22.0938 103,21.8281 Q102.4063,21.5469 101.7813,21.5469 Q100.4375,21.5469 99.75,22.625 Q99.0625,23.6875 99.0625,25.7813 Q99.0625,27.875 99.75,28.9531 Q100.4375,30.0156 101.7813,30.0156 Q102.4063,30.0156 103,29.75 Q103.5938,29.4688 104.2188,28.8906 L104.2188,31.6094 Z "/><text fill="#000000" font-family="sans-serif" font-size="12" font-style="italic" lengthAdjust="spacingAndGlyphs" textLength="48" x="150.25" y="23.1387">«static»</text><text fill="#000000" font-family="sans-serif" font-size="12" lengthAdjust="spacingAndGlyphs" textLength="105" x="121.75" y="37.1074">FilepathManager</text><line style="stroke: #A80036; stroke-width: 1.5;" x1="8" x2="308" y1="44.9375" y2="44.9375"/><ellipse cx="18" cy="55.9375" fill="none" rx="3" ry="3" style="stroke: #038048; stroke-width: 1.0;"/><text fill="#000000" font-family="sans-serif" font-size="11" lengthAdjust="spacingAndGlyphs" text-decoration="underline" textLength="154" x="27" y="59.1479">projectName : string = null</text><line style="stroke: #A80036; stroke-width: 1.5;" x1="8" x2="308" y1="65.7422" y2="65.7422"/><ellipse cx="18" cy="76.7422" fill="#84BE84" rx="3" ry="3" style="stroke: #038048; stroke-width: 1.0;"/><text fill="#000000" font-family="sans-serif" font-size="11" lengthAdjust="spacingAndGlyphs" text-decoration="underline" textLength="185" x="27" y="79.9526">GetApplicationDirectory() : string</text><ellipse cx="18" cy="89.5469" fill="#84BE84" rx="3" ry="3" style="stroke: #038048; stroke-width: 1.0;"/><text fill="#000000" font-family="sans-serif" font-size="11" lengthAdjust="spacingAndGlyphs" text-decoration="underline" textLength="256" x="27" y="92.7573">ScreenshotExists(_presetName:string) : bool</text><ellipse cx="18" cy="102.3516" fill="#84BE84" rx="3" ry="3" style="stroke: #038048; stroke-width: 1.0;"/><text fill="#000000" font-family="sans-serif" font-size="11" lengthAdjust="spacingAndGlyphs" text-decoration="underline" textLength="276" x="27" y="105.562">GetScreenshotPath(_presetName:string) : string</text><ellipse cx="18" cy="115.1563" fill="#84BE84" rx="3" ry="3" style="stroke: #038048; stroke-width: 1.0;"/><text fill="#000000" font-family="sans-serif" font-size="11" lengthAdjust="spacingAndGlyphs" text-decoration="underline" textLength="192" x="27" y="118.3667">CreateUserModelDirectory() : void</text><ellipse cx="18" cy="127.9609" fill="#84BE84" rx="3" ry="3" style="stroke: #038048; stroke-width: 1.0;"/><text fill="#000000" font-family="sans-serif" font-size="11" lengthAdjust="spacingAndGlyphs" text-decoration="underline" textLength="184" x="27" y="131.1714">GetUserModelDirectory() : string</text><ellipse cx="18" cy="140.7656" fill="#84BE84" rx="3" ry="3" style="stroke: #038048; stroke-width: 1.0;"/><text fill="#000000" font-family="sans-serif" font-size="11" lengthAdjust="spacingAndGlyphs" text-decoration="underline" textLength="184" x="27" y="143.9761">ClearUserModelDirectory() : void</text><ellipse cx="18" cy="153.5703" fill="#84BE84" rx="3" ry="3" style="stroke: #038048; stroke-width: 1.0;"/><text fill="#000000" font-family="sans-serif" font-size="11" lengthAdjust="spacingAndGlyphs" text-decoration="underline" textLength="163" x="27" y="156.7808">GetProjectDirectory() : string</text><ellipse cx="18" cy="166.375" fill="#84BE84" rx="3" ry="3" style="stroke: #038048; stroke-width: 1.0;"/><text fill="#000000" font-family="sans-serif" font-size="11" lengthAdjust="spacingAndGlyphs" text-decoration="underline" textLength="126" x="27" y="169.5854">GetSavePath() : string</text><ellipse cx="18" cy="179.1797" fill="#84BE84" rx="3" ry="3" style="stroke: #038048; stroke-width: 1.0;"/><text fill="#000000" font-family="sans-serif" font-size="11" lengthAdjust="spacingAndGlyphs" text-decoration="underline" textLength="142" x="27" y="182.3901">CheckProjectPath() : bool</text><!--MD5=[8189b96edcd6b13521fb30fcb654b804]
@startuml
class FilepathManager <<static>> {
    + {static} projectName : string = null
    + {static} GetApplicationDirectory() : string
    + {static} ScreenshotExists(_presetName:string) : bool
    + {static} GetScreenshotPath(_presetName:string) : string
    + {static} CreateUserModelDirectory() : void
    + {static} GetUserModelDirectory() : string
    + {static} ClearUserModelDirectory() : void
    + {static} GetProjectDirectory() : string
    + {static} GetSavePath() : string
    + {static} CheckProjectPath() : bool
}
@enduml

PlantUML version 1.2020.02(Sun Mar 01 10:22:07 GMT 2020)
(GPL source distribution)
Java Runtime: OpenJDK Runtime Environment
JVM: OpenJDK 64-Bit Server VM
Java Version: 11.0.9+11-Ubuntu-0ubuntu1
Operating System: Linux
Default Encoding: ANSI_X3.4-1968
Language: en
Country: US
--></g></svg>