<?xml version="1.0" encoding="UTF-8" standalone="no"?><svg xmlns="http://www.w3.org/2000/svg" xmlns:xlink="http://www.w3.org/1999/xlink" contentScriptType="application/ecmascript" contentStyleType="text/css" height="321px" preserveAspectRatio="none" style="width:598px;height:321px;" version="1.1" viewBox="0 0 598 321" width="598px" zoomAndPan="magnify"><defs><filter height="300%" id="fuacv90vhz2ul" width="300%" x="-1" y="-1"><feGaussianBlur result="blurOut" stdDeviation="2.0"/><feColorMatrix in="blurOut" result="blurOut2" type="matrix" values="0 0 0 0 0 0 0 0 0 0 0 0 0 0 0 0 0 0 .4 0"/><feOffset dx="4.0" dy="4.0" in="blurOut2" result="blurOut3"/><feBlend in="SourceGraphic" in2="blurOut3" mode="normal"/></filter></defs><g><!--MD5=[c42cc2f62cf2b85ed1c672168c570fb7]
class Importer--><rect fill="#FEFECE" filter="url(#fuacv90vhz2ul)" height="86.4141" id="Importer" style="stroke: #A80036; stroke-width: 1.5;" width="581" x="6" y="116"/><ellipse cx="265.75" cy="132" fill="#ADD1B2" rx="11" ry="11" style="stroke: #A80036; stroke-width: 1.0;"/><path d="M268.7188,137.6406 Q268.1406,137.9375 267.5,138.0781 Q266.8594,138.2344 266.1563,138.2344 Q263.6563,138.2344 262.3281,136.5938 Q261.0156,134.9375 261.0156,131.8125 Q261.0156,128.6875 262.3281,127.0313 Q263.6563,125.375 266.1563,125.375 Q266.8594,125.375 267.5,125.5313 Q268.1563,125.6875 268.7188,125.9844 L268.7188,128.7031 Q268.0938,128.125 267.5,127.8594 Q266.9063,127.5781 266.2813,127.5781 Q264.9375,127.5781 264.25,128.6563 Q263.5625,129.7188 263.5625,131.8125 Q263.5625,133.9063 264.25,134.9844 Q264.9375,136.0469 266.2813,136.0469 Q266.9063,136.0469 267.5,135.7813 Q268.0938,135.5 268.7188,134.9219 L268.7188,137.6406 Z "/><text fill="#000000" font-family="sans-serif" font-size="12" lengthAdjust="spacingAndGlyphs" textLength="53" x="286.25" y="136.1543">Importer</text><line style="stroke: #A80036; stroke-width: 1.5;" x1="7" x2="586" y1="148" y2="148"/><line style="stroke: #A80036; stroke-width: 1.5;" x1="7" x2="586" y1="156" y2="156"/><ellipse cx="17" cy="167" fill="#84BE84" rx="3" ry="3" style="stroke: #038048; stroke-width: 1.0;"/><text fill="#000000" font-family="sans-serif" font-size="11" lengthAdjust="spacingAndGlyphs" textLength="555" x="26" y="170.2104">ImportOBJModel(_name:string, _category:Preset.Category, _filePath:string, _xzSize:Vector2) : void</text><ellipse cx="17" cy="179.8047" fill="#84BE84" rx="3" ry="3" style="stroke: #038048; stroke-width: 1.0;"/><text fill="#000000" font-family="sans-serif" font-size="11" lengthAdjust="spacingAndGlyphs" textLength="106" x="26" y="183.0151">ReplaceFile() : void</text><ellipse cx="17" cy="192.6094" fill="#84BE84" rx="3" ry="3" style="stroke: #038048; stroke-width: 1.0;"/><text fill="#000000" font-family="sans-serif" font-size="11" lengthAdjust="spacingAndGlyphs" textLength="193" x="26" y="195.8198">CreateNewWithOtherName() : void</text><!--MD5=[83b3cf3d23d77c6f1e1b5291a241bc2a]
class MonoBehaviour--><rect fill="#FEFECE" filter="url(#fuacv90vhz2ul)" height="48" id="MonoBehaviour" style="stroke: #A80036; stroke-width: 1.5;" width="128" x="232.5" y="8"/><ellipse cx="247.5" cy="24" fill="#ADD1B2" rx="11" ry="11" style="stroke: #A80036; stroke-width: 1.0;"/><path d="M250.4688,29.6406 Q249.8906,29.9375 249.25,30.0781 Q248.6094,30.2344 247.9063,30.2344 Q245.4063,30.2344 244.0781,28.5938 Q242.7656,26.9375 242.7656,23.8125 Q242.7656,20.6875 244.0781,19.0313 Q245.4063,17.375 247.9063,17.375 Q248.6094,17.375 249.25,17.5313 Q249.9063,17.6875 250.4688,17.9844 L250.4688,20.7031 Q249.8438,20.125 249.25,19.8594 Q248.6563,19.5781 248.0313,19.5781 Q246.6875,19.5781 246,20.6563 Q245.3125,21.7188 245.3125,23.8125 Q245.3125,25.9063 246,26.9844 Q246.6875,28.0469 248.0313,28.0469 Q248.6563,28.0469 249.25,27.7813 Q249.8438,27.5 250.4688,26.9219 L250.4688,29.6406 Z "/><text fill="#000000" font-family="sans-serif" font-size="12" lengthAdjust="spacingAndGlyphs" textLength="96" x="261.5" y="28.1543">MonoBehaviour</text><line style="stroke: #A80036; stroke-width: 1.5;" x1="233.5" x2="359.5" y1="40" y2="40"/><line style="stroke: #A80036; stroke-width: 1.5;" x1="233.5" x2="359.5" y1="48" y2="48"/><!--MD5=[90ba54f54370e77ef24813dec6818fa3]
class Button--><rect fill="#FEFECE" filter="url(#fuacv90vhz2ul)" height="48" id="Button" style="stroke: #A80036; stroke-width: 1.5;" width="74" x="259.5" y="262"/><ellipse cx="274.5" cy="278" fill="#ADD1B2" rx="11" ry="11" style="stroke: #A80036; stroke-width: 1.0;"/><path d="M277.4688,283.6406 Q276.8906,283.9375 276.25,284.0781 Q275.6094,284.2344 274.9063,284.2344 Q272.4063,284.2344 271.0781,282.5938 Q269.7656,280.9375 269.7656,277.8125 Q269.7656,274.6875 271.0781,273.0313 Q272.4063,271.375 274.9063,271.375 Q275.6094,271.375 276.25,271.5313 Q276.9063,271.6875 277.4688,271.9844 L277.4688,274.7031 Q276.8438,274.125 276.25,273.8594 Q275.6563,273.5781 275.0313,273.5781 Q273.6875,273.5781 273,274.6563 Q272.3125,275.7188 272.3125,277.8125 Q272.3125,279.9063 273,280.9844 Q273.6875,282.0469 275.0313,282.0469 Q275.6563,282.0469 276.25,281.7813 Q276.8438,281.5 277.4688,280.9219 L277.4688,283.6406 Z "/><text fill="#000000" font-family="sans-serif" font-size="12" lengthAdjust="spacingAndGlyphs" textLength="42" x="288.5" y="282.1543">Button</text><line style="stroke: #A80036; stroke-width: 1.5;" x1="260.5" x2="332.5" y1="294" y2="294"/><line style="stroke: #A80036; stroke-width: 1.5;" x1="260.5" x2="332.5" y1="302" y2="302"/><!--MD5=[29f0a98f6a3647dd20d592ba0e586a93]
reverse link MonoBehaviour to Importer--><path d="M296.5,76.27 C296.5,89.12 296.5,103.17 296.5,115.94 " fill="none" id="MonoBehaviour&lt;-Importer" style="stroke: #A80036; stroke-width: 1.0;"/><polygon fill="none" points="289.5,76.22,296.5,56.22,303.5,76.22,289.5,76.22" style="stroke: #A80036; stroke-width: 1.0;"/><!--MD5=[892fcaa1b1194d6d32b84c913070e8c4]
link Importer to Button--><path d="M296.5,202.32 C296.5,220.14 296.5,240.41 296.5,256.42 " fill="none" id="Importer-&gt;Button" style="stroke: #A80036; stroke-width: 1.0;"/><polygon fill="#A80036" points="296.5,261.67,300.5,252.67,296.5,256.67,292.5,252.67,296.5,261.67" style="stroke: #A80036; stroke-width: 1.0;"/><text fill="#000000" font-family="sans-serif" font-size="13" lengthAdjust="spacingAndGlyphs" textLength="85" x="201.1406" y="250.9945">importButton</text><!--MD5=[d3fee39db990157a951a8925a451f6bf]
@startuml
class Importer {
    + ImportOBJModel(_name:string, _category:Preset.Category, _filePath:string, _xzSize:Vector2) : void
    + ReplaceFile() : void
    + CreateNewWithOtherName() : void
}
MonoBehaviour <|- - Importer
Importer - -> "importButton" Button
@enduml

PlantUML version 1.2020.02(Sun Mar 01 10:22:07 GMT 2020)
(GPL source distribution)
Java Runtime: OpenJDK Runtime Environment
JVM: OpenJDK 64-Bit Server VM
Java Version: 11.0.9+11-Ubuntu-0ubuntu1
Operating System: Linux
Default Encoding: ANSI_X3.4-1968
Language: en
Country: US
--></g></svg>