<?xml version="1.0" encoding="UTF-8" standalone="no"?><svg xmlns="http://www.w3.org/2000/svg" xmlns:xlink="http://www.w3.org/1999/xlink" contentScriptType="application/ecmascript" contentStyleType="text/css" height="213px" preserveAspectRatio="none" style="width:148px;height:213px;" version="1.1" viewBox="0 0 148 213" width="148px" zoomAndPan="magnify"><defs><filter height="300%" id="f11s4kdkxefmfw" width="300%" x="-1" y="-1"><feGaussianBlur result="blurOut" stdDeviation="2.0"/><feColorMatrix in="blurOut" result="blurOut2" type="matrix" values="0 0 0 0 0 0 0 0 0 0 0 0 0 0 0 0 0 0 .4 0"/><feOffset dx="4.0" dy="4.0" in="blurOut2" result="blurOut3"/><feBlend in="SourceGraphic" in2="blurOut3" mode="normal"/></filter></defs><g><!--MD5=[c98b7d8616297bee06720ec69f40f104]
class JsonFormatUser--><rect fill="#FEFECE" filter="url(#f11s4kdkxefmfw)" height="86.4141" id="JsonFormatUser" style="stroke: #A80036; stroke-width: 1.5;" width="131" x="6" y="116"/><ellipse cx="21" cy="132" fill="#ADD1B2" rx="11" ry="11" style="stroke: #A80036; stroke-width: 1.0;"/><path d="M23.9688,137.6406 Q23.3906,137.9375 22.75,138.0781 Q22.1094,138.2344 21.4063,138.2344 Q18.9063,138.2344 17.5781,136.5938 Q16.2656,134.9375 16.2656,131.8125 Q16.2656,128.6875 17.5781,127.0313 Q18.9063,125.375 21.4063,125.375 Q22.1094,125.375 22.75,125.5313 Q23.4063,125.6875 23.9688,125.9844 L23.9688,128.7031 Q23.3438,128.125 22.75,127.8594 Q22.1563,127.5781 21.5313,127.5781 Q20.1875,127.5781 19.5,128.6563 Q18.8125,129.7188 18.8125,131.8125 Q18.8125,133.9063 19.5,134.9844 Q20.1875,136.0469 21.5313,136.0469 Q22.1563,136.0469 22.75,135.7813 Q23.3438,135.5 23.9688,134.9219 L23.9688,137.6406 Z "/><text fill="#000000" font-family="sans-serif" font-size="12" lengthAdjust="spacingAndGlyphs" textLength="99" x="35" y="136.1543">JsonFormatUser</text><line style="stroke: #A80036; stroke-width: 1.5;" x1="7" x2="136" y1="148" y2="148"/><line style="stroke: #A80036; stroke-width: 1.5;" x1="7" x2="136" y1="156" y2="156"/><ellipse cx="17" cy="167" fill="#84BE84" rx="3" ry="3" style="stroke: #038048; stroke-width: 1.0;"/><text fill="#000000" font-family="sans-serif" font-size="11" lengthAdjust="spacingAndGlyphs" textLength="99" x="26" y="170.2104">JsonFormatUser()</text><ellipse cx="17" cy="179.8047" fill="#84BE84" rx="3" ry="3" style="stroke: #038048; stroke-width: 1.0;"/><text fill="#000000" font-family="sans-serif" font-size="11" lengthAdjust="spacingAndGlyphs" textLength="105" x="26" y="183.0151">Deserialize() : void</text><ellipse cx="17" cy="192.6094" fill="#84BE84" rx="3" ry="3" style="stroke: #038048; stroke-width: 1.0;"/><text fill="#000000" font-family="sans-serif" font-size="11" lengthAdjust="spacingAndGlyphs" textLength="91" x="26" y="195.8198">Serialize() : void</text><!--MD5=[4eef3ef8cc84c4001b2f3b6df47704ba]
class IFormatter--><rect fill="#FEFECE" filter="url(#f11s4kdkxefmfw)" height="48" id="IFormatter" style="stroke: #A80036; stroke-width: 1.5;" width="97" x="23" y="8"/><ellipse cx="38" cy="24" fill="#ADD1B2" rx="11" ry="11" style="stroke: #A80036; stroke-width: 1.0;"/><path d="M40.9688,29.6406 Q40.3906,29.9375 39.75,30.0781 Q39.1094,30.2344 38.4063,30.2344 Q35.9063,30.2344 34.5781,28.5938 Q33.2656,26.9375 33.2656,23.8125 Q33.2656,20.6875 34.5781,19.0313 Q35.9063,17.375 38.4063,17.375 Q39.1094,17.375 39.75,17.5313 Q40.4063,17.6875 40.9688,17.9844 L40.9688,20.7031 Q40.3438,20.125 39.75,19.8594 Q39.1563,19.5781 38.5313,19.5781 Q37.1875,19.5781 36.5,20.6563 Q35.8125,21.7188 35.8125,23.8125 Q35.8125,25.9063 36.5,26.9844 Q37.1875,28.0469 38.5313,28.0469 Q39.1563,28.0469 39.75,27.7813 Q40.3438,27.5 40.9688,26.9219 L40.9688,29.6406 Z "/><text fill="#000000" font-family="sans-serif" font-size="12" lengthAdjust="spacingAndGlyphs" textLength="65" x="52" y="28.1543">IFormatter</text><line style="stroke: #A80036; stroke-width: 1.5;" x1="24" x2="119" y1="40" y2="40"/><line style="stroke: #A80036; stroke-width: 1.5;" x1="24" x2="119" y1="48" y2="48"/><!--MD5=[4387f144921f4fd727206a8890f0ddf0]
reverse link IFormatter to JsonFormatUser--><path d="M71.5,76.27 C71.5,89.12 71.5,103.17 71.5,115.94 " fill="none" id="IFormatter&lt;-JsonFormatUser" style="stroke: #A80036; stroke-width: 1.0;"/><polygon fill="none" points="64.5,76.22,71.5,56.22,78.5,76.22,64.5,76.22" style="stroke: #A80036; stroke-width: 1.0;"/><!--MD5=[1969392b5e1840d8de7c685e45f2e57f]
@startuml
class JsonFormatUser {
    + JsonFormatUser()
    + Deserialize() : void
    + Serialize() : void
}
IFormatter <|- - JsonFormatUser
@enduml

PlantUML version 1.2020.02(Sun Mar 01 10:22:07 GMT 2020)
(GPL source distribution)
Java Runtime: OpenJDK Runtime Environment
JVM: OpenJDK 64-Bit Server VM
Java Version: 11.0.9+11-Ubuntu-0ubuntu1
Operating System: Linux
Default Encoding: ANSI_X3.4-1968
Language: en
Country: US
--></g></svg>