<?xml version="1.0" encoding="UTF-8" standalone="no"?><svg xmlns="http://www.w3.org/2000/svg" xmlns:xlink="http://www.w3.org/1999/xlink" contentScriptType="application/ecmascript" contentStyleType="text/css" height="200px" preserveAspectRatio="none" style="width:213px;height:200px;" version="1.1" viewBox="0 0 213 200" width="213px" zoomAndPan="magnify"><defs><filter height="300%" id="f9k6v2tjihlx8" width="300%" x="-1" y="-1"><feGaussianBlur result="blurOut" stdDeviation="2.0"/><feColorMatrix in="blurOut" result="blurOut2" type="matrix" values="0 0 0 0 0 0 0 0 0 0 0 0 0 0 0 0 0 0 .4 0"/><feOffset dx="4.0" dy="4.0" in="blurOut2" result="blurOut3"/><feBlend in="SourceGraphic" in2="blurOut3" mode="normal"/></filter></defs><g><!--MD5=[30e169bbbb8d0e469011b07501de72ff]
class SaveManager--><rect fill="#FEFECE" filter="url(#f9k6v2tjihlx8)" height="73.6094" id="SaveManager" style="stroke: #A80036; stroke-width: 1.5;" width="172" x="30" y="116"/><ellipse cx="69.75" cy="132" fill="#ADD1B2" rx="11" ry="11" style="stroke: #A80036; stroke-width: 1.0;"/><path d="M72.7188,137.6406 Q72.1406,137.9375 71.5,138.0781 Q70.8594,138.2344 70.1563,138.2344 Q67.6563,138.2344 66.3281,136.5938 Q65.0156,134.9375 65.0156,131.8125 Q65.0156,128.6875 66.3281,127.0313 Q67.6563,125.375 70.1563,125.375 Q70.8594,125.375 71.5,125.5313 Q72.1563,125.6875 72.7188,125.9844 L72.7188,128.7031 Q72.0938,128.125 71.5,127.8594 Q70.9063,127.5781 70.2813,127.5781 Q68.9375,127.5781 68.25,128.6563 Q67.5625,129.7188 67.5625,131.8125 Q67.5625,133.9063 68.25,134.9844 Q68.9375,136.0469 70.2813,136.0469 Q70.9063,136.0469 71.5,135.7813 Q72.0938,135.5 72.7188,134.9219 L72.7188,137.6406 Z "/><text fill="#000000" font-family="sans-serif" font-size="12" lengthAdjust="spacingAndGlyphs" textLength="85" x="89.25" y="136.1543">SaveManager</text><line style="stroke: #A80036; stroke-width: 1.5;" x1="31" x2="201" y1="148" y2="148"/><line style="stroke: #A80036; stroke-width: 1.5;" x1="31" x2="201" y1="156" y2="156"/><ellipse cx="41" cy="167" fill="#84BE84" rx="3" ry="3" style="stroke: #038048; stroke-width: 1.0;"/><text fill="#000000" font-family="sans-serif" font-size="11" lengthAdjust="spacingAndGlyphs" textLength="146" x="50" y="170.2104">Save(_saveAs:bool) : void</text><ellipse cx="41" cy="179.8047" fill="#84BE84" rx="3" ry="3" style="stroke: #038048; stroke-width: 1.0;"/><text fill="#000000" font-family="sans-serif" font-size="11" lengthAdjust="spacingAndGlyphs" textLength="71" x="50" y="183.0151">Load() : bool</text><!--MD5=[faa1de4d7b17b110bcca917d9add068e]
class Singleton`1--><rect fill="#FEFECE" filter="url(#f9k6v2tjihlx8)" height="48" id="Singleton`1" style="stroke: #A80036; stroke-width: 1.5;" width="116" x="58" y="8"/><ellipse cx="73" cy="24" fill="#ADD1B2" rx="11" ry="11" style="stroke: #A80036; stroke-width: 1.0;"/><path d="M75.9688,29.6406 Q75.3906,29.9375 74.75,30.0781 Q74.1094,30.2344 73.4063,30.2344 Q70.9063,30.2344 69.5781,28.5938 Q68.2656,26.9375 68.2656,23.8125 Q68.2656,20.6875 69.5781,19.0313 Q70.9063,17.375 73.4063,17.375 Q74.1094,17.375 74.75,17.5313 Q75.4063,17.6875 75.9688,17.9844 L75.9688,20.7031 Q75.3438,20.125 74.75,19.8594 Q74.1563,19.5781 73.5313,19.5781 Q72.1875,19.5781 71.5,20.6563 Q70.8125,21.7188 70.8125,23.8125 Q70.8125,25.9063 71.5,26.9844 Q72.1875,28.0469 73.5313,28.0469 Q74.1563,28.0469 74.75,27.7813 Q75.3438,27.5 75.9688,26.9219 L75.9688,29.6406 Z "/><text fill="#000000" font-family="sans-serif" font-size="12" lengthAdjust="spacingAndGlyphs" textLength="73" x="87" y="28.1543">Singleton`1</text><rect fill="#FFFFFF" height="15.9688" style="stroke: #000000; stroke-width: 1.0; stroke-dasharray: 2.0,2.0;" width="9" x="168" y="5"/><text fill="#000000" font-family="sans-serif" font-size="12" font-style="italic" lengthAdjust="spacingAndGlyphs" textLength="7" x="169" y="17.1387">T</text><line style="stroke: #A80036; stroke-width: 1.5;" x1="59" x2="173" y1="40" y2="40"/><line style="stroke: #A80036; stroke-width: 1.5;" x1="59" x2="173" y1="48" y2="48"/><!--MD5=[ec50a5643bc80426bb0648340e09c142]
reverse link Singleton`1 to SaveManager--><path d="M116,76.43 C116,89.33 116,103.32 116,115.71 " fill="none" id="Singleton`1&lt;-SaveManager" style="stroke: #A80036; stroke-width: 1.0;"/><polygon fill="none" points="109,76.23,116,56.23,123,76.23,109,76.23" style="stroke: #A80036; stroke-width: 1.0;"/><text fill="#000000" font-family="sans-serif" font-size="13" lengthAdjust="spacingAndGlyphs" textLength="110" x="-7.4063" y="76.0473">&lt;SaveManager&gt;</text><!--MD5=[72e7989dbc5d9f6ea29d13f9df00c2d6]
@startuml
class SaveManager {
    + Save(_saveAs:bool) : void
    + Load() : bool
}
class "Singleton`1"<T> {
}
"Singleton`1" "<SaveManager>" <|- - SaveManager
@enduml

PlantUML version 1.2020.02(Sun Mar 01 10:22:07 GMT 2020)
(GPL source distribution)
Java Runtime: OpenJDK Runtime Environment
JVM: OpenJDK 64-Bit Server VM
Java Version: 11.0.9+11-Ubuntu-0ubuntu1
Operating System: Linux
Default Encoding: ANSI_X3.4-1968
Language: en
Country: US
--></g></svg>