<?xml version="1.0" encoding="UTF-8" standalone="no"?><svg xmlns="http://www.w3.org/2000/svg" xmlns:xlink="http://www.w3.org/1999/xlink" contentScriptType="application/ecmascript" contentStyleType="text/css" height="226px" preserveAspectRatio="none" style="width:672px;height:226px;" version="1.1" viewBox="0 0 672 226" width="672px" zoomAndPan="magnify"><defs><filter height="300%" id="fnzrt9b7su56a" width="300%" x="-1" y="-1"><feGaussianBlur result="blurOut" stdDeviation="2.0"/><feColorMatrix in="blurOut" result="blurOut2" type="matrix" values="0 0 0 0 0 0 0 0 0 0 0 0 0 0 0 0 0 0 .4 0"/><feOffset dx="4.0" dy="4.0" in="blurOut2" result="blurOut3"/><feBlend in="SourceGraphic" in2="blurOut3" mode="normal"/></filter></defs><g><!--MD5=[73bc57207b51c3b467be125ed50baf39]
class SaveData--><rect fill="#FEFECE" filter="url(#fnzrt9b7su56a)" height="99.2188" id="SaveData" style="stroke: #A80036; stroke-width: 1.5;" width="655" x="6" y="8"/><ellipse cx="299.25" cy="24" fill="#ADD1B2" rx="11" ry="11" style="stroke: #A80036; stroke-width: 1.0;"/><path d="M302.2188,29.6406 Q301.6406,29.9375 301,30.0781 Q300.3594,30.2344 299.6563,30.2344 Q297.1563,30.2344 295.8281,28.5938 Q294.5156,26.9375 294.5156,23.8125 Q294.5156,20.6875 295.8281,19.0313 Q297.1563,17.375 299.6563,17.375 Q300.3594,17.375 301,17.5313 Q301.6563,17.6875 302.2188,17.9844 L302.2188,20.7031 Q301.5938,20.125 301,19.8594 Q300.4063,19.5781 299.7813,19.5781 Q298.4375,19.5781 297.75,20.6563 Q297.0625,21.7188 297.0625,23.8125 Q297.0625,25.9063 297.75,26.9844 Q298.4375,28.0469 299.7813,28.0469 Q300.4063,28.0469 301,27.7813 Q301.5938,27.5 302.2188,26.9219 L302.2188,29.6406 Z "/><text fill="#000000" font-family="sans-serif" font-size="12" lengthAdjust="spacingAndGlyphs" textLength="60" x="319.75" y="28.1543">SaveData</text><line style="stroke: #A80036; stroke-width: 1.5;" x1="7" x2="660" y1="40" y2="40"/><ellipse cx="17" cy="51" fill="none" rx="3" ry="3" style="stroke: #038048; stroke-width: 1.0;"/><text fill="#000000" font-family="sans-serif" font-size="11" lengthAdjust="spacingAndGlyphs" textLength="117" x="26" y="54.2104">projectName : string</text><line style="stroke: #A80036; stroke-width: 1.5;" x1="7" x2="660" y1="60.8047" y2="60.8047"/><ellipse cx="17" cy="71.8047" fill="#84BE84" rx="3" ry="3" style="stroke: #038048; stroke-width: 1.0;"/><text fill="#000000" font-family="sans-serif" font-size="11" lengthAdjust="spacingAndGlyphs" textLength="400" x="26" y="75.0151">SaveData(_placedObjects:List&lt;PlacedObject&gt;, _presets:List&lt;Preset&gt;)</text><ellipse cx="17" cy="84.6094" fill="#84BE84" rx="3" ry="3" style="stroke: #038048; stroke-width: 1.0;"/><text fill="#000000" font-family="sans-serif" font-size="11" lengthAdjust="spacingAndGlyphs" textLength="523" x="26" y="87.8198">SaveData(_placedObjects:List&lt;PlacedObject&gt;, _presets:List&lt;Preset&gt;, _projectName:string)</text><ellipse cx="17" cy="97.4141" fill="#84BE84" rx="3" ry="3" style="stroke: #038048; stroke-width: 1.0;"/><text fill="#000000" font-family="sans-serif" font-size="11" lengthAdjust="spacingAndGlyphs" textLength="629" x="26" y="100.6245">SaveData(_placedObjects:List&lt;PlacedObject&gt;, _presets:List&lt;Preset&gt;, _projectName:string, _camPos:Vector3)</text><!--MD5=[e644022de7dea015dd09463c37421447]
class List`1--><rect fill="#FEFECE" filter="url(#fnzrt9b7su56a)" height="48" id="List`1" style="stroke: #A80036; stroke-width: 1.5;" width="78" x="294.5" y="167"/><ellipse cx="309.5" cy="183" fill="#ADD1B2" rx="11" ry="11" style="stroke: #A80036; stroke-width: 1.0;"/><path d="M312.4688,188.6406 Q311.8906,188.9375 311.25,189.0781 Q310.6094,189.2344 309.9063,189.2344 Q307.4063,189.2344 306.0781,187.5938 Q304.7656,185.9375 304.7656,182.8125 Q304.7656,179.6875 306.0781,178.0313 Q307.4063,176.375 309.9063,176.375 Q310.6094,176.375 311.25,176.5313 Q311.9063,176.6875 312.4688,176.9844 L312.4688,179.7031 Q311.8438,179.125 311.25,178.8594 Q310.6563,178.5781 310.0313,178.5781 Q308.6875,178.5781 308,179.6563 Q307.3125,180.7188 307.3125,182.8125 Q307.3125,184.9063 308,185.9844 Q308.6875,187.0469 310.0313,187.0469 Q310.6563,187.0469 311.25,186.7813 Q311.8438,186.5 312.4688,185.9219 L312.4688,188.6406 Z "/><text fill="#000000" font-family="sans-serif" font-size="12" lengthAdjust="spacingAndGlyphs" textLength="35" x="323.5" y="187.1543">List`1</text><rect fill="#FFFFFF" height="15.9688" style="stroke: #000000; stroke-width: 1.0; stroke-dasharray: 2.0,2.0;" width="9" x="366.5" y="164"/><text fill="#000000" font-family="sans-serif" font-size="12" font-style="italic" lengthAdjust="spacingAndGlyphs" textLength="7" x="367.5" y="176.1387">T</text><line style="stroke: #A80036; stroke-width: 1.5;" x1="295.5" x2="371.5" y1="199" y2="199"/><line style="stroke: #A80036; stroke-width: 1.5;" x1="295.5" x2="371.5" y1="207" y2="207"/><!--MD5=[65d619c042c23702cef2ca07d67b1cf6]
class Vector3--><rect fill="#FEFECE" filter="url(#fnzrt9b7su56a)" height="48" id="Vector3" style="stroke: #A80036; stroke-width: 1.5;" width="81" x="408" y="167"/><ellipse cx="423" cy="183" fill="#ADD1B2" rx="11" ry="11" style="stroke: #A80036; stroke-width: 1.0;"/><path d="M425.9688,188.6406 Q425.3906,188.9375 424.75,189.0781 Q424.1094,189.2344 423.4063,189.2344 Q420.9063,189.2344 419.5781,187.5938 Q418.2656,185.9375 418.2656,182.8125 Q418.2656,179.6875 419.5781,178.0313 Q420.9063,176.375 423.4063,176.375 Q424.1094,176.375 424.75,176.5313 Q425.4063,176.6875 425.9688,176.9844 L425.9688,179.7031 Q425.3438,179.125 424.75,178.8594 Q424.1563,178.5781 423.5313,178.5781 Q422.1875,178.5781 421.5,179.6563 Q420.8125,180.7188 420.8125,182.8125 Q420.8125,184.9063 421.5,185.9844 Q422.1875,187.0469 423.5313,187.0469 Q424.1563,187.0469 424.75,186.7813 Q425.3438,186.5 425.9688,185.9219 L425.9688,188.6406 Z "/><text fill="#000000" font-family="sans-serif" font-size="12" lengthAdjust="spacingAndGlyphs" textLength="49" x="437" y="187.1543">Vector3</text><line style="stroke: #A80036; stroke-width: 1.5;" x1="409" x2="488" y1="199" y2="199"/><line style="stroke: #A80036; stroke-width: 1.5;" x1="409" x2="488" y1="207" y2="207"/><!--MD5=[02c6e8b61d64f4eb3b7161063839eb9d]
link SaveData to List`1--><path d="M321.14,107.09 C320.28,125.5 320.84,145.83 322.81,161.75 " fill="none" id="SaveData-&gt;List`1" style="stroke: #A80036; stroke-width: 1.0;"/><polygon fill="#A80036" points="323.53,166.98,326.2591,157.5168,322.8449,162.0272,318.3345,158.613,323.53,166.98" style="stroke: #A80036; stroke-width: 1.0;"/><text fill="#000000" font-family="sans-serif" font-size="13" lengthAdjust="spacingAndGlyphs" textLength="180" x="117.9127" y="155.9869">builtObjects&lt;PlacedObject&gt;</text><!--MD5=[02c6e8b61d64f4eb3b7161063839eb9d]
link SaveData to List`1--><path d="M346.58,107.09 C347.5,125.5 346.91,145.83 344.82,161.75 " fill="none" id="SaveData-&gt;List`1-1" style="stroke: #A80036; stroke-width: 1.0;"/><polygon fill="#A80036" points="344.05,166.98,349.2961,158.6446,344.7651,162.0314,341.3783,157.5004,344.05,166.98" style="stroke: #A80036; stroke-width: 1.0;"/><text fill="#000000" font-family="sans-serif" font-size="13" lengthAdjust="spacingAndGlyphs" textLength="169" x="368.4134" y="155.9252">presetCatalogue&lt;Preset&gt;</text><!--MD5=[3914fceb118a79e12519108406807cc4]
link SaveData to Vector3--><path d="M376,107.09 C392.51,125.98 410.8,146.89 424.88,162.99 " fill="none" id="SaveData-&gt;Vector3" style="stroke: #A80036; stroke-width: 1.0;"/><polygon fill="#A80036" points="428.37,166.98,425.4361,157.5783,425.0704,163.2233,419.4254,162.8576,428.37,166.98" style="stroke: #A80036; stroke-width: 1.0;"/><text fill="#000000" font-family="sans-serif" font-size="13" lengthAdjust="spacingAndGlyphs" textLength="99" x="470.2223" y="155.6005">cameraPosition</text><!--MD5=[7ed26471400ac6f7926519cadd098b89]
@startuml
class SaveData {
    + projectName : string
    + SaveData(_placedObjects:List<PlacedObject>, _presets:List<Preset>)
    + SaveData(_placedObjects:List<PlacedObject>, _presets:List<Preset>, _projectName:string)
    + SaveData(_placedObjects:List<PlacedObject>, _presets:List<Preset>, _projectName:string, _camPos:Vector3)
}
class "List`1"<T> {
}
SaveData - -> "builtObjects<PlacedObject>" "List`1"
SaveData - -> "presetCatalogue<Preset>" "List`1"
SaveData - -> "cameraPosition" Vector3
@enduml

PlantUML version 1.2020.02(Sun Mar 01 10:22:07 GMT 2020)
(GPL source distribution)
Java Runtime: OpenJDK Runtime Environment
JVM: OpenJDK 64-Bit Server VM
Java Version: 11.0.9+11-Ubuntu-0ubuntu1
Operating System: Linux
Default Encoding: ANSI_X3.4-1968
Language: en
Country: US
--></g></svg>