<?xml version="1.0" encoding="UTF-8" standalone="no"?><svg xmlns="http://www.w3.org/2000/svg" xmlns:xlink="http://www.w3.org/1999/xlink" contentScriptType="application/ecmascript" contentStyleType="text/css" height="161px" preserveAspectRatio="none" style="width:268px;height:161px;" version="1.1" viewBox="0 0 268 161" width="268px" zoomAndPan="magnify"><defs><filter height="300%" id="f14omzy0mnr2" width="300%" x="-1" y="-1"><feGaussianBlur result="blurOut" stdDeviation="2.0"/><feColorMatrix in="blurOut" result="blurOut2" type="matrix" values="0 0 0 0 0 0 0 0 0 0 0 0 0 0 0 0 0 0 .4 0"/><feOffset dx="4.0" dy="4.0" in="blurOut2" result="blurOut3"/><feBlend in="SourceGraphic" in2="blurOut3" mode="normal"/></filter></defs><g><!--MD5=[4759bd1fa25d74dfb5e915ece52c89cc]
class SaveSystem--><rect fill="#FEFECE" filter="url(#f14omzy0mnr2)" height="143.5703" id="SaveSystem" style="stroke: #A80036; stroke-width: 1.5;" width="250" x="7" y="7"/><ellipse cx="90.25" cy="25.9688" fill="#ADD1B2" rx="11" ry="11" style="stroke: #A80036; stroke-width: 1.0;"/><path d="M93.2188,31.6094 Q92.6406,31.9063 92,32.0469 Q91.3594,32.2031 90.6563,32.2031 Q88.1563,32.2031 86.8281,30.5625 Q85.5156,28.9063 85.5156,25.7813 Q85.5156,22.6563 86.8281,21 Q88.1563,19.3438 90.6563,19.3438 Q91.3594,19.3438 92,19.5 Q92.6563,19.6563 93.2188,19.9531 L93.2188,22.6719 Q92.5938,22.0938 92,21.8281 Q91.4063,21.5469 90.7813,21.5469 Q89.4375,21.5469 88.75,22.625 Q88.0625,23.6875 88.0625,25.7813 Q88.0625,27.875 88.75,28.9531 Q89.4375,30.0156 90.7813,30.0156 Q91.4063,30.0156 92,29.75 Q92.5938,29.4688 93.2188,28.8906 L93.2188,31.6094 Z "/><text fill="#000000" font-family="sans-serif" font-size="12" font-style="italic" lengthAdjust="spacingAndGlyphs" textLength="48" x="124.25" y="23.1387">«static»</text><text fill="#000000" font-family="sans-serif" font-size="12" lengthAdjust="spacingAndGlyphs" textLength="75" x="110.75" y="37.1074">SaveSystem</text><line style="stroke: #A80036; stroke-width: 1.5;" x1="8" x2="256" y1="44.9375" y2="44.9375"/><ellipse cx="18" cy="55.9375" fill="none" rx="3" ry="3" style="stroke: #038048; stroke-width: 1.0;"/><text fill="#000000" font-family="sans-serif" font-size="11" lengthAdjust="spacingAndGlyphs" text-decoration="underline" textLength="166" x="27" y="59.1479">fileName : string = "newCity"</text><line style="stroke: #A80036; stroke-width: 1.5;" x1="8" x2="256" y1="65.7422" y2="65.7422"/><ellipse cx="18" cy="76.7422" fill="#84BE84" rx="3" ry="3" style="stroke: #038048; stroke-width: 1.0;"/><text fill="#000000" font-family="sans-serif" font-size="11" lengthAdjust="spacingAndGlyphs" text-decoration="underline" textLength="175" x="27" y="79.9526">SaveAs(_data:SaveData) : bool</text><ellipse cx="18" cy="89.5469" fill="#84BE84" rx="3" ry="3" style="stroke: #038048; stroke-width: 1.0;"/><text fill="#000000" font-family="sans-serif" font-size="11" lengthAdjust="spacingAndGlyphs" text-decoration="underline" textLength="161" x="27" y="92.7573">Save(_data:SaveData) : bool</text><ellipse cx="18" cy="102.3516" fill="#84BE84" rx="3" ry="3" style="stroke: #038048; stroke-width: 1.0;"/><text fill="#000000" font-family="sans-serif" font-size="11" lengthAdjust="spacingAndGlyphs" text-decoration="underline" textLength="101" x="27" y="105.562">Load() : SaveData</text><ellipse cx="18" cy="115.1563" fill="#84BE84" rx="3" ry="3" style="stroke: #038048; stroke-width: 1.0;"/><text fill="#000000" font-family="sans-serif" font-size="11" lengthAdjust="spacingAndGlyphs" text-decoration="underline" textLength="106" x="27" y="118.3667">SaveExists() : bool</text><ellipse cx="18" cy="127.9609" fill="#84BE84" rx="3" ry="3" style="stroke: #038048; stroke-width: 1.0;"/><text fill="#000000" font-family="sans-serif" font-size="11" lengthAdjust="spacingAndGlyphs" text-decoration="underline" textLength="117" x="27" y="131.1714">GetFilePath() : string</text><ellipse cx="18" cy="140.7656" fill="#84BE84" rx="3" ry="3" style="stroke: #038048; stroke-width: 1.0;"/><text fill="#000000" font-family="sans-serif" font-size="11" lengthAdjust="spacingAndGlyphs" text-decoration="underline" textLength="224" x="27" y="143.9761">GetBinaryFormatter() : BinaryFormatter</text><!--MD5=[4fc80ff482e1e7406ce536531e8c4e67]
@startuml
class SaveSystem <<static>> {
    + {static} fileName : string = "newCity"
    + {static} SaveAs(_data:SaveData) : bool
    + {static} Save(_data:SaveData) : bool
    + {static} Load() : SaveData
    + {static} SaveExists() : bool
    + {static} GetFilePath() : string
    + {static} GetBinaryFormatter() : BinaryFormatter
}
@enduml

PlantUML version 1.2020.02(Sun Mar 01 10:22:07 GMT 2020)
(GPL source distribution)
Java Runtime: OpenJDK Runtime Environment
JVM: OpenJDK 64-Bit Server VM
Java Version: 11.0.9+11-Ubuntu-0ubuntu1
Operating System: Linux
Default Encoding: ANSI_X3.4-1968
Language: en
Country: US
--></g></svg>