<?xml version="1.0" encoding="UTF-8" standalone="no"?><svg xmlns="http://www.w3.org/2000/svg" xmlns:xlink="http://www.w3.org/1999/xlink" contentScriptType="application/ecmascript" contentStyleType="text/css" height="200px" preserveAspectRatio="none" style="width:676px;height:200px;" version="1.1" viewBox="0 0 676 200" width="676px" zoomAndPan="magnify"><defs><filter height="300%" id="f1lwqln3qdrvfo" width="300%" x="-1" y="-1"><feGaussianBlur result="blurOut" stdDeviation="2.0"/><feColorMatrix in="blurOut" result="blurOut2" type="matrix" values="0 0 0 0 0 0 0 0 0 0 0 0 0 0 0 0 0 0 .4 0"/><feOffset dx="4.0" dy="4.0" in="blurOut2" result="blurOut3"/><feBlend in="SourceGraphic" in2="blurOut3" mode="normal"/></filter></defs><g><!--MD5=[de2e4158a40a5718e772922de57fc77a]
class Vector2SerializationSurrogate--><rect fill="#FEFECE" filter="url(#f1lwqln3qdrvfo)" height="73.6094" id="Vector2SerializationSurrogate" style="stroke: #A80036; stroke-width: 1.5;" width="659" x="6" y="116"/><ellipse cx="237.75" cy="132" fill="#ADD1B2" rx="11" ry="11" style="stroke: #A80036; stroke-width: 1.0;"/><path d="M240.7188,137.6406 Q240.1406,137.9375 239.5,138.0781 Q238.8594,138.2344 238.1563,138.2344 Q235.6563,138.2344 234.3281,136.5938 Q233.0156,134.9375 233.0156,131.8125 Q233.0156,128.6875 234.3281,127.0313 Q235.6563,125.375 238.1563,125.375 Q238.8594,125.375 239.5,125.5313 Q240.1563,125.6875 240.7188,125.9844 L240.7188,128.7031 Q240.0938,128.125 239.5,127.8594 Q238.9063,127.5781 238.2813,127.5781 Q236.9375,127.5781 236.25,128.6563 Q235.5625,129.7188 235.5625,131.8125 Q235.5625,133.9063 236.25,134.9844 Q236.9375,136.0469 238.2813,136.0469 Q238.9063,136.0469 239.5,135.7813 Q240.0938,135.5 240.7188,134.9219 L240.7188,137.6406 Z "/><text fill="#000000" font-family="sans-serif" font-size="12" lengthAdjust="spacingAndGlyphs" textLength="187" x="258.25" y="136.1543">Vector2SerializationSurrogate</text><line style="stroke: #A80036; stroke-width: 1.5;" x1="7" x2="664" y1="148" y2="148"/><line style="stroke: #A80036; stroke-width: 1.5;" x1="7" x2="664" y1="156" y2="156"/><ellipse cx="17" cy="167" fill="#84BE84" rx="3" ry="3" style="stroke: #038048; stroke-width: 1.0;"/><text fill="#000000" font-family="sans-serif" font-size="11" lengthAdjust="spacingAndGlyphs" textLength="458" x="26" y="170.2104">GetObjectData(obj:object, info:SerializationInfo, context:StreamingContext) : void</text><ellipse cx="17" cy="179.8047" fill="#84BE84" rx="3" ry="3" style="stroke: #038048; stroke-width: 1.0;"/><text fill="#000000" font-family="sans-serif" font-size="11" lengthAdjust="spacingAndGlyphs" textLength="633" x="26" y="183.0151">SetObjectData(obj:object, info:SerializationInfo, context:StreamingContext, selector:ISurrogateSelector) : object</text><!--MD5=[4989e52ddff5c429742b690322f1dfd4]
class ISerializationSurrogate--><rect fill="#FEFECE" filter="url(#f1lwqln3qdrvfo)" height="48" id="ISerializationSurrogate" style="stroke: #A80036; stroke-width: 1.5;" width="173" x="249" y="8"/><ellipse cx="264" cy="24" fill="#ADD1B2" rx="11" ry="11" style="stroke: #A80036; stroke-width: 1.0;"/><path d="M266.9688,29.6406 Q266.3906,29.9375 265.75,30.0781 Q265.1094,30.2344 264.4063,30.2344 Q261.9063,30.2344 260.5781,28.5938 Q259.2656,26.9375 259.2656,23.8125 Q259.2656,20.6875 260.5781,19.0313 Q261.9063,17.375 264.4063,17.375 Q265.1094,17.375 265.75,17.5313 Q266.4063,17.6875 266.9688,17.9844 L266.9688,20.7031 Q266.3438,20.125 265.75,19.8594 Q265.1563,19.5781 264.5313,19.5781 Q263.1875,19.5781 262.5,20.6563 Q261.8125,21.7188 261.8125,23.8125 Q261.8125,25.9063 262.5,26.9844 Q263.1875,28.0469 264.5313,28.0469 Q265.1563,28.0469 265.75,27.7813 Q266.3438,27.5 266.9688,26.9219 L266.9688,29.6406 Z "/><text fill="#000000" font-family="sans-serif" font-size="12" lengthAdjust="spacingAndGlyphs" textLength="141" x="278" y="28.1543">ISerializationSurrogate</text><line style="stroke: #A80036; stroke-width: 1.5;" x1="250" x2="421" y1="40" y2="40"/><line style="stroke: #A80036; stroke-width: 1.5;" x1="250" x2="421" y1="48" y2="48"/><!--MD5=[f63ed3a1971b808c46c0681b73bc7f4e]
reverse link ISerializationSurrogate to Vector2SerializationSurrogate--><path d="M335.5,76.43 C335.5,89.33 335.5,103.32 335.5,115.71 " fill="none" id="ISerializationSurrogate&lt;-Vector2SerializationSurrogate" style="stroke: #A80036; stroke-width: 1.0;"/><polygon fill="none" points="328.5,76.23,335.5,56.23,342.5,76.23,328.5,76.23" style="stroke: #A80036; stroke-width: 1.0;"/><!--MD5=[314e764e1faa1032129a2e5525ddbd57]
@startuml
class Vector2SerializationSurrogate {
    + GetObjectData(obj:object, info:SerializationInfo, context:StreamingContext) : void
    + SetObjectData(obj:object, info:SerializationInfo, context:StreamingContext, selector:ISurrogateSelector) : object
}
ISerializationSurrogate <|- - Vector2SerializationSurrogate
@enduml

PlantUML version 1.2020.02(Sun Mar 01 10:22:07 GMT 2020)
(GPL source distribution)
Java Runtime: OpenJDK Runtime Environment
JVM: OpenJDK 64-Bit Server VM
Java Version: 11.0.9+11-Ubuntu-0ubuntu1
Operating System: Linux
Default Encoding: ANSI_X3.4-1968
Language: en
Country: US
--></g></svg>