<?xml version="1.0" encoding="UTF-8" standalone="no"?><svg xmlns="http://www.w3.org/2000/svg" xmlns:xlink="http://www.w3.org/1999/xlink" contentScriptType="application/ecmascript" contentStyleType="text/css" height="226px" preserveAspectRatio="none" style="width:223px;height:226px;" version="1.1" viewBox="0 0 223 226" width="223px" zoomAndPan="magnify"><defs><filter height="300%" id="fro95mnr1h9s3" width="300%" x="-1" y="-1"><feGaussianBlur result="blurOut" stdDeviation="2.0"/><feColorMatrix in="blurOut" result="blurOut2" type="matrix" values="0 0 0 0 0 0 0 0 0 0 0 0 0 0 0 0 0 0 .4 0"/><feOffset dx="4.0" dy="4.0" in="blurOut2" result="blurOut3"/><feBlend in="SourceGraphic" in2="blurOut3" mode="normal"/></filter></defs><g><!--MD5=[68be534669bb7053768748b04f0c3689]
class AnimatedWindow--><rect fill="#FEFECE" filter="url(#fro95mnr1h9s3)" height="99.2188" id="AnimatedWindow" style="stroke: #A80036; stroke-width: 1.5;" width="206" x="6" y="116"/><ellipse cx="51.75" cy="132" fill="#ADD1B2" rx="11" ry="11" style="stroke: #A80036; stroke-width: 1.0;"/><path d="M54.7188,137.6406 Q54.1406,137.9375 53.5,138.0781 Q52.8594,138.2344 52.1563,138.2344 Q49.6563,138.2344 48.3281,136.5938 Q47.0156,134.9375 47.0156,131.8125 Q47.0156,128.6875 48.3281,127.0313 Q49.6563,125.375 52.1563,125.375 Q52.8594,125.375 53.5,125.5313 Q54.1563,125.6875 54.7188,125.9844 L54.7188,128.7031 Q54.0938,128.125 53.5,127.8594 Q52.9063,127.5781 52.2813,127.5781 Q50.9375,127.5781 50.25,128.6563 Q49.5625,129.7188 49.5625,131.8125 Q49.5625,133.9063 50.25,134.9844 Q50.9375,136.0469 52.2813,136.0469 Q52.9063,136.0469 53.5,135.7813 Q54.0938,135.5 54.7188,134.9219 L54.7188,137.6406 Z "/><text fill="#000000" font-family="sans-serif" font-size="12" lengthAdjust="spacingAndGlyphs" textLength="106" x="72.25" y="136.1543">AnimatedWindow</text><line style="stroke: #A80036; stroke-width: 1.5;" x1="7" x2="211" y1="148" y2="148"/><ellipse cx="17" cy="159" fill="none" rx="3" ry="3" style="stroke: #038048; stroke-width: 1.0;"/><text fill="#000000" font-family="sans-serif" font-size="11" lengthAdjust="spacingAndGlyphs" textLength="77" x="26" y="162.2104">isDown : bool</text><ellipse cx="17" cy="171.8047" fill="none" rx="3" ry="3" style="stroke: #038048; stroke-width: 1.0;"/><text fill="#000000" font-family="sans-serif" font-size="11" lengthAdjust="spacingAndGlyphs" textLength="180" x="26" y="175.0151">animationDuration : float = 0.5f</text><line style="stroke: #A80036; stroke-width: 1.5;" x1="7" x2="211" y1="181.6094" y2="181.6094"/><ellipse cx="17" cy="192.6094" fill="#84BE84" rx="3" ry="3" style="stroke: #038048; stroke-width: 1.0;"/><text fill="#000000" font-family="sans-serif" font-size="11" lengthAdjust="spacingAndGlyphs" textLength="87" x="26" y="195.8198">MoveUp() : void</text><ellipse cx="17" cy="205.4141" fill="#84BE84" rx="3" ry="3" style="stroke: #038048; stroke-width: 1.0;"/><text fill="#000000" font-family="sans-serif" font-size="11" lengthAdjust="spacingAndGlyphs" textLength="103" x="26" y="208.6245">MoveDown() : void</text><!--MD5=[45c81575b743c0960d996f87188658c4]
class MovingObject--><rect fill="#FEFECE" filter="url(#fro95mnr1h9s3)" height="48" id="MovingObject" style="stroke: #A80036; stroke-width: 1.5;" width="115" x="51.5" y="8"/><ellipse cx="66.5" cy="24" fill="#ADD1B2" rx="11" ry="11" style="stroke: #A80036; stroke-width: 1.0;"/><path d="M69.4688,29.6406 Q68.8906,29.9375 68.25,30.0781 Q67.6094,30.2344 66.9063,30.2344 Q64.4063,30.2344 63.0781,28.5938 Q61.7656,26.9375 61.7656,23.8125 Q61.7656,20.6875 63.0781,19.0313 Q64.4063,17.375 66.9063,17.375 Q67.6094,17.375 68.25,17.5313 Q68.9063,17.6875 69.4688,17.9844 L69.4688,20.7031 Q68.8438,20.125 68.25,19.8594 Q67.6563,19.5781 67.0313,19.5781 Q65.6875,19.5781 65,20.6563 Q64.3125,21.7188 64.3125,23.8125 Q64.3125,25.9063 65,26.9844 Q65.6875,28.0469 67.0313,28.0469 Q67.6563,28.0469 68.25,27.7813 Q68.8438,27.5 69.4688,26.9219 L69.4688,29.6406 Z "/><text fill="#000000" font-family="sans-serif" font-size="12" lengthAdjust="spacingAndGlyphs" textLength="83" x="80.5" y="28.1543">MovingObject</text><line style="stroke: #A80036; stroke-width: 1.5;" x1="52.5" x2="165.5" y1="40" y2="40"/><line style="stroke: #A80036; stroke-width: 1.5;" x1="52.5" x2="165.5" y1="48" y2="48"/><!--MD5=[12cf34d04b9f8b12c82a3e61301a0c7c]
reverse link MovingObject to AnimatedWindow--><path d="M109,76.51 C109,89.14 109,103.01 109,115.93 " fill="none" id="MovingObject&lt;-AnimatedWindow" style="stroke: #A80036; stroke-width: 1.0;"/><polygon fill="none" points="102,76.21,109,56.21,116,76.21,102,76.21" style="stroke: #A80036; stroke-width: 1.0;"/><!--MD5=[326c79508a15f47694767dafd49d49c2]
@startuml
class AnimatedWindow {
    + isDown : bool
    + animationDuration : float = 0.5f
    + MoveUp() : void
    + MoveDown() : void
}
MovingObject <|- - AnimatedWindow
@enduml

PlantUML version 1.2020.02(Sun Mar 01 10:22:07 GMT 2020)
(GPL source distribution)
Java Runtime: OpenJDK Runtime Environment
JVM: OpenJDK 64-Bit Server VM
Java Version: 11.0.9+11-Ubuntu-0ubuntu1
Operating System: Linux
Default Encoding: ANSI_X3.4-1968
Language: en
Country: US
--></g></svg>