<?xml version="1.0" encoding="UTF-8" standalone="no"?><svg xmlns="http://www.w3.org/2000/svg" xmlns:xlink="http://www.w3.org/1999/xlink" contentScriptType="application/ecmascript" contentStyleType="text/css" height="187px" preserveAspectRatio="none" style="width:256px;height:187px;" version="1.1" viewBox="0 0 256 187" width="256px" zoomAndPan="magnify"><defs><filter height="300%" id="f2qtmcs1j19dl" width="300%" x="-1" y="-1"><feGaussianBlur result="blurOut" stdDeviation="2.0"/><feColorMatrix in="blurOut" result="blurOut2" type="matrix" values="0 0 0 0 0 0 0 0 0 0 0 0 0 0 0 0 0 0 .4 0"/><feOffset dx="4.0" dy="4.0" in="blurOut2" result="blurOut3"/><feBlend in="SourceGraphic" in2="blurOut3" mode="normal"/></filter></defs><g><!--MD5=[ca4a5b4044148534b39d5e7da4e7c4c3]
class CamNavigation--><rect fill="#FEFECE" filter="url(#f2qtmcs1j19dl)" height="60.8047" id="CamNavigation" style="stroke: #A80036; stroke-width: 1.5;" width="239" x="6" y="116"/><ellipse cx="74.75" cy="132" fill="#ADD1B2" rx="11" ry="11" style="stroke: #A80036; stroke-width: 1.0;"/><path d="M77.7188,137.6406 Q77.1406,137.9375 76.5,138.0781 Q75.8594,138.2344 75.1563,138.2344 Q72.6563,138.2344 71.3281,136.5938 Q70.0156,134.9375 70.0156,131.8125 Q70.0156,128.6875 71.3281,127.0313 Q72.6563,125.375 75.1563,125.375 Q75.8594,125.375 76.5,125.5313 Q77.1563,125.6875 77.7188,125.9844 L77.7188,128.7031 Q77.0938,128.125 76.5,127.8594 Q75.9063,127.5781 75.2813,127.5781 Q73.9375,127.5781 73.25,128.6563 Q72.5625,129.7188 72.5625,131.8125 Q72.5625,133.9063 73.25,134.9844 Q73.9375,136.0469 75.2813,136.0469 Q75.9063,136.0469 76.5,135.7813 Q77.0938,135.5 77.7188,134.9219 L77.7188,137.6406 Z "/><text fill="#000000" font-family="sans-serif" font-size="12" lengthAdjust="spacingAndGlyphs" textLength="93" x="95.25" y="136.1543">CamNavigation</text><line style="stroke: #A80036; stroke-width: 1.5;" x1="7" x2="244" y1="148" y2="148"/><line style="stroke: #A80036; stroke-width: 1.5;" x1="7" x2="244" y1="156" y2="156"/><ellipse cx="17" cy="167" fill="#84BE84" rx="3" ry="3" style="stroke: #038048; stroke-width: 1.0;"/><text fill="#000000" font-family="sans-serif" font-size="11" lengthAdjust="spacingAndGlyphs" textLength="213" x="26" y="170.2104">LoadPosition(_position:Vector3) : void</text><!--MD5=[83b3cf3d23d77c6f1e1b5291a241bc2a]
class MonoBehaviour--><rect fill="#FEFECE" filter="url(#f2qtmcs1j19dl)" height="48" id="MonoBehaviour" style="stroke: #A80036; stroke-width: 1.5;" width="128" x="61.5" y="8"/><ellipse cx="76.5" cy="24" fill="#ADD1B2" rx="11" ry="11" style="stroke: #A80036; stroke-width: 1.0;"/><path d="M79.4688,29.6406 Q78.8906,29.9375 78.25,30.0781 Q77.6094,30.2344 76.9063,30.2344 Q74.4063,30.2344 73.0781,28.5938 Q71.7656,26.9375 71.7656,23.8125 Q71.7656,20.6875 73.0781,19.0313 Q74.4063,17.375 76.9063,17.375 Q77.6094,17.375 78.25,17.5313 Q78.9063,17.6875 79.4688,17.9844 L79.4688,20.7031 Q78.8438,20.125 78.25,19.8594 Q77.6563,19.5781 77.0313,19.5781 Q75.6875,19.5781 75,20.6563 Q74.3125,21.7188 74.3125,23.8125 Q74.3125,25.9063 75,26.9844 Q75.6875,28.0469 77.0313,28.0469 Q77.6563,28.0469 78.25,27.7813 Q78.8438,27.5 79.4688,26.9219 L79.4688,29.6406 Z "/><text fill="#000000" font-family="sans-serif" font-size="12" lengthAdjust="spacingAndGlyphs" textLength="96" x="90.5" y="28.1543">MonoBehaviour</text><line style="stroke: #A80036; stroke-width: 1.5;" x1="62.5" x2="188.5" y1="40" y2="40"/><line style="stroke: #A80036; stroke-width: 1.5;" x1="62.5" x2="188.5" y1="48" y2="48"/><!--MD5=[33b04b800f4ffc29aab03c0781d11e25]
reverse link MonoBehaviour to CamNavigation--><path d="M125.5,76.11 C125.5,89.31 125.5,103.54 125.5,115.65 " fill="none" id="MonoBehaviour&lt;-CamNavigation" style="stroke: #A80036; stroke-width: 1.0;"/><polygon fill="none" points="118.5,76.04,125.5,56.04,132.5,76.04,118.5,76.04" style="stroke: #A80036; stroke-width: 1.0;"/><!--MD5=[82bf783bfa68c7aca7a3389081ddf2db]
@startuml
class CamNavigation {
    + LoadPosition(_position:Vector3) : void
}
MonoBehaviour <|- - CamNavigation
@enduml

PlantUML version 1.2020.02(Sun Mar 01 10:22:07 GMT 2020)
(GPL source distribution)
Java Runtime: OpenJDK Runtime Environment
JVM: OpenJDK 64-Bit Server VM
Java Version: 11.0.9+11-Ubuntu-0ubuntu1
Operating System: Linux
Default Encoding: ANSI_X3.4-1968
Language: en
Country: US
--></g></svg>