<?xml version="1.0" encoding="UTF-8" standalone="no"?><svg xmlns="http://www.w3.org/2000/svg" xmlns:xlink="http://www.w3.org/1999/xlink" contentScriptType="application/ecmascript" contentStyleType="text/css" height="175px" preserveAspectRatio="none" style="width:179px;height:175px;" version="1.1" viewBox="0 0 179 175" width="179px" zoomAndPan="magnify"><defs><filter height="300%" id="f1rpr6t7m6aqei" width="300%" x="-1" y="-1"><feGaussianBlur result="blurOut" stdDeviation="2.0"/><feColorMatrix in="blurOut" result="blurOut2" type="matrix" values="0 0 0 0 0 0 0 0 0 0 0 0 0 0 0 0 0 0 .4 0"/><feOffset dx="4.0" dy="4.0" in="blurOut2" result="blurOut3"/><feBlend in="SourceGraphic" in2="blurOut3" mode="normal"/></filter></defs><g><!--MD5=[50730635fb59fbaf97226f5fb61f3a4b]
class DuplicateModelMenu--><rect fill="#FEFECE" filter="url(#f1rpr6t7m6aqei)" height="48" id="DuplicateModelMenu" style="stroke: #A80036; stroke-width: 1.5;" width="162" x="6" y="116"/><ellipse cx="21" cy="132" fill="#ADD1B2" rx="11" ry="11" style="stroke: #A80036; stroke-width: 1.0;"/><path d="M23.9688,137.6406 Q23.3906,137.9375 22.75,138.0781 Q22.1094,138.2344 21.4063,138.2344 Q18.9063,138.2344 17.5781,136.5938 Q16.2656,134.9375 16.2656,131.8125 Q16.2656,128.6875 17.5781,127.0313 Q18.9063,125.375 21.4063,125.375 Q22.1094,125.375 22.75,125.5313 Q23.4063,125.6875 23.9688,125.9844 L23.9688,128.7031 Q23.3438,128.125 22.75,127.8594 Q22.1563,127.5781 21.5313,127.5781 Q20.1875,127.5781 19.5,128.6563 Q18.8125,129.7188 18.8125,131.8125 Q18.8125,133.9063 19.5,134.9844 Q20.1875,136.0469 21.5313,136.0469 Q22.1563,136.0469 22.75,135.7813 Q23.3438,135.5 23.9688,134.9219 L23.9688,137.6406 Z "/><text fill="#000000" font-family="sans-serif" font-size="12" lengthAdjust="spacingAndGlyphs" textLength="130" x="35" y="136.1543">DuplicateModelMenu</text><line style="stroke: #A80036; stroke-width: 1.5;" x1="7" x2="167" y1="148" y2="148"/><line style="stroke: #A80036; stroke-width: 1.5;" x1="7" x2="167" y1="156" y2="156"/><!--MD5=[f0268dd29ee89052933f031546cb1cab]
class Menu--><rect fill="#FEFECE" filter="url(#f1rpr6t7m6aqei)" height="48" id="Menu" style="stroke: #A80036; stroke-width: 1.5;" width="66" x="54" y="8"/><ellipse cx="69" cy="24" fill="#ADD1B2" rx="11" ry="11" style="stroke: #A80036; stroke-width: 1.0;"/><path d="M71.9688,29.6406 Q71.3906,29.9375 70.75,30.0781 Q70.1094,30.2344 69.4063,30.2344 Q66.9063,30.2344 65.5781,28.5938 Q64.2656,26.9375 64.2656,23.8125 Q64.2656,20.6875 65.5781,19.0313 Q66.9063,17.375 69.4063,17.375 Q70.1094,17.375 70.75,17.5313 Q71.4063,17.6875 71.9688,17.9844 L71.9688,20.7031 Q71.3438,20.125 70.75,19.8594 Q70.1563,19.5781 69.5313,19.5781 Q68.1875,19.5781 67.5,20.6563 Q66.8125,21.7188 66.8125,23.8125 Q66.8125,25.9063 67.5,26.9844 Q68.1875,28.0469 69.5313,28.0469 Q70.1563,28.0469 70.75,27.7813 Q71.3438,27.5 71.9688,26.9219 L71.9688,29.6406 Z "/><text fill="#000000" font-family="sans-serif" font-size="12" lengthAdjust="spacingAndGlyphs" textLength="34" x="83" y="28.1543">Menu</text><line style="stroke: #A80036; stroke-width: 1.5;" x1="55" x2="119" y1="40" y2="40"/><line style="stroke: #A80036; stroke-width: 1.5;" x1="55" x2="119" y1="48" y2="48"/><!--MD5=[bbb4a4c4aa4431c56fd385259d3ce10f]
reverse link Menu to DuplicateModelMenu--><path d="M87,76.02 C87,89.58 87,104.04 87,115.68 " fill="none" id="Menu&lt;-DuplicateModelMenu" style="stroke: #A80036; stroke-width: 1.0;"/><polygon fill="none" points="80,76,87,56,94,76,80,76" style="stroke: #A80036; stroke-width: 1.0;"/><!--MD5=[31f41ec86dcb8d0490e467f0b30b9999]
@startuml
class DuplicateModelMenu {
}
Menu <|- - DuplicateModelMenu
@enduml

PlantUML version 1.2020.02(Sun Mar 01 10:22:07 GMT 2020)
(GPL source distribution)
Java Runtime: OpenJDK Runtime Environment
JVM: OpenJDK 64-Bit Server VM
Java Version: 11.0.9+11-Ubuntu-0ubuntu1
Operating System: Linux
Default Encoding: ANSI_X3.4-1968
Language: en
Country: US
--></g></svg>