<?xml version="1.0" encoding="UTF-8" standalone="no"?><svg xmlns="http://www.w3.org/2000/svg" xmlns:xlink="http://www.w3.org/1999/xlink" contentScriptType="application/ecmascript" contentStyleType="text/css" height="84px" preserveAspectRatio="none" style="width:191px;height:84px;" version="1.1" viewBox="0 0 191 84" width="191px" zoomAndPan="magnify"><defs><filter height="300%" id="f1s855mrt6y2mk" width="300%" x="-1" y="-1"><feGaussianBlur result="blurOut" stdDeviation="2.0"/><feColorMatrix in="blurOut" result="blurOut2" type="matrix" values="0 0 0 0 0 0 0 0 0 0 0 0 0 0 0 0 0 0 .4 0"/><feOffset dx="4.0" dy="4.0" in="blurOut2" result="blurOut3"/><feBlend in="SourceGraphic" in2="blurOut3" mode="normal"/></filter></defs><g><!--MD5=[248f897e4bb16c2722904b15df30346f]
class Logger--><rect fill="#FEFECE" filter="url(#f1s855mrt6y2mk)" height="66.7422" id="Logger" style="stroke: #A80036; stroke-width: 1.5;" width="173" x="7" y="7"/><ellipse cx="67.25" cy="25.9688" fill="#ADD1B2" rx="11" ry="11" style="stroke: #A80036; stroke-width: 1.0;"/><path d="M70.2188,31.6094 Q69.6406,31.9063 69,32.0469 Q68.3594,32.2031 67.6563,32.2031 Q65.1563,32.2031 63.8281,30.5625 Q62.5156,28.9063 62.5156,25.7813 Q62.5156,22.6563 63.8281,21 Q65.1563,19.3438 67.6563,19.3438 Q68.3594,19.3438 69,19.5 Q69.6563,19.6563 70.2188,19.9531 L70.2188,22.6719 Q69.5938,22.0938 69,21.8281 Q68.4063,21.5469 67.7813,21.5469 Q66.4375,21.5469 65.75,22.625 Q65.0625,23.6875 65.0625,25.7813 Q65.0625,27.875 65.75,28.9531 Q66.4375,30.0156 67.7813,30.0156 Q68.4063,30.0156 69,29.75 Q69.5938,29.4688 70.2188,28.8906 L70.2188,31.6094 Z "/><text fill="#000000" font-family="sans-serif" font-size="12" font-style="italic" lengthAdjust="spacingAndGlyphs" textLength="48" x="85.75" y="23.1387">«static»</text><text fill="#000000" font-family="sans-serif" font-size="12" lengthAdjust="spacingAndGlyphs" textLength="43" x="88.25" y="37.1074">Logger</text><line style="stroke: #A80036; stroke-width: 1.5;" x1="8" x2="179" y1="44.9375" y2="44.9375"/><line style="stroke: #A80036; stroke-width: 1.5;" x1="8" x2="179" y1="52.9375" y2="52.9375"/><ellipse cx="18" cy="63.9375" fill="#84BE84" rx="3" ry="3" style="stroke: #038048; stroke-width: 1.0;"/><text fill="#000000" font-family="sans-serif" font-size="11" lengthAdjust="spacingAndGlyphs" text-decoration="underline" textLength="147" x="27" y="67.1479">Log(_logText:string) : void</text><!--MD5=[a10067f75a1851d8bf743936cba53290]
@startuml
class Logger <<static>> {
    + {static} Log(_logText:string) : void
}
@enduml

PlantUML version 1.2020.02(Sun Mar 01 10:22:07 GMT 2020)
(GPL source distribution)
Java Runtime: OpenJDK Runtime Environment
JVM: OpenJDK 64-Bit Server VM
Java Version: 11.0.9+11-Ubuntu-0ubuntu1
Operating System: Linux
Default Encoding: ANSI_X3.4-1968
Language: en
Country: US
--></g></svg>