<?xml version="1.0" encoding="UTF-8" standalone="no"?><svg xmlns="http://www.w3.org/2000/svg" xmlns:xlink="http://www.w3.org/1999/xlink" contentScriptType="application/ecmascript" contentStyleType="text/css" height="187px" preserveAspectRatio="none" style="width:329px;height:187px;" version="1.1" viewBox="0 0 329 187" width="329px" zoomAndPan="magnify"><defs><filter height="300%" id="f1vbg8ab59ga6l" width="300%" x="-1" y="-1"><feGaussianBlur result="blurOut" stdDeviation="2.0"/><feColorMatrix in="blurOut" result="blurOut2" type="matrix" values="0 0 0 0 0 0 0 0 0 0 0 0 0 0 0 0 0 0 .4 0"/><feOffset dx="4.0" dy="4.0" in="blurOut2" result="blurOut3"/><feBlend in="SourceGraphic" in2="blurOut3" mode="normal"/></filter></defs><g><!--MD5=[c8fa37eeb2bddb017ebecba17ba49e2c]
class NewCityScreen--><rect fill="#FEFECE" filter="url(#f1vbg8ab59ga6l)" height="60.8047" id="NewCityScreen" style="stroke: #A80036; stroke-width: 1.5;" width="312" x="6" y="116"/><ellipse cx="111.75" cy="132" fill="#ADD1B2" rx="11" ry="11" style="stroke: #A80036; stroke-width: 1.0;"/><path d="M114.7188,137.6406 Q114.1406,137.9375 113.5,138.0781 Q112.8594,138.2344 112.1563,138.2344 Q109.6563,138.2344 108.3281,136.5938 Q107.0156,134.9375 107.0156,131.8125 Q107.0156,128.6875 108.3281,127.0313 Q109.6563,125.375 112.1563,125.375 Q112.8594,125.375 113.5,125.5313 Q114.1563,125.6875 114.7188,125.9844 L114.7188,128.7031 Q114.0938,128.125 113.5,127.8594 Q112.9063,127.5781 112.2813,127.5781 Q110.9375,127.5781 110.25,128.6563 Q109.5625,129.7188 109.5625,131.8125 Q109.5625,133.9063 110.25,134.9844 Q110.9375,136.0469 112.2813,136.0469 Q112.9063,136.0469 113.5,135.7813 Q114.0938,135.5 114.7188,134.9219 L114.7188,137.6406 Z "/><text fill="#000000" font-family="sans-serif" font-size="12" lengthAdjust="spacingAndGlyphs" textLength="92" x="132.25" y="136.1543">NewCityScreen</text><line style="stroke: #A80036; stroke-width: 1.5;" x1="7" x2="317" y1="148" y2="148"/><line style="stroke: #A80036; stroke-width: 1.5;" x1="7" x2="317" y1="156" y2="156"/><ellipse cx="17" cy="167" fill="#84BE84" rx="3" ry="3" style="stroke: #038048; stroke-width: 1.0;"/><text fill="#000000" font-family="sans-serif" font-size="11" lengthAdjust="spacingAndGlyphs" textLength="286" x="26" y="170.2104">InjectStartScreen(_startScreen:StartScreen) : void</text><!--MD5=[f0268dd29ee89052933f031546cb1cab]
class Menu--><rect fill="#FEFECE" filter="url(#f1vbg8ab59ga6l)" height="48" id="Menu" style="stroke: #A80036; stroke-width: 1.5;" width="66" x="129" y="8"/><ellipse cx="144" cy="24" fill="#ADD1B2" rx="11" ry="11" style="stroke: #A80036; stroke-width: 1.0;"/><path d="M146.9688,29.6406 Q146.3906,29.9375 145.75,30.0781 Q145.1094,30.2344 144.4063,30.2344 Q141.9063,30.2344 140.5781,28.5938 Q139.2656,26.9375 139.2656,23.8125 Q139.2656,20.6875 140.5781,19.0313 Q141.9063,17.375 144.4063,17.375 Q145.1094,17.375 145.75,17.5313 Q146.4063,17.6875 146.9688,17.9844 L146.9688,20.7031 Q146.3438,20.125 145.75,19.8594 Q145.1563,19.5781 144.5313,19.5781 Q143.1875,19.5781 142.5,20.6563 Q141.8125,21.7188 141.8125,23.8125 Q141.8125,25.9063 142.5,26.9844 Q143.1875,28.0469 144.5313,28.0469 Q145.1563,28.0469 145.75,27.7813 Q146.3438,27.5 146.9688,26.9219 L146.9688,29.6406 Z "/><text fill="#000000" font-family="sans-serif" font-size="12" lengthAdjust="spacingAndGlyphs" textLength="34" x="158" y="28.1543">Menu</text><line style="stroke: #A80036; stroke-width: 1.5;" x1="130" x2="194" y1="40" y2="40"/><line style="stroke: #A80036; stroke-width: 1.5;" x1="130" x2="194" y1="48" y2="48"/><!--MD5=[efc30a6d6caa9eaa7cf4e08060329d17]
reverse link Menu to NewCityScreen--><path d="M162,76.11 C162,89.31 162,103.54 162,115.65 " fill="none" id="Menu&lt;-NewCityScreen" style="stroke: #A80036; stroke-width: 1.0;"/><polygon fill="none" points="155,76.04,162,56.04,169,76.04,155,76.04" style="stroke: #A80036; stroke-width: 1.0;"/><!--MD5=[865c70b3c5afc207beaf061b686fdfc3]
@startuml
class NewCityScreen {
    + InjectStartScreen(_startScreen:StartScreen) : void
}
Menu <|- - NewCityScreen
@enduml

PlantUML version 1.2020.02(Sun Mar 01 10:22:07 GMT 2020)
(GPL source distribution)
Java Runtime: OpenJDK Runtime Environment
JVM: OpenJDK 64-Bit Server VM
Java Version: 11.0.9+11-Ubuntu-0ubuntu1
Operating System: Linux
Default Encoding: ANSI_X3.4-1968
Language: en
Country: US
--></g></svg>