<?xml version="1.0" encoding="UTF-8" standalone="no"?><svg xmlns="http://www.w3.org/2000/svg" xmlns:xlink="http://www.w3.org/1999/xlink" contentScriptType="application/ecmascript" contentStyleType="text/css" height="226px" preserveAspectRatio="none" style="width:257px;height:226px;" version="1.1" viewBox="0 0 257 226" width="257px" zoomAndPan="magnify"><defs><filter height="300%" id="fir3ok9l312fx" width="300%" x="-1" y="-1"><feGaussianBlur result="blurOut" stdDeviation="2.0"/><feColorMatrix in="blurOut" result="blurOut2" type="matrix" values="0 0 0 0 0 0 0 0 0 0 0 0 0 0 0 0 0 0 .4 0"/><feOffset dx="4.0" dy="4.0" in="blurOut2" result="blurOut3"/><feBlend in="SourceGraphic" in2="blurOut3" mode="normal"/></filter></defs><g><!--MD5=[477b56701d89ec6d9f61b330045e31e1]
class PresetMenu--><rect fill="#FEFECE" filter="url(#fir3ok9l312fx)" height="99.2188" id="PresetMenu" style="stroke: #A80036; stroke-width: 1.5;" width="240" x="6" y="116"/><ellipse cx="84.25" cy="132" fill="#ADD1B2" rx="11" ry="11" style="stroke: #A80036; stroke-width: 1.0;"/><path d="M87.2188,137.6406 Q86.6406,137.9375 86,138.0781 Q85.3594,138.2344 84.6563,138.2344 Q82.1563,138.2344 80.8281,136.5938 Q79.5156,134.9375 79.5156,131.8125 Q79.5156,128.6875 80.8281,127.0313 Q82.1563,125.375 84.6563,125.375 Q85.3594,125.375 86,125.5313 Q86.6563,125.6875 87.2188,125.9844 L87.2188,128.7031 Q86.5938,128.125 86,127.8594 Q85.4063,127.5781 84.7813,127.5781 Q83.4375,127.5781 82.75,128.6563 Q82.0625,129.7188 82.0625,131.8125 Q82.0625,133.9063 82.75,134.9844 Q83.4375,136.0469 84.7813,136.0469 Q85.4063,136.0469 86,135.7813 Q86.5938,135.5 87.2188,134.9219 L87.2188,137.6406 Z "/><text fill="#000000" font-family="sans-serif" font-size="12" lengthAdjust="spacingAndGlyphs" textLength="75" x="104.75" y="136.1543">PresetMenu</text><line style="stroke: #A80036; stroke-width: 1.5;" x1="7" x2="245" y1="148" y2="148"/><line style="stroke: #A80036; stroke-width: 1.5;" x1="7" x2="245" y1="156" y2="156"/><ellipse cx="17" cy="167" fill="#84BE84" rx="3" ry="3" style="stroke: #038048; stroke-width: 1.0;"/><text fill="#000000" font-family="sans-serif" font-size="11" lengthAdjust="spacingAndGlyphs" textLength="103" x="26" y="170.2104">OpenMenu() : void</text><ellipse cx="17" cy="179.8047" fill="#84BE84" rx="3" ry="3" style="stroke: #038048; stroke-width: 1.0;"/><text fill="#000000" font-family="sans-serif" font-size="11" lengthAdjust="spacingAndGlyphs" textLength="105" x="26" y="183.0151">CloseMenu() : void</text><ellipse cx="17" cy="192.6094" fill="#84BE84" rx="3" ry="3" style="stroke: #038048; stroke-width: 1.0;"/><text fill="#000000" font-family="sans-serif" font-size="11" lengthAdjust="spacingAndGlyphs" textLength="83" x="26" y="195.8198">Submit() : void</text><ellipse cx="17" cy="205.4141" fill="#84BE84" rx="3" ry="3" style="stroke: #038048; stroke-width: 1.0;"/><text fill="#000000" font-family="sans-serif" font-size="11" lengthAdjust="spacingAndGlyphs" textLength="214" x="26" y="208.6245">OnCategoryChanged(_index:int) : void</text><!--MD5=[f0268dd29ee89052933f031546cb1cab]
class Menu--><rect fill="#FEFECE" filter="url(#fir3ok9l312fx)" height="48" id="Menu" style="stroke: #A80036; stroke-width: 1.5;" width="66" x="93" y="8"/><ellipse cx="108" cy="24" fill="#ADD1B2" rx="11" ry="11" style="stroke: #A80036; stroke-width: 1.0;"/><path d="M110.9688,29.6406 Q110.3906,29.9375 109.75,30.0781 Q109.1094,30.2344 108.4063,30.2344 Q105.9063,30.2344 104.5781,28.5938 Q103.2656,26.9375 103.2656,23.8125 Q103.2656,20.6875 104.5781,19.0313 Q105.9063,17.375 108.4063,17.375 Q109.1094,17.375 109.75,17.5313 Q110.4063,17.6875 110.9688,17.9844 L110.9688,20.7031 Q110.3438,20.125 109.75,19.8594 Q109.1563,19.5781 108.5313,19.5781 Q107.1875,19.5781 106.5,20.6563 Q105.8125,21.7188 105.8125,23.8125 Q105.8125,25.9063 106.5,26.9844 Q107.1875,28.0469 108.5313,28.0469 Q109.1563,28.0469 109.75,27.7813 Q110.3438,27.5 110.9688,26.9219 L110.9688,29.6406 Z "/><text fill="#000000" font-family="sans-serif" font-size="12" lengthAdjust="spacingAndGlyphs" textLength="34" x="122" y="28.1543">Menu</text><line style="stroke: #A80036; stroke-width: 1.5;" x1="94" x2="158" y1="40" y2="40"/><line style="stroke: #A80036; stroke-width: 1.5;" x1="94" x2="158" y1="48" y2="48"/><!--MD5=[7276839b0fb0b0852bc73e8a4e3f17cc]
reverse link Menu to PresetMenu--><path d="M126,76.51 C126,89.14 126,103.01 126,115.93 " fill="none" id="Menu&lt;-PresetMenu" style="stroke: #A80036; stroke-width: 1.0;"/><polygon fill="none" points="119,76.21,126,56.21,133,76.21,119,76.21" style="stroke: #A80036; stroke-width: 1.0;"/><!--MD5=[812afd6f760bd870fc9ae5dc8c3439f6]
@startuml
class PresetMenu {
    + OpenMenu() : void
    + CloseMenu() : void
    + Submit() : void
    + OnCategoryChanged(_index:int) : void
}
Menu <|- - PresetMenu
@enduml

PlantUML version 1.2020.02(Sun Mar 01 10:22:07 GMT 2020)
(GPL source distribution)
Java Runtime: OpenJDK Runtime Environment
JVM: OpenJDK 64-Bit Server VM
Java Version: 11.0.9+11-Ubuntu-0ubuntu1
Operating System: Linux
Default Encoding: ANSI_X3.4-1968
Language: en
Country: US
--></g></svg>