<?xml version="1.0" encoding="UTF-8" standalone="no"?><svg xmlns="http://www.w3.org/2000/svg" xmlns:xlink="http://www.w3.org/1999/xlink" contentScriptType="application/ecmascript" contentStyleType="text/css" height="200px" preserveAspectRatio="none" style="width:362px;height:200px;" version="1.1" viewBox="0 0 362 200" width="362px" zoomAndPan="magnify"><defs><filter height="300%" id="f12c7yrbpuv8mg" width="300%" x="-1" y="-1"><feGaussianBlur result="blurOut" stdDeviation="2.0"/><feColorMatrix in="blurOut" result="blurOut2" type="matrix" values="0 0 0 0 0 0 0 0 0 0 0 0 0 0 0 0 0 0 .4 0"/><feOffset dx="4.0" dy="4.0" in="blurOut2" result="blurOut3"/><feBlend in="SourceGraphic" in2="blurOut3" mode="normal"/></filter></defs><g><!--MD5=[1bb0da9f24b4bc379248b857e98e0577]
class Raycaster--><rect fill="#FEFECE" filter="url(#f12c7yrbpuv8mg)" height="73.6094" id="Raycaster" style="stroke: #A80036; stroke-width: 1.5;" width="345" x="6" y="116"/><ellipse cx="143.25" cy="132" fill="#ADD1B2" rx="11" ry="11" style="stroke: #A80036; stroke-width: 1.0;"/><path d="M146.2188,137.6406 Q145.6406,137.9375 145,138.0781 Q144.3594,138.2344 143.6563,138.2344 Q141.1563,138.2344 139.8281,136.5938 Q138.5156,134.9375 138.5156,131.8125 Q138.5156,128.6875 139.8281,127.0313 Q141.1563,125.375 143.6563,125.375 Q144.3594,125.375 145,125.5313 Q145.6563,125.6875 146.2188,125.9844 L146.2188,128.7031 Q145.5938,128.125 145,127.8594 Q144.4063,127.5781 143.7813,127.5781 Q142.4375,127.5781 141.75,128.6563 Q141.0625,129.7188 141.0625,131.8125 Q141.0625,133.9063 141.75,134.9844 Q142.4375,136.0469 143.7813,136.0469 Q144.4063,136.0469 145,135.7813 Q145.5938,135.5 146.2188,134.9219 L146.2188,137.6406 Z "/><text fill="#000000" font-family="sans-serif" font-size="12" lengthAdjust="spacingAndGlyphs" textLength="62" x="163.75" y="136.1543">Raycaster</text><line style="stroke: #A80036; stroke-width: 1.5;" x1="7" x2="350" y1="148" y2="148"/><ellipse cx="17" cy="159" fill="none" rx="3" ry="3" style="stroke: #038048; stroke-width: 1.0;"/><text fill="#000000" font-family="sans-serif" font-size="11" lengthAdjust="spacingAndGlyphs" textLength="149" x="26" y="162.2104">raycastRange : float = 50f</text><line style="stroke: #A80036; stroke-width: 1.5;" x1="7" x2="350" y1="168.8047" y2="168.8047"/><ellipse cx="17" cy="179.8047" fill="#84BE84" rx="3" ry="3" style="stroke: #038048; stroke-width: 1.0;"/><text fill="#000000" font-family="sans-serif" font-size="11" lengthAdjust="spacingAndGlyphs" textLength="319" x="26" y="183.0151">GetRaycastHit(_hit:RaycastHit, _layers:LayerMask) : bool</text><!--MD5=[faa1de4d7b17b110bcca917d9add068e]
class Singleton`1--><rect fill="#FEFECE" filter="url(#f12c7yrbpuv8mg)" height="48" id="Singleton`1" style="stroke: #A80036; stroke-width: 1.5;" width="116" x="120.5" y="8"/><ellipse cx="135.5" cy="24" fill="#ADD1B2" rx="11" ry="11" style="stroke: #A80036; stroke-width: 1.0;"/><path d="M138.4688,29.6406 Q137.8906,29.9375 137.25,30.0781 Q136.6094,30.2344 135.9063,30.2344 Q133.4063,30.2344 132.0781,28.5938 Q130.7656,26.9375 130.7656,23.8125 Q130.7656,20.6875 132.0781,19.0313 Q133.4063,17.375 135.9063,17.375 Q136.6094,17.375 137.25,17.5313 Q137.9063,17.6875 138.4688,17.9844 L138.4688,20.7031 Q137.8438,20.125 137.25,19.8594 Q136.6563,19.5781 136.0313,19.5781 Q134.6875,19.5781 134,20.6563 Q133.3125,21.7188 133.3125,23.8125 Q133.3125,25.9063 134,26.9844 Q134.6875,28.0469 136.0313,28.0469 Q136.6563,28.0469 137.25,27.7813 Q137.8438,27.5 138.4688,26.9219 L138.4688,29.6406 Z "/><text fill="#000000" font-family="sans-serif" font-size="12" lengthAdjust="spacingAndGlyphs" textLength="73" x="149.5" y="28.1543">Singleton`1</text><rect fill="#FFFFFF" height="15.9688" style="stroke: #000000; stroke-width: 1.0; stroke-dasharray: 2.0,2.0;" width="9" x="230.5" y="5"/><text fill="#000000" font-family="sans-serif" font-size="12" font-style="italic" lengthAdjust="spacingAndGlyphs" textLength="7" x="231.5" y="17.1387">T</text><line style="stroke: #A80036; stroke-width: 1.5;" x1="121.5" x2="235.5" y1="40" y2="40"/><line style="stroke: #A80036; stroke-width: 1.5;" x1="121.5" x2="235.5" y1="48" y2="48"/><!--MD5=[9c932b03c8daaf84578dd3de7c73eeb7]
reverse link Singleton`1 to Raycaster--><path d="M178.5,76.43 C178.5,89.33 178.5,103.32 178.5,115.71 " fill="none" id="Singleton`1&lt;-Raycaster" style="stroke: #A80036; stroke-width: 1.0;"/><polygon fill="none" points="171.5,76.23,178.5,56.23,185.5,76.23,171.5,76.23" style="stroke: #A80036; stroke-width: 1.0;"/><text fill="#000000" font-family="sans-serif" font-size="13" lengthAdjust="spacingAndGlyphs" textLength="85" x="83.1406" y="76.0473">&lt;Raycaster&gt;</text><!--MD5=[e5986e24aca5b04ce26d7d091c369e85]
@startuml
class Raycaster {
    + raycastRange : float = 50f
    + GetRaycastHit(_hit:RaycastHit, _layers:LayerMask) : bool
}
class "Singleton`1"<T> {
}
"Singleton`1" "<Raycaster>" <|- - Raycaster
@enduml

PlantUML version 1.2020.02(Sun Mar 01 10:22:07 GMT 2020)
(GPL source distribution)
Java Runtime: OpenJDK Runtime Environment
JVM: OpenJDK 64-Bit Server VM
Java Version: 11.0.9+11-Ubuntu-0ubuntu1
Operating System: Linux
Default Encoding: ANSI_X3.4-1968
Language: en
Country: US
--></g></svg>