<?xml version="1.0" encoding="UTF-8" standalone="no"?><svg xmlns="http://www.w3.org/2000/svg" xmlns:xlink="http://www.w3.org/1999/xlink" contentScriptType="application/ecmascript" contentStyleType="text/css" height="187px" preserveAspectRatio="none" style="width:148px;height:187px;" version="1.1" viewBox="0 0 148 187" width="148px" zoomAndPan="magnify"><defs><filter height="300%" id="f2d9m30fxwg9o" width="300%" x="-1" y="-1"><feGaussianBlur result="blurOut" stdDeviation="2.0"/><feColorMatrix in="blurOut" result="blurOut2" type="matrix" values="0 0 0 0 0 0 0 0 0 0 0 0 0 0 0 0 0 0 .4 0"/><feOffset dx="4.0" dy="4.0" in="blurOut2" result="blurOut3"/><feBlend in="SourceGraphic" in2="blurOut3" mode="normal"/></filter></defs><g><!--MD5=[6c426b7e3eaa64159d53deac1442a992]
class StartScreen--><rect fill="#FEFECE" filter="url(#f2d9m30fxwg9o)" height="60.8047" id="StartScreen" style="stroke: #A80036; stroke-width: 1.5;" width="131" x="6" y="116"/><ellipse cx="31.8" cy="132" fill="#ADD1B2" rx="11" ry="11" style="stroke: #A80036; stroke-width: 1.0;"/><path d="M34.7688,137.6406 Q34.1906,137.9375 33.55,138.0781 Q32.9094,138.2344 32.2063,138.2344 Q29.7063,138.2344 28.3781,136.5938 Q27.0656,134.9375 27.0656,131.8125 Q27.0656,128.6875 28.3781,127.0313 Q29.7063,125.375 32.2063,125.375 Q32.9094,125.375 33.55,125.5313 Q34.2063,125.6875 34.7688,125.9844 L34.7688,128.7031 Q34.1438,128.125 33.55,127.8594 Q32.9563,127.5781 32.3313,127.5781 Q30.9875,127.5781 30.3,128.6563 Q29.6125,129.7188 29.6125,131.8125 Q29.6125,133.9063 30.3,134.9844 Q30.9875,136.0469 32.3313,136.0469 Q32.9563,136.0469 33.55,135.7813 Q34.1438,135.5 34.7688,134.9219 L34.7688,137.6406 Z "/><text fill="#000000" font-family="sans-serif" font-size="12" lengthAdjust="spacingAndGlyphs" textLength="75" x="48.2" y="136.1543">StartScreen</text><line style="stroke: #A80036; stroke-width: 1.5;" x1="7" x2="136" y1="148" y2="148"/><line style="stroke: #A80036; stroke-width: 1.5;" x1="7" x2="136" y1="156" y2="156"/><ellipse cx="17" cy="167" fill="#84BE84" rx="3" ry="3" style="stroke: #038048; stroke-width: 1.0;"/><text fill="#000000" font-family="sans-serif" font-size="11" lengthAdjust="spacingAndGlyphs" textLength="105" x="26" y="170.2104">CloseMenu() : void</text><!--MD5=[f0268dd29ee89052933f031546cb1cab]
class Menu--><rect fill="#FEFECE" filter="url(#f2d9m30fxwg9o)" height="48" id="Menu" style="stroke: #A80036; stroke-width: 1.5;" width="66" x="38.5" y="8"/><ellipse cx="53.5" cy="24" fill="#ADD1B2" rx="11" ry="11" style="stroke: #A80036; stroke-width: 1.0;"/><path d="M56.4688,29.6406 Q55.8906,29.9375 55.25,30.0781 Q54.6094,30.2344 53.9063,30.2344 Q51.4063,30.2344 50.0781,28.5938 Q48.7656,26.9375 48.7656,23.8125 Q48.7656,20.6875 50.0781,19.0313 Q51.4063,17.375 53.9063,17.375 Q54.6094,17.375 55.25,17.5313 Q55.9063,17.6875 56.4688,17.9844 L56.4688,20.7031 Q55.8438,20.125 55.25,19.8594 Q54.6563,19.5781 54.0313,19.5781 Q52.6875,19.5781 52,20.6563 Q51.3125,21.7188 51.3125,23.8125 Q51.3125,25.9063 52,26.9844 Q52.6875,28.0469 54.0313,28.0469 Q54.6563,28.0469 55.25,27.7813 Q55.8438,27.5 56.4688,26.9219 L56.4688,29.6406 Z "/><text fill="#000000" font-family="sans-serif" font-size="12" lengthAdjust="spacingAndGlyphs" textLength="34" x="67.5" y="28.1543">Menu</text><line style="stroke: #A80036; stroke-width: 1.5;" x1="39.5" x2="103.5" y1="40" y2="40"/><line style="stroke: #A80036; stroke-width: 1.5;" x1="39.5" x2="103.5" y1="48" y2="48"/><!--MD5=[718895ccf0b7da7cda748009f0e0df34]
reverse link Menu to StartScreen--><path d="M71.5,76.11 C71.5,89.31 71.5,103.54 71.5,115.65 " fill="none" id="Menu&lt;-StartScreen" style="stroke: #A80036; stroke-width: 1.0;"/><polygon fill="none" points="64.5,76.04,71.5,56.04,78.5,76.04,64.5,76.04" style="stroke: #A80036; stroke-width: 1.0;"/><!--MD5=[189952bdf76688f1eb258f0745fe08bd]
@startuml
class StartScreen {
    + CloseMenu() : void
}
Menu <|- - StartScreen
@enduml

PlantUML version 1.2020.02(Sun Mar 01 10:22:07 GMT 2020)
(GPL source distribution)
Java Runtime: OpenJDK Runtime Environment
JVM: OpenJDK 64-Bit Server VM
Java Version: 11.0.9+11-Ubuntu-0ubuntu1
Operating System: Linux
Default Encoding: ANSI_X3.4-1968
Language: en
Country: US
--></g></svg>