<?xml version="1.0" encoding="UTF-8" standalone="no"?><svg xmlns="http://www.w3.org/2000/svg" xmlns:xlink="http://www.w3.org/1999/xlink" contentScriptType="application/ecmascript" contentStyleType="text/css" height="84px" preserveAspectRatio="none" style="width:408px;height:84px;" version="1.1" viewBox="0 0 408 84" width="408px" zoomAndPan="magnify"><defs><filter height="300%" id="f184mrcjj58g6t" width="300%" x="-1" y="-1"><feGaussianBlur result="blurOut" stdDeviation="2.0"/><feColorMatrix in="blurOut" result="blurOut2" type="matrix" values="0 0 0 0 0 0 0 0 0 0 0 0 0 0 0 0 0 0 .4 0"/><feOffset dx="4.0" dy="4.0" in="blurOut2" result="blurOut3"/><feBlend in="SourceGraphic" in2="blurOut3" mode="normal"/></filter></defs><g><!--MD5=[6bd164142723d5ad2c6599b02b95d38e]
class PngToSprite--><rect fill="#FEFECE" filter="url(#f184mrcjj58g6t)" height="66.7422" id="PngToSprite" style="stroke: #A80036; stroke-width: 1.5;" width="390" x="7" y="7"/><ellipse cx="159.75" cy="25.9688" fill="#ADD1B2" rx="11" ry="11" style="stroke: #A80036; stroke-width: 1.0;"/><path d="M162.7188,31.6094 Q162.1406,31.9063 161.5,32.0469 Q160.8594,32.2031 160.1563,32.2031 Q157.6563,32.2031 156.3281,30.5625 Q155.0156,28.9063 155.0156,25.7813 Q155.0156,22.6563 156.3281,21 Q157.6563,19.3438 160.1563,19.3438 Q160.8594,19.3438 161.5,19.5 Q162.1563,19.6563 162.7188,19.9531 L162.7188,22.6719 Q162.0938,22.0938 161.5,21.8281 Q160.9063,21.5469 160.2813,21.5469 Q158.9375,21.5469 158.25,22.625 Q157.5625,23.6875 157.5625,25.7813 Q157.5625,27.875 158.25,28.9531 Q158.9375,30.0156 160.2813,30.0156 Q160.9063,30.0156 161.5,29.75 Q162.0938,29.4688 162.7188,28.8906 L162.7188,31.6094 Z "/><text fill="#000000" font-family="sans-serif" font-size="12" font-style="italic" lengthAdjust="spacingAndGlyphs" textLength="48" x="194.25" y="23.1387">«static»</text><text fill="#000000" font-family="sans-serif" font-size="12" lengthAdjust="spacingAndGlyphs" textLength="76" x="180.25" y="37.1074">PngToSprite</text><line style="stroke: #A80036; stroke-width: 1.5;" x1="8" x2="396" y1="44.9375" y2="44.9375"/><line style="stroke: #A80036; stroke-width: 1.5;" x1="8" x2="396" y1="52.9375" y2="52.9375"/><ellipse cx="18" cy="63.9375" fill="#84BE84" rx="3" ry="3" style="stroke: #038048; stroke-width: 1.0;"/><text fill="#000000" font-family="sans-serif" font-size="11" lengthAdjust="spacingAndGlyphs" text-decoration="underline" textLength="364" x="27" y="67.1479">ConvertToSprite(_width:int, _height:int, _pngPath:string) : Sprite</text><!--MD5=[1234f6674ff8ab8f630d018e3b987aa1]
@startuml
class PngToSprite <<static>> {
    + {static} ConvertToSprite(_width:int, _height:int, _pngPath:string) : Sprite
}
@enduml

PlantUML version 1.2020.02(Sun Mar 01 10:22:07 GMT 2020)
(GPL source distribution)
Java Runtime: OpenJDK Runtime Environment
JVM: OpenJDK 64-Bit Server VM
Java Version: 11.0.9+11-Ubuntu-0ubuntu1
Operating System: Linux
Default Encoding: ANSI_X3.4-1968
Language: en
Country: US
--></g></svg>