<?xml version="1.0" encoding="UTF-8" standalone="no"?><svg xmlns="http://www.w3.org/2000/svg" xmlns:xlink="http://www.w3.org/1999/xlink" contentScriptType="application/ecmascript" contentStyleType="text/css" height="239px" preserveAspectRatio="none" style="width:806px;height:239px;" version="1.1" viewBox="0 0 806 239" width="806px" zoomAndPan="magnify"><defs><filter height="300%" id="fquy09he9uf7o" width="300%" x="-1" y="-1"><feGaussianBlur result="blurOut" stdDeviation="2.0"/><feColorMatrix in="blurOut" result="blurOut2" type="matrix" values="0 0 0 0 0 0 0 0 0 0 0 0 0 0 0 0 0 0 .4 0"/><feOffset dx="4.0" dy="4.0" in="blurOut2" result="blurOut3"/><feBlend in="SourceGraphic" in2="blurOut3" mode="normal"/></filter></defs><g><!--MD5=[d94e578a31f682f8e0b29ba80cd8e856]
class ScreenshotManager--><rect fill="#FEFECE" filter="url(#fquy09he9uf7o)" height="112.0234" id="ScreenshotManager" style="stroke: #A80036; stroke-width: 1.5;" width="409" x="6" y="116"/><ellipse cx="142.75" cy="132" fill="#ADD1B2" rx="11" ry="11" style="stroke: #A80036; stroke-width: 1.0;"/><path d="M145.7188,137.6406 Q145.1406,137.9375 144.5,138.0781 Q143.8594,138.2344 143.1563,138.2344 Q140.6563,138.2344 139.3281,136.5938 Q138.0156,134.9375 138.0156,131.8125 Q138.0156,128.6875 139.3281,127.0313 Q140.6563,125.375 143.1563,125.375 Q143.8594,125.375 144.5,125.5313 Q145.1563,125.6875 145.7188,125.9844 L145.7188,128.7031 Q145.0938,128.125 144.5,127.8594 Q143.9063,127.5781 143.2813,127.5781 Q141.9375,127.5781 141.25,128.6563 Q140.5625,129.7188 140.5625,131.8125 Q140.5625,133.9063 141.25,134.9844 Q141.9375,136.0469 143.2813,136.0469 Q143.9063,136.0469 144.5,135.7813 Q145.0938,135.5 145.7188,134.9219 L145.7188,137.6406 Z "/><text fill="#000000" font-family="sans-serif" font-size="12" lengthAdjust="spacingAndGlyphs" textLength="127" x="163.25" y="136.1543">ScreenshotManager</text><line style="stroke: #A80036; stroke-width: 1.5;" x1="7" x2="414" y1="148" y2="148"/><line style="stroke: #A80036; stroke-width: 1.5;" x1="7" x2="414" y1="156" y2="156"/><ellipse cx="17" cy="167" fill="#84BE84" rx="3" ry="3" style="stroke: #038048; stroke-width: 1.0;"/><text fill="#000000" font-family="sans-serif" font-size="11" lengthAdjust="spacingAndGlyphs" textLength="294" x="26" y="170.2104">ScreenshotAllPresets(_presets:List&lt;Preset&gt;) : void</text><ellipse cx="17" cy="179.8047" fill="#84BE84" rx="3" ry="3" style="stroke: #038048; stroke-width: 1.0;"/><text fill="#000000" font-family="sans-serif" font-size="11" lengthAdjust="spacingAndGlyphs" textLength="383" x="26" y="183.0151">ScreenshotAllPresetsRoutine(_presets:List&lt;Preset&gt;) : IEnumerator</text><ellipse cx="17" cy="192.6094" fill="#84BE84" rx="3" ry="3" style="stroke: #038048; stroke-width: 1.0;"/><text fill="#000000" font-family="sans-serif" font-size="11" lengthAdjust="spacingAndGlyphs" textLength="197" x="26" y="195.8198">AddScreenshot(value:object) : void</text><ellipse cx="17" cy="205.4141" fill="#84BE84" rx="3" ry="3" style="stroke: #038048; stroke-width: 1.0;"/><text fill="#000000" font-family="sans-serif" font-size="11" lengthAdjust="spacingAndGlyphs" textLength="361" x="26" y="208.6245">TakeScreenshot(_preset:Preset, _onDone:Action) : IEnumerator</text><ellipse cx="17" cy="218.2188" fill="#84BE84" rx="3" ry="3" style="stroke: #038048; stroke-width: 1.0;"/><text fill="#000000" font-family="sans-serif" font-size="11" lengthAdjust="spacingAndGlyphs" textLength="225" x="26" y="221.4292">FindThumbnailTaker() : ThumbnailTaker</text><!--MD5=[faa1de4d7b17b110bcca917d9add068e]
class Singleton`1--><rect fill="#FEFECE" filter="url(#fquy09he9uf7o)" height="48" id="Singleton`1" style="stroke: #A80036; stroke-width: 1.5;" width="116" x="152.5" y="8"/><ellipse cx="167.5" cy="24" fill="#ADD1B2" rx="11" ry="11" style="stroke: #A80036; stroke-width: 1.0;"/><path d="M170.4688,29.6406 Q169.8906,29.9375 169.25,30.0781 Q168.6094,30.2344 167.9063,30.2344 Q165.4063,30.2344 164.0781,28.5938 Q162.7656,26.9375 162.7656,23.8125 Q162.7656,20.6875 164.0781,19.0313 Q165.4063,17.375 167.9063,17.375 Q168.6094,17.375 169.25,17.5313 Q169.9063,17.6875 170.4688,17.9844 L170.4688,20.7031 Q169.8438,20.125 169.25,19.8594 Q168.6563,19.5781 168.0313,19.5781 Q166.6875,19.5781 166,20.6563 Q165.3125,21.7188 165.3125,23.8125 Q165.3125,25.9063 166,26.9844 Q166.6875,28.0469 168.0313,28.0469 Q168.6563,28.0469 169.25,27.7813 Q169.8438,27.5 170.4688,26.9219 L170.4688,29.6406 Z "/><text fill="#000000" font-family="sans-serif" font-size="12" lengthAdjust="spacingAndGlyphs" textLength="73" x="181.5" y="28.1543">Singleton`1</text><rect fill="#FFFFFF" height="15.9688" style="stroke: #000000; stroke-width: 1.0; stroke-dasharray: 2.0,2.0;" width="9" x="262.5" y="5"/><text fill="#000000" font-family="sans-serif" font-size="12" font-style="italic" lengthAdjust="spacingAndGlyphs" textLength="7" x="263.5" y="17.1387">T</text><line style="stroke: #A80036; stroke-width: 1.5;" x1="153.5" x2="267.5" y1="40" y2="40"/><line style="stroke: #A80036; stroke-width: 1.5;" x1="153.5" x2="267.5" y1="48" y2="48"/><!--MD5=[2e1ff885372daab8d802f213ced6c836]
class Dictionary`2--><rect fill="#FEFECE" filter="url(#fquy09he9uf7o)" height="48" id="Dictionary`2" style="stroke: #A80036; stroke-width: 1.5;" width="146" x="450.5" y="148"/><ellipse cx="465.5" cy="164" fill="#ADD1B2" rx="11" ry="11" style="stroke: #A80036; stroke-width: 1.0;"/><path d="M468.4688,169.6406 Q467.8906,169.9375 467.25,170.0781 Q466.6094,170.2344 465.9063,170.2344 Q463.4063,170.2344 462.0781,168.5938 Q460.7656,166.9375 460.7656,163.8125 Q460.7656,160.6875 462.0781,159.0313 Q463.4063,157.375 465.9063,157.375 Q466.6094,157.375 467.25,157.5313 Q467.9063,157.6875 468.4688,157.9844 L468.4688,160.7031 Q467.8438,160.125 467.25,159.8594 Q466.6563,159.5781 466.0313,159.5781 Q464.6875,159.5781 464,160.6563 Q463.3125,161.7188 463.3125,163.8125 Q463.3125,165.9063 464,166.9844 Q464.6875,168.0469 466.0313,168.0469 Q466.6563,168.0469 467.25,167.7813 Q467.8438,167.5 468.4688,166.9219 L468.4688,169.6406 Z "/><text fill="#000000" font-family="sans-serif" font-size="12" lengthAdjust="spacingAndGlyphs" textLength="76" x="479.5" y="168.1543">Dictionary`2</text><rect fill="#FFFFFF" height="15.9688" style="stroke: #000000; stroke-width: 1.0; stroke-dasharray: 2.0,2.0;" width="36" x="563.5" y="145"/><text fill="#000000" font-family="sans-serif" font-size="12" font-style="italic" lengthAdjust="spacingAndGlyphs" textLength="34" x="564.5" y="157.1387">T1,T2</text><line style="stroke: #A80036; stroke-width: 1.5;" x1="451.5" x2="595.5" y1="180" y2="180"/><line style="stroke: #A80036; stroke-width: 1.5;" x1="451.5" x2="595.5" y1="188" y2="188"/><!--MD5=[27513aaea2a95a254b1bf74e0ded5391]
reverse link Singleton`1 to ScreenshotManager--><path d="M210.5,76.25 C210.5,88.82 210.5,102.73 210.5,115.93 " fill="none" id="Singleton`1&lt;-ScreenshotManager" style="stroke: #A80036; stroke-width: 1.0;"/><polygon fill="none" points="203.5,76.1,210.5,56.1,217.5,76.1,203.5,76.1" style="stroke: #A80036; stroke-width: 1.0;"/><text fill="#000000" font-family="sans-serif" font-size="13" lengthAdjust="spacingAndGlyphs" textLength="151" x="41.0969" y="75.8856">&lt;ScreenshotManager&gt;</text><!--MD5=[e7b951033e8716da317ac0cd471cf79e]
link ScreenshotManager to Dictionary`2--><path d="M427.29,172 C427.29,172 434.39,172 437.36,172 " fill="none" id="ScreenshotManager-Dictionary`2" style="stroke: #A80036; stroke-width: 1.0;"/><polygon fill="#A80036" points="450.38,172,441.38,168,445.38,172,441.38,176,450.38,172" style="stroke: #A80036; stroke-width: 1.0;"/><line style="stroke: #A80036; stroke-width: 1.0;" x1="445.38" x2="437.38" y1="172" y2="172"/><polygon fill="#FFFFFF" points="415.29,172,421.29,176,427.29,172,421.29,168,415.29,172" style="stroke: #A80036; stroke-width: 1.0;"/><text fill="#000000" font-family="sans-serif" font-size="13" lengthAdjust="spacingAndGlyphs" textLength="209" x="585.314" y="216.6024">presetSpriteDict&lt;Preset,Sprite&gt;</text><!--MD5=[39a756a05c4b198a350bdbca55a39323]
@startuml
class ScreenshotManager {
    + ScreenshotAllPresets(_presets:List<Preset>) : void
    + ScreenshotAllPresetsRoutine(_presets:List<Preset>) : IEnumerator
    + AddScreenshot(value:object) : void
    + TakeScreenshot(_preset:Preset, _onDone:Action) : IEnumerator
    + FindThumbnailTaker() : ThumbnailTaker
}
class "Singleton`1"<T> {
}
class "Dictionary`2"<T1,T2> {
}
"Singleton`1" "<ScreenshotManager>" <|- - ScreenshotManager
ScreenshotManager o-> "presetSpriteDict<Preset,Sprite>" "Dictionary`2"
@enduml

PlantUML version 1.2020.02(Sun Mar 01 10:22:07 GMT 2020)
(GPL source distribution)
Java Runtime: OpenJDK Runtime Environment
JVM: OpenJDK 64-Bit Server VM
Java Version: 11.0.9+11-Ubuntu-0ubuntu1
Operating System: Linux
Default Encoding: ANSI_X3.4-1968
Language: en
Country: US
--></g></svg>