<?xml version="1.0" encoding="UTF-8" standalone="no"?><svg xmlns="http://www.w3.org/2000/svg" xmlns:xlink="http://www.w3.org/1999/xlink" contentScriptType="application/ecmascript" contentStyleType="text/css" height="213px" preserveAspectRatio="none" style="width:544px;height:213px;" version="1.1" viewBox="0 0 544 213" width="544px" zoomAndPan="magnify"><defs><filter height="300%" id="f1isygujvj23a2" width="300%" x="-1" y="-1"><feGaussianBlur result="blurOut" stdDeviation="2.0"/><feColorMatrix in="blurOut" result="blurOut2" type="matrix" values="0 0 0 0 0 0 0 0 0 0 0 0 0 0 0 0 0 0 .4 0"/><feOffset dx="4.0" dy="4.0" in="blurOut2" result="blurOut3"/><feBlend in="SourceGraphic" in2="blurOut3" mode="normal"/></filter></defs><g><!--MD5=[cb61fc8ffcbee1f12bd7c55ffd3887a6]
class ThumbnailTaker--><rect fill="#FEFECE" filter="url(#f1isygujvj23a2)" height="86.4141" id="ThumbnailTaker" style="stroke: #A80036; stroke-width: 1.5;" width="527" x="6" y="116"/><ellipse cx="215.75" cy="132" fill="#ADD1B2" rx="11" ry="11" style="stroke: #A80036; stroke-width: 1.0;"/><path d="M218.7188,137.6406 Q218.1406,137.9375 217.5,138.0781 Q216.8594,138.2344 216.1563,138.2344 Q213.6563,138.2344 212.3281,136.5938 Q211.0156,134.9375 211.0156,131.8125 Q211.0156,128.6875 212.3281,127.0313 Q213.6563,125.375 216.1563,125.375 Q216.8594,125.375 217.5,125.5313 Q218.1563,125.6875 218.7188,125.9844 L218.7188,128.7031 Q218.0938,128.125 217.5,127.8594 Q216.9063,127.5781 216.2813,127.5781 Q214.9375,127.5781 214.25,128.6563 Q213.5625,129.7188 213.5625,131.8125 Q213.5625,133.9063 214.25,134.9844 Q214.9375,136.0469 216.2813,136.0469 Q216.9063,136.0469 217.5,135.7813 Q218.0938,135.5 218.7188,134.9219 L218.7188,137.6406 Z "/><text fill="#000000" font-family="sans-serif" font-size="12" lengthAdjust="spacingAndGlyphs" textLength="99" x="236.25" y="136.1543">ThumbnailTaker</text><line style="stroke: #A80036; stroke-width: 1.5;" x1="7" x2="532" y1="148" y2="148"/><ellipse cx="17" cy="159" fill="none" rx="3" ry="3" style="stroke: #038048; stroke-width: 1.0;"/><text fill="#000000" font-family="sans-serif" font-size="11" lengthAdjust="spacingAndGlyphs" textLength="158" x="26" y="162.2104">screenshotWidth : int = 512</text><ellipse cx="17" cy="171.8047" fill="none" rx="3" ry="3" style="stroke: #038048; stroke-width: 1.0;"/><text fill="#000000" font-family="sans-serif" font-size="11" lengthAdjust="spacingAndGlyphs" textLength="164" x="26" y="175.0151">screenshotHeight : int = 512</text><line style="stroke: #A80036; stroke-width: 1.5;" x1="7" x2="532" y1="181.6094" y2="181.6094"/><ellipse cx="17" cy="192.6094" fill="#84BE84" rx="3" ry="3" style="stroke: #038048; stroke-width: 1.0;"/><text fill="#000000" font-family="sans-serif" font-size="11" lengthAdjust="spacingAndGlyphs" textLength="501" x="26" y="195.8198">TakeScreenshot(_targetObject:GameObject, _presetName:string, _onDone:Action) : void</text><!--MD5=[83b3cf3d23d77c6f1e1b5291a241bc2a]
class MonoBehaviour--><rect fill="#FEFECE" filter="url(#f1isygujvj23a2)" height="48" id="MonoBehaviour" style="stroke: #A80036; stroke-width: 1.5;" width="128" x="205.5" y="8"/><ellipse cx="220.5" cy="24" fill="#ADD1B2" rx="11" ry="11" style="stroke: #A80036; stroke-width: 1.0;"/><path d="M223.4688,29.6406 Q222.8906,29.9375 222.25,30.0781 Q221.6094,30.2344 220.9063,30.2344 Q218.4063,30.2344 217.0781,28.5938 Q215.7656,26.9375 215.7656,23.8125 Q215.7656,20.6875 217.0781,19.0313 Q218.4063,17.375 220.9063,17.375 Q221.6094,17.375 222.25,17.5313 Q222.9063,17.6875 223.4688,17.9844 L223.4688,20.7031 Q222.8438,20.125 222.25,19.8594 Q221.6563,19.5781 221.0313,19.5781 Q219.6875,19.5781 219,20.6563 Q218.3125,21.7188 218.3125,23.8125 Q218.3125,25.9063 219,26.9844 Q219.6875,28.0469 221.0313,28.0469 Q221.6563,28.0469 222.25,27.7813 Q222.8438,27.5 223.4688,26.9219 L223.4688,29.6406 Z "/><text fill="#000000" font-family="sans-serif" font-size="12" lengthAdjust="spacingAndGlyphs" textLength="96" x="234.5" y="28.1543">MonoBehaviour</text><line style="stroke: #A80036; stroke-width: 1.5;" x1="206.5" x2="332.5" y1="40" y2="40"/><line style="stroke: #A80036; stroke-width: 1.5;" x1="206.5" x2="332.5" y1="48" y2="48"/><!--MD5=[4b4652dd90fd2ecc2869349baa6c56c2]
reverse link MonoBehaviour to ThumbnailTaker--><path d="M269.5,76.27 C269.5,89.12 269.5,103.17 269.5,115.94 " fill="none" id="MonoBehaviour&lt;-ThumbnailTaker" style="stroke: #A80036; stroke-width: 1.0;"/><polygon fill="none" points="262.5,76.22,269.5,56.22,276.5,76.22,262.5,76.22" style="stroke: #A80036; stroke-width: 1.0;"/><!--MD5=[ba033e9cf0655107e43a80bc478d0188]
@startuml
class ThumbnailTaker {
    + screenshotWidth : int = 512
    + screenshotHeight : int = 512
    + TakeScreenshot(_targetObject:GameObject, _presetName:string, _onDone:Action) : void
}
MonoBehaviour <|- - ThumbnailTaker
@enduml

PlantUML version 1.2020.02(Sun Mar 01 10:22:07 GMT 2020)
(GPL source distribution)
Java Runtime: OpenJDK Runtime Environment
JVM: OpenJDK 64-Bit Server VM
Java Version: 11.0.9+11-Ubuntu-0ubuntu1
Operating System: Linux
Default Encoding: ANSI_X3.4-1968
Language: en
Country: US
--></g></svg>