<?xml version="1.0" encoding="UTF-8" standalone="no"?><svg xmlns="http://www.w3.org/2000/svg" xmlns:xlink="http://www.w3.org/1999/xlink" contentScriptType="application/ecmascript" contentStyleType="text/css" height="283px" preserveAspectRatio="none" style="width:310px;height:283px;" version="1.1" viewBox="0 0 310 283" width="310px" zoomAndPan="magnify"><defs><filter height="300%" id="fr2lv4eo0osu9" width="300%" x="-1" y="-1"><feGaussianBlur result="blurOut" stdDeviation="2.0"/><feColorMatrix in="blurOut" result="blurOut2" type="matrix" values="0 0 0 0 0 0 0 0 0 0 0 0 0 0 0 0 0 0 .4 0"/><feOffset dx="4.0" dy="4.0" in="blurOut2" result="blurOut3"/><feBlend in="SourceGraphic" in2="blurOut3" mode="normal"/></filter></defs><g><!--MD5=[2d472bb88226222c40f3e65e6f97c21d]
class TabButton--><rect fill="#FEFECE" filter="url(#fr2lv4eo0osu9)" height="48" id="TabButton" style="stroke: #A80036; stroke-width: 1.5;" width="97" x="77.74" y="116"/><ellipse cx="92.74" cy="132" fill="#ADD1B2" rx="11" ry="11" style="stroke: #A80036; stroke-width: 1.0;"/><path d="M95.7088,137.6406 Q95.1306,137.9375 94.49,138.0781 Q93.8494,138.2344 93.1463,138.2344 Q90.6463,138.2344 89.3181,136.5938 Q88.0056,134.9375 88.0056,131.8125 Q88.0056,128.6875 89.3181,127.0313 Q90.6463,125.375 93.1463,125.375 Q93.8494,125.375 94.49,125.5313 Q95.1463,125.6875 95.7088,125.9844 L95.7088,128.7031 Q95.0838,128.125 94.49,127.8594 Q93.8963,127.5781 93.2713,127.5781 Q91.9275,127.5781 91.24,128.6563 Q90.5525,129.7188 90.5525,131.8125 Q90.5525,133.9063 91.24,134.9844 Q91.9275,136.0469 93.2713,136.0469 Q93.8963,136.0469 94.49,135.7813 Q95.0838,135.5 95.7088,134.9219 L95.7088,137.6406 Z "/><text fill="#000000" font-family="sans-serif" font-size="12" lengthAdjust="spacingAndGlyphs" textLength="65" x="106.74" y="136.1543">TabButton</text><line style="stroke: #A80036; stroke-width: 1.5;" x1="78.74" x2="173.74" y1="148" y2="148"/><line style="stroke: #A80036; stroke-width: 1.5;" x1="78.74" x2="173.74" y1="156" y2="156"/><!--MD5=[83b3cf3d23d77c6f1e1b5291a241bc2a]
class MonoBehaviour--><rect fill="#FEFECE" filter="url(#fr2lv4eo0osu9)" height="48" id="MonoBehaviour" style="stroke: #A80036; stroke-width: 1.5;" width="128" x="62.24" y="8"/><ellipse cx="77.24" cy="24" fill="#ADD1B2" rx="11" ry="11" style="stroke: #A80036; stroke-width: 1.0;"/><path d="M80.2088,29.6406 Q79.6306,29.9375 78.99,30.0781 Q78.3494,30.2344 77.6463,30.2344 Q75.1463,30.2344 73.8181,28.5938 Q72.5056,26.9375 72.5056,23.8125 Q72.5056,20.6875 73.8181,19.0313 Q75.1463,17.375 77.6463,17.375 Q78.3494,17.375 78.99,17.5313 Q79.6463,17.6875 80.2088,17.9844 L80.2088,20.7031 Q79.5838,20.125 78.99,19.8594 Q78.3963,19.5781 77.7713,19.5781 Q76.4275,19.5781 75.74,20.6563 Q75.0525,21.7188 75.0525,23.8125 Q75.0525,25.9063 75.74,26.9844 Q76.4275,28.0469 77.7713,28.0469 Q78.3963,28.0469 78.99,27.7813 Q79.5838,27.5 80.2088,26.9219 L80.2088,29.6406 Z "/><text fill="#000000" font-family="sans-serif" font-size="12" lengthAdjust="spacingAndGlyphs" textLength="96" x="91.24" y="28.1543">MonoBehaviour</text><line style="stroke: #A80036; stroke-width: 1.5;" x1="63.24" x2="189.24" y1="40" y2="40"/><line style="stroke: #A80036; stroke-width: 1.5;" x1="63.24" x2="189.24" y1="48" y2="48"/><!--MD5=[c5cbde16f9a52a0ef1c04356cde1afed]
class TabGroup--><rect fill="#FEFECE" filter="url(#fr2lv4eo0osu9)" height="48" id="TabGroup" style="stroke: #A80036; stroke-width: 1.5;" width="93" x="21.74" y="224"/><ellipse cx="36.74" cy="240" fill="#ADD1B2" rx="11" ry="11" style="stroke: #A80036; stroke-width: 1.0;"/><path d="M39.7087,245.6406 Q39.1306,245.9375 38.49,246.0781 Q37.8494,246.2344 37.1462,246.2344 Q34.6462,246.2344 33.3181,244.5938 Q32.0056,242.9375 32.0056,239.8125 Q32.0056,236.6875 33.3181,235.0313 Q34.6462,233.375 37.1462,233.375 Q37.8494,233.375 38.49,233.5313 Q39.1462,233.6875 39.7087,233.9844 L39.7087,236.7031 Q39.0837,236.125 38.49,235.8594 Q37.8962,235.5781 37.2712,235.5781 Q35.9275,235.5781 35.24,236.6563 Q34.5525,237.7188 34.5525,239.8125 Q34.5525,241.9063 35.24,242.9844 Q35.9275,244.0469 37.2712,244.0469 Q37.8962,244.0469 38.49,243.7813 Q39.0837,243.5 39.7087,242.9219 L39.7087,245.6406 Z "/><text fill="#000000" font-family="sans-serif" font-size="12" lengthAdjust="spacingAndGlyphs" textLength="61" x="50.74" y="244.1543">TabGroup</text><line style="stroke: #A80036; stroke-width: 1.5;" x1="22.74" x2="113.74" y1="256" y2="256"/><line style="stroke: #A80036; stroke-width: 1.5;" x1="22.74" x2="113.74" y1="264" y2="264"/><!--MD5=[964f074a2dd77d134c21b891bb53e381]
class Image--><rect fill="#FEFECE" filter="url(#fr2lv4eo0osu9)" height="48" id="Image" style="stroke: #A80036; stroke-width: 1.5;" width="70" x="150.24" y="224"/><ellipse cx="165.24" cy="240" fill="#ADD1B2" rx="11" ry="11" style="stroke: #A80036; stroke-width: 1.0;"/><path d="M168.2088,245.6406 Q167.6306,245.9375 166.99,246.0781 Q166.3494,246.2344 165.6463,246.2344 Q163.1463,246.2344 161.8181,244.5938 Q160.5056,242.9375 160.5056,239.8125 Q160.5056,236.6875 161.8181,235.0313 Q163.1463,233.375 165.6463,233.375 Q166.3494,233.375 166.99,233.5313 Q167.6463,233.6875 168.2088,233.9844 L168.2088,236.7031 Q167.5838,236.125 166.99,235.8594 Q166.3963,235.5781 165.7713,235.5781 Q164.4275,235.5781 163.74,236.6563 Q163.0525,237.7188 163.0525,239.8125 Q163.0525,241.9063 163.74,242.9844 Q164.4275,244.0469 165.7713,244.0469 Q166.3963,244.0469 166.99,243.7813 Q167.5838,243.5 168.2088,242.9219 L168.2088,245.6406 Z "/><text fill="#000000" font-family="sans-serif" font-size="12" lengthAdjust="spacingAndGlyphs" textLength="38" x="179.24" y="244.1543">Image</text><line style="stroke: #A80036; stroke-width: 1.5;" x1="151.24" x2="219.24" y1="256" y2="256"/><line style="stroke: #A80036; stroke-width: 1.5;" x1="151.24" x2="219.24" y1="264" y2="264"/><!--MD5=[2f6b8af65cc7ec5d591ea93ac09495b2]
reverse link MonoBehaviour to TabButton--><path d="M126.24,76.02 C126.24,89.58 126.24,104.04 126.24,115.68 " fill="none" id="MonoBehaviour&lt;-TabButton" style="stroke: #A80036; stroke-width: 1.0;"/><polygon fill="none" points="119.24,76,126.24,56,133.24,76,119.24,76" style="stroke: #A80036; stroke-width: 1.0;"/><!--MD5=[f9e010ed697ad6ac1b04422945920f89]
link TabButton to TabGroup--><path d="M113.65,164 C104.82,180.14 92.96,201.82 83.58,218.97 " fill="none" id="TabButton-&gt;TabGroup" style="stroke: #A80036; stroke-width: 1.0;"/><polygon fill="#A80036" points="81,223.68,88.8213,217.6943,83.3943,219.2905,81.7981,213.8635,81,223.68" style="stroke: #A80036; stroke-width: 1.0;"/><text fill="#000000" font-family="sans-serif" font-size="13" lengthAdjust="spacingAndGlyphs" textLength="60" x="16.7978" y="213.007">tabGroup</text><!--MD5=[05a79c4b8e3015dc29da8b3f83e15cbd]
link TabButton to Image--><path d="M139.04,164 C148.03,180.14 160.09,201.82 169.64,218.97 " fill="none" id="TabButton-&gt;Image" style="stroke: #A80036; stroke-width: 1.0;"/><polygon fill="#A80036" points="172.26,223.68,171.3858,213.87,169.8318,219.3092,164.3926,217.7552,172.26,223.68" style="stroke: #A80036; stroke-width: 1.0;"/><text fill="#000000" font-family="sans-serif" font-size="13" lengthAdjust="spacingAndGlyphs" textLength="115" x="183.1117" y="213.007">backgroundImage</text><!--MD5=[8c9603d51259bbe94f7c33da7d029946]
@startuml
class TabButton {
}
MonoBehaviour <|- - TabButton
TabButton - -> "tabGroup" TabGroup
TabButton - -> "backgroundImage" Image
@enduml

PlantUML version 1.2020.02(Sun Mar 01 10:22:07 GMT 2020)
(GPL source distribution)
Java Runtime: OpenJDK Runtime Environment
JVM: OpenJDK 64-Bit Server VM
Java Version: 11.0.9+11-Ubuntu-0ubuntu1
Operating System: Linux
Default Encoding: ANSI_X3.4-1968
Language: en
Country: US
--></g></svg>