<?xml version="1.0" encoding="UTF-8" standalone="no"?><svg xmlns="http://www.w3.org/2000/svg" xmlns:xlink="http://www.w3.org/1999/xlink" contentScriptType="application/ecmascript" contentStyleType="text/css" height="321px" preserveAspectRatio="none" style="width:320px;height:321px;" version="1.1" viewBox="0 0 320 321" width="320px" zoomAndPan="magnify"><defs><filter height="300%" id="fx4f5biqcnb1r" width="300%" x="-1" y="-1"><feGaussianBlur result="blurOut" stdDeviation="2.0"/><feColorMatrix in="blurOut" result="blurOut2" type="matrix" values="0 0 0 0 0 0 0 0 0 0 0 0 0 0 0 0 0 0 .4 0"/><feOffset dx="4.0" dy="4.0" in="blurOut2" result="blurOut3"/><feBlend in="SourceGraphic" in2="blurOut3" mode="normal"/></filter></defs><g><!--MD5=[c5cbde16f9a52a0ef1c04356cde1afed]
class TabGroup--><rect fill="#FEFECE" filter="url(#fx4f5biqcnb1r)" height="86.4141" id="TabGroup" style="stroke: #A80036; stroke-width: 1.5;" width="259" x="50.5" y="116"/><ellipse cx="145.25" cy="132" fill="#ADD1B2" rx="11" ry="11" style="stroke: #A80036; stroke-width: 1.0;"/><path d="M148.2188,137.6406 Q147.6406,137.9375 147,138.0781 Q146.3594,138.2344 145.6563,138.2344 Q143.1563,138.2344 141.8281,136.5938 Q140.5156,134.9375 140.5156,131.8125 Q140.5156,128.6875 141.8281,127.0313 Q143.1563,125.375 145.6563,125.375 Q146.3594,125.375 147,125.5313 Q147.6563,125.6875 148.2188,125.9844 L148.2188,128.7031 Q147.5938,128.125 147,127.8594 Q146.4063,127.5781 145.7813,127.5781 Q144.4375,127.5781 143.75,128.6563 Q143.0625,129.7188 143.0625,131.8125 Q143.0625,133.9063 143.75,134.9844 Q144.4375,136.0469 145.7813,136.0469 Q146.4063,136.0469 147,135.7813 Q147.5938,135.5 148.2188,134.9219 L148.2188,137.6406 Z "/><text fill="#000000" font-family="sans-serif" font-size="12" lengthAdjust="spacingAndGlyphs" textLength="61" x="165.75" y="136.1543">TabGroup</text><line style="stroke: #A80036; stroke-width: 1.5;" x1="51.5" x2="308.5" y1="148" y2="148"/><line style="stroke: #A80036; stroke-width: 1.5;" x1="51.5" x2="308.5" y1="156" y2="156"/><ellipse cx="61.5" cy="167" fill="#84BE84" rx="3" ry="3" style="stroke: #038048; stroke-width: 1.0;"/><text fill="#000000" font-family="sans-serif" font-size="11" lengthAdjust="spacingAndGlyphs" textLength="187" x="70.5" y="170.2104">Add(_tabButton:TabButton) : void</text><ellipse cx="61.5" cy="179.8047" fill="#84BE84" rx="3" ry="3" style="stroke: #038048; stroke-width: 1.0;"/><text fill="#000000" font-family="sans-serif" font-size="11" lengthAdjust="spacingAndGlyphs" textLength="204" x="70.5" y="183.0151">OnTabExit(_button:TabButton) : void</text><ellipse cx="61.5" cy="192.6094" fill="#84BE84" rx="3" ry="3" style="stroke: #038048; stroke-width: 1.0;"/><text fill="#000000" font-family="sans-serif" font-size="11" lengthAdjust="spacingAndGlyphs" textLength="233" x="70.5" y="195.8198">OnTabSelected(_button:TabButton) : void</text><!--MD5=[e644022de7dea015dd09463c37421447]
class List`1--><rect fill="#FEFECE" filter="url(#fx4f5biqcnb1r)" height="48" id="List`1" style="stroke: #A80036; stroke-width: 1.5;" width="78" x="141" y="262"/><ellipse cx="156" cy="278" fill="#ADD1B2" rx="11" ry="11" style="stroke: #A80036; stroke-width: 1.0;"/><path d="M158.9688,283.6406 Q158.3906,283.9375 157.75,284.0781 Q157.1094,284.2344 156.4063,284.2344 Q153.9063,284.2344 152.5781,282.5938 Q151.2656,280.9375 151.2656,277.8125 Q151.2656,274.6875 152.5781,273.0313 Q153.9063,271.375 156.4063,271.375 Q157.1094,271.375 157.75,271.5313 Q158.4063,271.6875 158.9688,271.9844 L158.9688,274.7031 Q158.3438,274.125 157.75,273.8594 Q157.1563,273.5781 156.5313,273.5781 Q155.1875,273.5781 154.5,274.6563 Q153.8125,275.7188 153.8125,277.8125 Q153.8125,279.9063 154.5,280.9844 Q155.1875,282.0469 156.5313,282.0469 Q157.1563,282.0469 157.75,281.7813 Q158.3438,281.5 158.9688,280.9219 L158.9688,283.6406 Z "/><text fill="#000000" font-family="sans-serif" font-size="12" lengthAdjust="spacingAndGlyphs" textLength="35" x="170" y="282.1543">List`1</text><rect fill="#FFFFFF" height="15.9688" style="stroke: #000000; stroke-width: 1.0; stroke-dasharray: 2.0,2.0;" width="9" x="213" y="259"/><text fill="#000000" font-family="sans-serif" font-size="12" font-style="italic" lengthAdjust="spacingAndGlyphs" textLength="7" x="214" y="271.1387">T</text><line style="stroke: #A80036; stroke-width: 1.5;" x1="142" x2="218" y1="294" y2="294"/><line style="stroke: #A80036; stroke-width: 1.5;" x1="142" x2="218" y1="302" y2="302"/><!--MD5=[83b3cf3d23d77c6f1e1b5291a241bc2a]
class MonoBehaviour--><rect fill="#FEFECE" filter="url(#fx4f5biqcnb1r)" height="48" id="MonoBehaviour" style="stroke: #A80036; stroke-width: 1.5;" width="128" x="116" y="8"/><ellipse cx="131" cy="24" fill="#ADD1B2" rx="11" ry="11" style="stroke: #A80036; stroke-width: 1.0;"/><path d="M133.9688,29.6406 Q133.3906,29.9375 132.75,30.0781 Q132.1094,30.2344 131.4063,30.2344 Q128.9063,30.2344 127.5781,28.5938 Q126.2656,26.9375 126.2656,23.8125 Q126.2656,20.6875 127.5781,19.0313 Q128.9063,17.375 131.4063,17.375 Q132.1094,17.375 132.75,17.5313 Q133.4063,17.6875 133.9688,17.9844 L133.9688,20.7031 Q133.3438,20.125 132.75,19.8594 Q132.1563,19.5781 131.5313,19.5781 Q130.1875,19.5781 129.5,20.6563 Q128.8125,21.7188 128.8125,23.8125 Q128.8125,25.9063 129.5,26.9844 Q130.1875,28.0469 131.5313,28.0469 Q132.1563,28.0469 132.75,27.7813 Q133.3438,27.5 133.9688,26.9219 L133.9688,29.6406 Z "/><text fill="#000000" font-family="sans-serif" font-size="12" lengthAdjust="spacingAndGlyphs" textLength="96" x="145" y="28.1543">MonoBehaviour</text><line style="stroke: #A80036; stroke-width: 1.5;" x1="117" x2="243" y1="40" y2="40"/><line style="stroke: #A80036; stroke-width: 1.5;" x1="117" x2="243" y1="48" y2="48"/><!--MD5=[de412c2bab641d2e984964d517e0027d]
reverse link MonoBehaviour to TabGroup--><path d="M180,76.27 C180,89.12 180,103.17 180,115.94 " fill="none" id="MonoBehaviour&lt;-TabGroup" style="stroke: #A80036; stroke-width: 1.0;"/><polygon fill="none" points="173,76.22,180,56.22,187,76.22,173,76.22" style="stroke: #A80036; stroke-width: 1.0;"/><!--MD5=[e642ee2f18be68d38e5943eae6e10e9f]
link TabGroup to List`1--><path d="M180,202.32 C180,220.14 180,240.41 180,256.42 " fill="none" id="TabGroup-&gt;List`1" style="stroke: #A80036; stroke-width: 1.0;"/><polygon fill="#A80036" points="180,261.67,184,252.67,180,256.67,176,252.67,180,261.67" style="stroke: #A80036; stroke-width: 1.0;"/><text fill="#000000" font-family="sans-serif" font-size="13" lengthAdjust="spacingAndGlyphs" textLength="159" x="1.6219" y="250.9945">tabButtons&lt;TabButton&gt;</text><!--MD5=[46e7c03aa893eb13bb1d844c5a917c6c]
@startuml
class TabGroup {
    + Add(_tabButton:TabButton) : void
    + OnTabExit(_button:TabButton) : void
    + OnTabSelected(_button:TabButton) : void
}
class "List`1"<T> {
}
MonoBehaviour <|- - TabGroup
TabGroup - -> "tabButtons<TabButton>" "List`1"
@enduml

PlantUML version 1.2020.02(Sun Mar 01 10:22:07 GMT 2020)
(GPL source distribution)
Java Runtime: OpenJDK Runtime Environment
JVM: OpenJDK 64-Bit Server VM
Java Version: 11.0.9+11-Ubuntu-0ubuntu1
Operating System: Linux
Default Encoding: ANSI_X3.4-1968
Language: en
Country: US
--></g></svg>