<?xml version="1.0" encoding="UTF-8" standalone="no"?><svg xmlns="http://www.w3.org/2000/svg" xmlns:xlink="http://www.w3.org/1999/xlink" contentScriptType="application/ecmascript" contentStyleType="text/css" height="187px" preserveAspectRatio="none" style="width:210px;height:187px;" version="1.1" viewBox="0 0 210 187" width="210px" zoomAndPan="magnify"><defs><filter height="300%" id="f1dkiskmi952nf" width="300%" x="-1" y="-1"><feGaussianBlur result="blurOut" stdDeviation="2.0"/><feColorMatrix in="blurOut" result="blurOut2" type="matrix" values="0 0 0 0 0 0 0 0 0 0 0 0 0 0 0 0 0 0 .4 0"/><feOffset dx="4.0" dy="4.0" in="blurOut2" result="blurOut3"/><feBlend in="SourceGraphic" in2="blurOut3" mode="normal"/></filter></defs><g><!--MD5=[69f65262c3e1140be2c3fbc220fd5bee]
class UIContentFitter--><rect fill="#FEFECE" filter="url(#f1dkiskmi952nf)" height="60.8047" id="UIContentFitter" style="stroke: #A80036; stroke-width: 1.5;" width="193" x="6" y="116"/><ellipse cx="50.75" cy="132" fill="#ADD1B2" rx="11" ry="11" style="stroke: #A80036; stroke-width: 1.0;"/><path d="M53.7188,137.6406 Q53.1406,137.9375 52.5,138.0781 Q51.8594,138.2344 51.1563,138.2344 Q48.6563,138.2344 47.3281,136.5938 Q46.0156,134.9375 46.0156,131.8125 Q46.0156,128.6875 47.3281,127.0313 Q48.6563,125.375 51.1563,125.375 Q51.8594,125.375 52.5,125.5313 Q53.1563,125.6875 53.7188,125.9844 L53.7188,128.7031 Q53.0938,128.125 52.5,127.8594 Q51.9063,127.5781 51.2813,127.5781 Q49.9375,127.5781 49.25,128.6563 Q48.5625,129.7188 48.5625,131.8125 Q48.5625,133.9063 49.25,134.9844 Q49.9375,136.0469 51.2813,136.0469 Q51.9063,136.0469 52.5,135.7813 Q53.0938,135.5 53.7188,134.9219 L53.7188,137.6406 Z "/><text fill="#000000" font-family="sans-serif" font-size="12" lengthAdjust="spacingAndGlyphs" textLength="95" x="71.25" y="136.1543">UIContentFitter</text><line style="stroke: #A80036; stroke-width: 1.5;" x1="7" x2="198" y1="148" y2="148"/><line style="stroke: #A80036; stroke-width: 1.5;" x1="7" x2="198" y1="156" y2="156"/><ellipse cx="17" cy="167" fill="#84BE84" rx="3" ry="3" style="stroke: #038048; stroke-width: 1.0;"/><text fill="#000000" font-family="sans-serif" font-size="11" lengthAdjust="spacingAndGlyphs" textLength="167" x="26" y="170.2104">Resize(_newWidth:float) : void</text><!--MD5=[83b3cf3d23d77c6f1e1b5291a241bc2a]
class MonoBehaviour--><rect fill="#FEFECE" filter="url(#f1dkiskmi952nf)" height="48" id="MonoBehaviour" style="stroke: #A80036; stroke-width: 1.5;" width="128" x="38.5" y="8"/><ellipse cx="53.5" cy="24" fill="#ADD1B2" rx="11" ry="11" style="stroke: #A80036; stroke-width: 1.0;"/><path d="M56.4688,29.6406 Q55.8906,29.9375 55.25,30.0781 Q54.6094,30.2344 53.9063,30.2344 Q51.4063,30.2344 50.0781,28.5938 Q48.7656,26.9375 48.7656,23.8125 Q48.7656,20.6875 50.0781,19.0313 Q51.4063,17.375 53.9063,17.375 Q54.6094,17.375 55.25,17.5313 Q55.9063,17.6875 56.4688,17.9844 L56.4688,20.7031 Q55.8438,20.125 55.25,19.8594 Q54.6563,19.5781 54.0313,19.5781 Q52.6875,19.5781 52,20.6563 Q51.3125,21.7188 51.3125,23.8125 Q51.3125,25.9063 52,26.9844 Q52.6875,28.0469 54.0313,28.0469 Q54.6563,28.0469 55.25,27.7813 Q55.8438,27.5 56.4688,26.9219 L56.4688,29.6406 Z "/><text fill="#000000" font-family="sans-serif" font-size="12" lengthAdjust="spacingAndGlyphs" textLength="96" x="67.5" y="28.1543">MonoBehaviour</text><line style="stroke: #A80036; stroke-width: 1.5;" x1="39.5" x2="165.5" y1="40" y2="40"/><line style="stroke: #A80036; stroke-width: 1.5;" x1="39.5" x2="165.5" y1="48" y2="48"/><!--MD5=[34f17c49e806b63f283317f4c40414bf]
reverse link MonoBehaviour to UIContentFitter--><path d="M102.5,76.11 C102.5,89.31 102.5,103.54 102.5,115.65 " fill="none" id="MonoBehaviour&lt;-UIContentFitter" style="stroke: #A80036; stroke-width: 1.0;"/><polygon fill="none" points="95.5,76.04,102.5,56.04,109.5,76.04,95.5,76.04" style="stroke: #A80036; stroke-width: 1.0;"/><!--MD5=[16f8c9a402ab4bef305b960f10c6bdcb]
@startuml
class UIContentFitter {
    + Resize(_newWidth:float) : void
}
MonoBehaviour <|- - UIContentFitter
@enduml

PlantUML version 1.2020.02(Sun Mar 01 10:22:07 GMT 2020)
(GPL source distribution)
Java Runtime: OpenJDK Runtime Environment
JVM: OpenJDK 64-Bit Server VM
Java Version: 11.0.9+11-Ubuntu-0ubuntu1
Operating System: Linux
Default Encoding: ANSI_X3.4-1968
Language: en
Country: US
--></g></svg>