<?xml version="1.0" encoding="UTF-8" standalone="no"?><svg xmlns="http://www.w3.org/2000/svg" xmlns:xlink="http://www.w3.org/1999/xlink" contentScriptType="application/ecmascript" contentStyleType="text/css" height="143px" preserveAspectRatio="none" style="width:841px;height:143px;" version="1.1" viewBox="0 0 841 143" width="841px" zoomAndPan="magnify"><defs><filter height="300%" id="f98v4c8u7ec0l" width="300%" x="-1" y="-1"><feGaussianBlur result="blurOut" stdDeviation="2.0"/><feColorMatrix in="blurOut" result="blurOut2" type="matrix" values="0 0 0 0 0 0 0 0 0 0 0 0 0 0 0 0 0 0 .4 0"/><feOffset dx="4.0" dy="4.0" in="blurOut2" result="blurOut3"/><feBlend in="SourceGraphic" in2="blurOut3" mode="normal"/></filter></defs><g><!--MD5=[6ed63ea80d2bf317a232132e7fe6d908]
class UIList--><rect fill="#FEFECE" filter="url(#f98v4c8u7ec0l)" height="124.8281" id="UIList" style="stroke: #A80036; stroke-width: 1.5;" width="541" x="6" y="8"/><ellipse cx="255.75" cy="24" fill="#ADD1B2" rx="11" ry="11" style="stroke: #A80036; stroke-width: 1.0;"/><path d="M258.7188,29.6406 Q258.1406,29.9375 257.5,30.0781 Q256.8594,30.2344 256.1563,30.2344 Q253.6563,30.2344 252.3281,28.5938 Q251.0156,26.9375 251.0156,23.8125 Q251.0156,20.6875 252.3281,19.0313 Q253.6563,17.375 256.1563,17.375 Q256.8594,17.375 257.5,17.5313 Q258.1563,17.6875 258.7188,17.9844 L258.7188,20.7031 Q258.0938,20.125 257.5,19.8594 Q256.9063,19.5781 256.2813,19.5781 Q254.9375,19.5781 254.25,20.6563 Q253.5625,21.7188 253.5625,23.8125 Q253.5625,25.9063 254.25,26.9844 Q254.9375,28.0469 256.2813,28.0469 Q256.9063,28.0469 257.5,27.7813 Q258.0938,27.5 258.7188,26.9219 L258.7188,29.6406 Z "/><text fill="#000000" font-family="sans-serif" font-size="12" lengthAdjust="spacingAndGlyphs" textLength="33" x="276.25" y="28.1543">UIList</text><line style="stroke: #A80036; stroke-width: 1.5;" x1="7" x2="546" y1="40" y2="40"/><line style="stroke: #A80036; stroke-width: 1.5;" x1="7" x2="546" y1="48" y2="48"/><ellipse cx="17" cy="59" fill="#84BE84" rx="3" ry="3" style="stroke: #038048; stroke-width: 1.0;"/><text fill="#000000" font-family="sans-serif" font-size="11" lengthAdjust="spacingAndGlyphs" textLength="515" x="26" y="62.2104">UIList(_prefab:GameObject, _parent:GameObject, _elementOffset:float, _direction:Vector3)</text><ellipse cx="17" cy="71.8047" fill="#84BE84" rx="3" ry="3" style="stroke: #038048; stroke-width: 1.0;"/><text fill="#000000" font-family="sans-serif" font-size="11" lengthAdjust="spacingAndGlyphs" textLength="157" x="26" y="75.0151">AddElement() : GameObject</text><ellipse cx="17" cy="84.6094" fill="#84BE84" rx="3" ry="3" style="stroke: #038048; stroke-width: 1.0;"/><text fill="#000000" font-family="sans-serif" font-size="11" lengthAdjust="spacingAndGlyphs" textLength="75" x="26" y="87.8198">Reset() : void</text><ellipse cx="17" cy="97.4141" fill="#84BE84" rx="3" ry="3" style="stroke: #038048; stroke-width: 1.0;"/><text fill="#000000" font-family="sans-serif" font-size="11" lengthAdjust="spacingAndGlyphs" textLength="197" x="26" y="100.6245">EnableParent(_enabled:bool) : void</text><ellipse cx="17" cy="110.2188" fill="#84BE84" rx="3" ry="3" style="stroke: #038048; stroke-width: 1.0;"/><text fill="#000000" font-family="sans-serif" font-size="11" lengthAdjust="spacingAndGlyphs" textLength="147" x="26" y="113.4292">GetParent() : GameObject</text><ellipse cx="17" cy="123.0234" fill="#84BE84" rx="3" ry="3" style="stroke: #038048; stroke-width: 1.0;"/><text fill="#000000" font-family="sans-serif" font-size="11" lengthAdjust="spacingAndGlyphs" textLength="116" x="26" y="126.2339">GetTotalSize() : float</text><!--MD5=[e644022de7dea015dd09463c37421447]
class List`1--><rect fill="#FEFECE" filter="url(#f98v4c8u7ec0l)" height="48" id="List`1" style="stroke: #A80036; stroke-width: 1.5;" width="78" x="582.5" y="46.5"/><ellipse cx="597.5" cy="62.5" fill="#ADD1B2" rx="11" ry="11" style="stroke: #A80036; stroke-width: 1.0;"/><path d="M600.4688,68.1406 Q599.8906,68.4375 599.25,68.5781 Q598.6094,68.7344 597.9063,68.7344 Q595.4063,68.7344 594.0781,67.0938 Q592.7656,65.4375 592.7656,62.3125 Q592.7656,59.1875 594.0781,57.5313 Q595.4063,55.875 597.9063,55.875 Q598.6094,55.875 599.25,56.0313 Q599.9063,56.1875 600.4688,56.4844 L600.4688,59.2031 Q599.8438,58.625 599.25,58.3594 Q598.6563,58.0781 598.0313,58.0781 Q596.6875,58.0781 596,59.1563 Q595.3125,60.2188 595.3125,62.3125 Q595.3125,64.4063 596,65.4844 Q596.6875,66.5469 598.0313,66.5469 Q598.6563,66.5469 599.25,66.2813 Q599.8438,66 600.4688,65.4219 L600.4688,68.1406 Z "/><text fill="#000000" font-family="sans-serif" font-size="12" lengthAdjust="spacingAndGlyphs" textLength="35" x="611.5" y="66.6543">List`1</text><rect fill="#FFFFFF" height="15.9688" style="stroke: #000000; stroke-width: 1.0; stroke-dasharray: 2.0,2.0;" width="9" x="654.5" y="43.5"/><text fill="#000000" font-family="sans-serif" font-size="12" font-style="italic" lengthAdjust="spacingAndGlyphs" textLength="7" x="655.5" y="55.6387">T</text><line style="stroke: #A80036; stroke-width: 1.5;" x1="583.5" x2="659.5" y1="78.5" y2="78.5"/><line style="stroke: #A80036; stroke-width: 1.5;" x1="583.5" x2="659.5" y1="86.5" y2="86.5"/><!--MD5=[e647b6a9b4b4a7e2d2655618f92f2fb9]
link UIList to List`1--><path d="M559.04,70.5 C559.04,70.5 566.2,70.5 569.18,70.5 " fill="none" id="UIList-List`1" style="stroke: #A80036; stroke-width: 1.0;"/><polygon fill="#A80036" points="582.24,70.5,573.24,66.5,577.24,70.5,573.24,74.5,582.24,70.5" style="stroke: #A80036; stroke-width: 1.0;"/><line style="stroke: #A80036; stroke-width: 1.0;" x1="577.24" x2="569.24" y1="70.5" y2="70.5"/><polygon fill="#FFFFFF" points="547.04,70.5,553.04,74.5,559.04,70.5,553.04,66.5,547.04,70.5" style="stroke: #A80036; stroke-width: 1.0;"/><text fill="#000000" font-family="sans-serif" font-size="13" lengthAdjust="spacingAndGlyphs" textLength="162" x="667.807" y="52.328">elements&lt;GameObject&gt;</text><!--MD5=[91979e9b79792c8cc694022bcae43dd8]
@startuml
class UIList {
    + UIList(_prefab:GameObject, _parent:GameObject, _elementOffset:float, _direction:Vector3)
    + AddElement() : GameObject
    + Reset() : void
    + EnableParent(_enabled:bool) : void
    + GetParent() : GameObject
    + GetTotalSize() : float
}
class "List`1"<T> {
}
UIList o-> "elements<GameObject>" "List`1"
@enduml

PlantUML version 1.2020.02(Sun Mar 01 10:22:07 GMT 2020)
(GPL source distribution)
Java Runtime: OpenJDK Runtime Environment
JVM: OpenJDK 64-Bit Server VM
Java Version: 11.0.9+11-Ubuntu-0ubuntu1
Operating System: Linux
Default Encoding: ANSI_X3.4-1968
Language: en
Country: US
--></g></svg>