<?xml version="1.0" encoding="UTF-8" standalone="no"?><svg xmlns="http://www.w3.org/2000/svg" xmlns:xlink="http://www.w3.org/1999/xlink" contentScriptType="application/ecmascript" contentStyleType="text/css" height="251px" preserveAspectRatio="none" style="width:378px;height:251px;" version="1.1" viewBox="0 0 378 251" width="378px" zoomAndPan="magnify"><defs><filter height="300%" id="f1f1lptivfv7ok" width="300%" x="-1" y="-1"><feGaussianBlur result="blurOut" stdDeviation="2.0"/><feColorMatrix in="blurOut" result="blurOut2" type="matrix" values="0 0 0 0 0 0 0 0 0 0 0 0 0 0 0 0 0 0 .4 0"/><feOffset dx="4.0" dy="4.0" in="blurOut2" result="blurOut3"/><feBlend in="SourceGraphic" in2="blurOut3" mode="normal"/></filter></defs><g><!--MD5=[d602b77267d5088762cb6a59b8ed96b1]
class UIManager--><rect fill="#FEFECE" filter="url(#f1f1lptivfv7ok)" height="124.8281" id="UIManager" style="stroke: #A80036; stroke-width: 1.5;" width="361" x="6" y="116"/><ellipse cx="148.75" cy="132" fill="#ADD1B2" rx="11" ry="11" style="stroke: #A80036; stroke-width: 1.0;"/><path d="M151.7188,137.6406 Q151.1406,137.9375 150.5,138.0781 Q149.8594,138.2344 149.1563,138.2344 Q146.6563,138.2344 145.3281,136.5938 Q144.0156,134.9375 144.0156,131.8125 Q144.0156,128.6875 145.3281,127.0313 Q146.6563,125.375 149.1563,125.375 Q149.8594,125.375 150.5,125.5313 Q151.1563,125.6875 151.7188,125.9844 L151.7188,128.7031 Q151.0938,128.125 150.5,127.8594 Q149.9063,127.5781 149.2813,127.5781 Q147.9375,127.5781 147.25,128.6563 Q146.5625,129.7188 146.5625,131.8125 Q146.5625,133.9063 147.25,134.9844 Q147.9375,136.0469 149.2813,136.0469 Q149.9063,136.0469 150.5,135.7813 Q151.0938,135.5 151.7188,134.9219 L151.7188,137.6406 Z "/><text fill="#000000" font-family="sans-serif" font-size="12" lengthAdjust="spacingAndGlyphs" textLength="67" x="169.25" y="136.1543">UIManager</text><line style="stroke: #A80036; stroke-width: 1.5;" x1="7" x2="366" y1="148" y2="148"/><ellipse cx="17" cy="159" fill="none" rx="3" ry="3" style="stroke: #038048; stroke-width: 1.0;"/><text fill="#000000" font-family="sans-serif" font-size="11" lengthAdjust="spacingAndGlyphs" textLength="106" x="26" y="162.2104">isMenuOpen : bool</text><line style="stroke: #A80036; stroke-width: 1.5;" x1="7" x2="366" y1="168.8047" y2="168.8047"/><ellipse cx="17" cy="179.8047" fill="#84BE84" rx="3" ry="3" style="stroke: #038048; stroke-width: 1.0;"/><text fill="#000000" font-family="sans-serif" font-size="11" lengthAdjust="spacingAndGlyphs" textLength="222" x="26" y="183.0151">AddPresetButton(_preset:Preset) : void</text><ellipse cx="17" cy="192.6094" fill="#84BE84" rx="3" ry="3" style="stroke: #038048; stroke-width: 1.0;"/><text fill="#000000" font-family="sans-serif" font-size="11" lengthAdjust="spacingAndGlyphs" textLength="125" x="26" y="195.8198">ShowBuilderUI() : void</text><ellipse cx="17" cy="205.4141" fill="#84BE84" rx="3" ry="3" style="stroke: #038048; stroke-width: 1.0;"/><text fill="#000000" font-family="sans-serif" font-size="11" lengthAdjust="spacingAndGlyphs" textLength="254" x="26" y="208.6245">EnableLoadingScreen(_isEnabled:bool) : void</text><ellipse cx="17" cy="218.2188" fill="#84BE84" rx="3" ry="3" style="stroke: #038048; stroke-width: 1.0;"/><text fill="#000000" font-family="sans-serif" font-size="11" lengthAdjust="spacingAndGlyphs" textLength="182" x="26" y="221.4292">ShowLogText(_text:string) : void</text><ellipse cx="17" cy="231.0234" fill="#84BE84" rx="3" ry="3" style="stroke: #038048; stroke-width: 1.0;"/><text fill="#000000" font-family="sans-serif" font-size="11" lengthAdjust="spacingAndGlyphs" textLength="335" x="26" y="234.2339">AssignSpriteToButton(_preset:Preset, _sprite:Sprite) : void</text><!--MD5=[faa1de4d7b17b110bcca917d9add068e]
class Singleton`1--><rect fill="#FEFECE" filter="url(#f1f1lptivfv7ok)" height="48" id="Singleton`1" style="stroke: #A80036; stroke-width: 1.5;" width="116" x="128.5" y="8"/><ellipse cx="143.5" cy="24" fill="#ADD1B2" rx="11" ry="11" style="stroke: #A80036; stroke-width: 1.0;"/><path d="M146.4688,29.6406 Q145.8906,29.9375 145.25,30.0781 Q144.6094,30.2344 143.9063,30.2344 Q141.4063,30.2344 140.0781,28.5938 Q138.7656,26.9375 138.7656,23.8125 Q138.7656,20.6875 140.0781,19.0313 Q141.4063,17.375 143.9063,17.375 Q144.6094,17.375 145.25,17.5313 Q145.9063,17.6875 146.4688,17.9844 L146.4688,20.7031 Q145.8438,20.125 145.25,19.8594 Q144.6563,19.5781 144.0313,19.5781 Q142.6875,19.5781 142,20.6563 Q141.3125,21.7188 141.3125,23.8125 Q141.3125,25.9063 142,26.9844 Q142.6875,28.0469 144.0313,28.0469 Q144.6563,28.0469 145.25,27.7813 Q145.8438,27.5 146.4688,26.9219 L146.4688,29.6406 Z "/><text fill="#000000" font-family="sans-serif" font-size="12" lengthAdjust="spacingAndGlyphs" textLength="73" x="157.5" y="28.1543">Singleton`1</text><rect fill="#FFFFFF" height="15.9688" style="stroke: #000000; stroke-width: 1.0; stroke-dasharray: 2.0,2.0;" width="9" x="238.5" y="5"/><text fill="#000000" font-family="sans-serif" font-size="12" font-style="italic" lengthAdjust="spacingAndGlyphs" textLength="7" x="239.5" y="17.1387">T</text><line style="stroke: #A80036; stroke-width: 1.5;" x1="129.5" x2="243.5" y1="40" y2="40"/><line style="stroke: #A80036; stroke-width: 1.5;" x1="129.5" x2="243.5" y1="48" y2="48"/><!--MD5=[e4d8ba2bc3c74ef594d87f8dc1fd3a27]
reverse link Singleton`1 to UIManager--><path d="M186.5,76.67 C186.5,89.05 186.5,102.77 186.5,115.99 " fill="none" id="Singleton`1&lt;-UIManager" style="stroke: #A80036; stroke-width: 1.0;"/><polygon fill="none" points="179.5,76.22,186.5,56.22,193.5,76.22,179.5,76.22" style="stroke: #A80036; stroke-width: 1.0;"/><text fill="#000000" font-family="sans-serif" font-size="13" lengthAdjust="spacingAndGlyphs" textLength="91" x="84.4094" y="76.0348">&lt;UIManager&gt;</text><!--MD5=[fbf272b8eec64c863f8b78a6706bf20b]
@startuml
class UIManager {
    + isMenuOpen : bool
    + AddPresetButton(_preset:Preset) : void
    + ShowBuilderUI() : void
    + EnableLoadingScreen(_isEnabled:bool) : void
    + ShowLogText(_text:string) : void
    + AssignSpriteToButton(_preset:Preset, _sprite:Sprite) : void
}
class "Singleton`1"<T> {
}
"Singleton`1" "<UIManager>" <|- - UIManager
@enduml

PlantUML version 1.2020.02(Sun Mar 01 10:22:07 GMT 2020)
(GPL source distribution)
Java Runtime: OpenJDK Runtime Environment
JVM: OpenJDK 64-Bit Server VM
Java Version: 11.0.9+11-Ubuntu-0ubuntu1
Operating System: Linux
Default Encoding: ANSI_X3.4-1968
Language: en
Country: US
--></g></svg>