<?xml version="1.0" encoding="UTF-8" standalone="no"?><svg xmlns="http://www.w3.org/2000/svg" xmlns:xlink="http://www.w3.org/1999/xlink" contentScriptType="application/ecmascript" contentStyleType="text/css" height="226px" preserveAspectRatio="none" style="width:280px;height:226px;" version="1.1" viewBox="0 0 280 226" width="280px" zoomAndPan="magnify"><defs><filter height="300%" id="f1bjb0z7110fke" width="300%" x="-1" y="-1"><feGaussianBlur result="blurOut" stdDeviation="2.0"/><feColorMatrix in="blurOut" result="blurOut2" type="matrix" values="0 0 0 0 0 0 0 0 0 0 0 0 0 0 0 0 0 0 .4 0"/><feOffset dx="4.0" dy="4.0" in="blurOut2" result="blurOut3"/><feBlend in="SourceGraphic" in2="blurOut3" mode="normal"/></filter></defs><g><!--MD5=[784bfec68141559181589c46a3efde4e]
class BasicSample--><rect fill="#FEFECE" filter="url(#f1bjb0z7110fke)" height="99.2188" id="BasicSample" style="stroke: #A80036; stroke-width: 1.5;" width="263" x="6" y="116"/><ellipse cx="93.75" cy="132" fill="#ADD1B2" rx="11" ry="11" style="stroke: #A80036; stroke-width: 1.0;"/><path d="M96.7188,137.6406 Q96.1406,137.9375 95.5,138.0781 Q94.8594,138.2344 94.1563,138.2344 Q91.6563,138.2344 90.3281,136.5938 Q89.0156,134.9375 89.0156,131.8125 Q89.0156,128.6875 90.3281,127.0313 Q91.6563,125.375 94.1563,125.375 Q94.8594,125.375 95.5,125.5313 Q96.1563,125.6875 96.7188,125.9844 L96.7188,128.7031 Q96.0938,128.125 95.5,127.8594 Q94.9063,127.5781 94.2813,127.5781 Q92.9375,127.5781 92.25,128.6563 Q91.5625,129.7188 91.5625,131.8125 Q91.5625,133.9063 92.25,134.9844 Q92.9375,136.0469 94.2813,136.0469 Q94.9063,136.0469 95.5,135.7813 Q96.0938,135.5 96.7188,134.9219 L96.7188,137.6406 Z "/><text fill="#000000" font-family="sans-serif" font-size="12" lengthAdjust="spacingAndGlyphs" textLength="79" x="114.25" y="136.1543">BasicSample</text><line style="stroke: #A80036; stroke-width: 1.5;" x1="7" x2="268" y1="148" y2="148"/><line style="stroke: #A80036; stroke-width: 1.5;" x1="7" x2="268" y1="156" y2="156"/><ellipse cx="17" cy="167" fill="#84BE84" rx="3" ry="3" style="stroke: #038048; stroke-width: 1.0;"/><text fill="#000000" font-family="sans-serif" font-size="11" lengthAdjust="spacingAndGlyphs" textLength="237" x="26" y="170.2104">SetFullScreen(fullScreenValue:bool) : void</text><text fill="#000000" font-family="sans-serif" font-size="11" lengthAdjust="spacingAndGlyphs" textLength="79" x="26" y="183.0151">OnGUI() : void</text><ellipse cx="17" cy="192.6094" fill="#84BE84" rx="3" ry="3" style="stroke: #038048; stroke-width: 1.0;"/><text fill="#000000" font-family="sans-serif" font-size="11" lengthAdjust="spacingAndGlyphs" textLength="183" x="26" y="195.8198">WriteResult(paths:string[]) : void</text><ellipse cx="17" cy="205.4141" fill="#84BE84" rx="3" ry="3" style="stroke: #038048; stroke-width: 1.0;"/><text fill="#000000" font-family="sans-serif" font-size="11" lengthAdjust="spacingAndGlyphs" textLength="168" x="26" y="208.6245">WriteResult(path:string) : void</text><!--MD5=[83b3cf3d23d77c6f1e1b5291a241bc2a]
class MonoBehaviour--><rect fill="#FEFECE" filter="url(#f1bjb0z7110fke)" height="48" id="MonoBehaviour" style="stroke: #A80036; stroke-width: 1.5;" width="128" x="73.5" y="8"/><ellipse cx="88.5" cy="24" fill="#ADD1B2" rx="11" ry="11" style="stroke: #A80036; stroke-width: 1.0;"/><path d="M91.4688,29.6406 Q90.8906,29.9375 90.25,30.0781 Q89.6094,30.2344 88.9063,30.2344 Q86.4063,30.2344 85.0781,28.5938 Q83.7656,26.9375 83.7656,23.8125 Q83.7656,20.6875 85.0781,19.0313 Q86.4063,17.375 88.9063,17.375 Q89.6094,17.375 90.25,17.5313 Q90.9063,17.6875 91.4688,17.9844 L91.4688,20.7031 Q90.8438,20.125 90.25,19.8594 Q89.6563,19.5781 89.0313,19.5781 Q87.6875,19.5781 87,20.6563 Q86.3125,21.7188 86.3125,23.8125 Q86.3125,25.9063 87,26.9844 Q87.6875,28.0469 89.0313,28.0469 Q89.6563,28.0469 90.25,27.7813 Q90.8438,27.5 91.4688,26.9219 L91.4688,29.6406 Z "/><text fill="#000000" font-family="sans-serif" font-size="12" lengthAdjust="spacingAndGlyphs" textLength="96" x="102.5" y="28.1543">MonoBehaviour</text><line style="stroke: #A80036; stroke-width: 1.5;" x1="74.5" x2="200.5" y1="40" y2="40"/><line style="stroke: #A80036; stroke-width: 1.5;" x1="74.5" x2="200.5" y1="48" y2="48"/><!--MD5=[5d68d55273332b69bfd1a6af53b35890]
reverse link MonoBehaviour to BasicSample--><path d="M137.5,76.51 C137.5,89.14 137.5,103.01 137.5,115.93 " fill="none" id="MonoBehaviour&lt;-BasicSample" style="stroke: #A80036; stroke-width: 1.0;"/><polygon fill="none" points="130.5,76.21,137.5,56.21,144.5,76.21,130.5,76.21" style="stroke: #A80036; stroke-width: 1.0;"/><!--MD5=[09780c29db34321aece62cd8a23d1e9c]
@startuml
class BasicSample {
    + SetFullScreen(fullScreenValue:bool) : void
    OnGUI() : void
    + WriteResult(paths:string[]) : void
    + WriteResult(path:string) : void
}
MonoBehaviour <|- - BasicSample
@enduml

PlantUML version 1.2020.02(Sun Mar 01 10:22:07 GMT 2020)
(GPL source distribution)
Java Runtime: OpenJDK Runtime Environment
JVM: OpenJDK 64-Bit Server VM
Java Version: 11.0.9+11-Ubuntu-0ubuntu1
Operating System: Linux
Default Encoding: ANSI_X3.4-1968
Language: en
Country: US
--></g></svg>