<?xml version="1.0" encoding="UTF-8" standalone="no"?><svg xmlns="http://www.w3.org/2000/svg" xmlns:xlink="http://www.w3.org/1999/xlink" contentScriptType="application/ecmascript" contentStyleType="text/css" height="334px" preserveAspectRatio="none" style="width:346px;height:334px;" version="1.1" viewBox="0 0 346 334" width="346px" zoomAndPan="magnify"><defs><filter height="300%" id="fzut8a575frr2" width="300%" x="-1" y="-1"><feGaussianBlur result="blurOut" stdDeviation="2.0"/><feColorMatrix in="blurOut" result="blurOut2" type="matrix" values="0 0 0 0 0 0 0 0 0 0 0 0 0 0 0 0 0 0 .4 0"/><feOffset dx="4.0" dy="4.0" in="blurOut2" result="blurOut3"/><feBlend in="SourceGraphic" in2="blurOut3" mode="normal"/></filter></defs><g><!--MD5=[fb4a3d0fa31d5700f14d72362874147f]
class CanvasSampleSaveFileImage--><rect fill="#FEFECE" filter="url(#fzut8a575frr2)" height="99.2188" id="CanvasSampleSaveFileImage" style="stroke: #A80036; stroke-width: 1.5;" width="314" x="6" y="116"/><ellipse cx="68.75" cy="132" fill="#ADD1B2" rx="11" ry="11" style="stroke: #A80036; stroke-width: 1.0;"/><path d="M71.7188,137.6406 Q71.1406,137.9375 70.5,138.0781 Q69.8594,138.2344 69.1563,138.2344 Q66.6563,138.2344 65.3281,136.5938 Q64.0156,134.9375 64.0156,131.8125 Q64.0156,128.6875 65.3281,127.0313 Q66.6563,125.375 69.1563,125.375 Q69.8594,125.375 70.5,125.5313 Q71.1563,125.6875 71.7188,125.9844 L71.7188,128.7031 Q71.0938,128.125 70.5,127.8594 Q69.9063,127.5781 69.2813,127.5781 Q67.9375,127.5781 67.25,128.6563 Q66.5625,129.7188 66.5625,131.8125 Q66.5625,133.9063 67.25,134.9844 Q67.9375,136.0469 69.2813,136.0469 Q69.9063,136.0469 70.5,135.7813 Q71.0938,135.5 71.7188,134.9219 L71.7188,137.6406 Z "/><text fill="#000000" font-family="sans-serif" font-size="12" lengthAdjust="spacingAndGlyphs" textLength="180" x="89.25" y="136.1543">CanvasSampleSaveFileImage</text><line style="stroke: #A80036; stroke-width: 1.5;" x1="7" x2="319" y1="148" y2="148"/><line style="stroke: #A80036; stroke-width: 1.5;" x1="7" x2="319" y1="156" y2="156"/><text fill="#000000" font-family="sans-serif" font-size="11" lengthAdjust="spacingAndGlyphs" textLength="79" x="26" y="170.2104">Awake() : void</text><ellipse cx="17" cy="179.8047" fill="#84BE84" rx="3" ry="3" style="stroke: #038048; stroke-width: 1.0;"/><text fill="#000000" font-family="sans-serif" font-size="11" lengthAdjust="spacingAndGlyphs" textLength="288" x="26" y="183.0151">OnPointerDown(eventData:PointerEventData) : void</text><text fill="#000000" font-family="sans-serif" font-size="11" lengthAdjust="spacingAndGlyphs" textLength="71" x="26" y="195.8198">Start() : void</text><ellipse cx="17" cy="205.4141" fill="#84BE84" rx="3" ry="3" style="stroke: #038048; stroke-width: 1.0;"/><text fill="#000000" font-family="sans-serif" font-size="11" lengthAdjust="spacingAndGlyphs" textLength="85" x="26" y="208.6245">OnClick() : void</text><!--MD5=[83b3cf3d23d77c6f1e1b5291a241bc2a]
class MonoBehaviour--><rect fill="#FEFECE" filter="url(#fzut8a575frr2)" height="48" id="MonoBehaviour" style="stroke: #A80036; stroke-width: 1.5;" width="128" x="9" y="8"/><ellipse cx="24" cy="24" fill="#ADD1B2" rx="11" ry="11" style="stroke: #A80036; stroke-width: 1.0;"/><path d="M26.9688,29.6406 Q26.3906,29.9375 25.75,30.0781 Q25.1094,30.2344 24.4063,30.2344 Q21.9063,30.2344 20.5781,28.5938 Q19.2656,26.9375 19.2656,23.8125 Q19.2656,20.6875 20.5781,19.0313 Q21.9063,17.375 24.4063,17.375 Q25.1094,17.375 25.75,17.5313 Q26.4063,17.6875 26.9688,17.9844 L26.9688,20.7031 Q26.3438,20.125 25.75,19.8594 Q25.1563,19.5781 24.5313,19.5781 Q23.1875,19.5781 22.5,20.6563 Q21.8125,21.7188 21.8125,23.8125 Q21.8125,25.9063 22.5,26.9844 Q23.1875,28.0469 24.5313,28.0469 Q25.1563,28.0469 25.75,27.7813 Q26.3438,27.5 26.9688,26.9219 L26.9688,29.6406 Z "/><text fill="#000000" font-family="sans-serif" font-size="12" lengthAdjust="spacingAndGlyphs" textLength="96" x="38" y="28.1543">MonoBehaviour</text><line style="stroke: #A80036; stroke-width: 1.5;" x1="10" x2="136" y1="40" y2="40"/><line style="stroke: #A80036; stroke-width: 1.5;" x1="10" x2="136" y1="48" y2="48"/><!--MD5=[461668fedb11703ee0efd569ed7c4f48]
class IPointerDownHandler--><rect fill="#FEFECE" filter="url(#fzut8a575frr2)" height="48" id="IPointerDownHandler" style="stroke: #A80036; stroke-width: 1.5;" width="163" x="172.5" y="8"/><ellipse cx="187.5" cy="24" fill="#ADD1B2" rx="11" ry="11" style="stroke: #A80036; stroke-width: 1.0;"/><path d="M190.4688,29.6406 Q189.8906,29.9375 189.25,30.0781 Q188.6094,30.2344 187.9063,30.2344 Q185.4063,30.2344 184.0781,28.5938 Q182.7656,26.9375 182.7656,23.8125 Q182.7656,20.6875 184.0781,19.0313 Q185.4063,17.375 187.9063,17.375 Q188.6094,17.375 189.25,17.5313 Q189.9063,17.6875 190.4688,17.9844 L190.4688,20.7031 Q189.8438,20.125 189.25,19.8594 Q188.6563,19.5781 188.0313,19.5781 Q186.6875,19.5781 186,20.6563 Q185.3125,21.7188 185.3125,23.8125 Q185.3125,25.9063 186,26.9844 Q186.6875,28.0469 188.0313,28.0469 Q188.6563,28.0469 189.25,27.7813 Q189.8438,27.5 190.4688,26.9219 L190.4688,29.6406 Z "/><text fill="#000000" font-family="sans-serif" font-size="12" lengthAdjust="spacingAndGlyphs" textLength="131" x="201.5" y="28.1543">IPointerDownHandler</text><line style="stroke: #A80036; stroke-width: 1.5;" x1="173.5" x2="334.5" y1="40" y2="40"/><line style="stroke: #A80036; stroke-width: 1.5;" x1="173.5" x2="334.5" y1="48" y2="48"/><!--MD5=[02a8746eb15ecbb4566dafa16ea4db73]
class Text--><rect fill="#FEFECE" filter="url(#fzut8a575frr2)" height="48" id="Text" style="stroke: #A80036; stroke-width: 1.5;" width="58" x="134" y="275"/><ellipse cx="149" cy="291" fill="#ADD1B2" rx="11" ry="11" style="stroke: #A80036; stroke-width: 1.0;"/><path d="M151.9688,296.6406 Q151.3906,296.9375 150.75,297.0781 Q150.1094,297.2344 149.4063,297.2344 Q146.9063,297.2344 145.5781,295.5938 Q144.2656,293.9375 144.2656,290.8125 Q144.2656,287.6875 145.5781,286.0313 Q146.9063,284.375 149.4063,284.375 Q150.1094,284.375 150.75,284.5313 Q151.4063,284.6875 151.9688,284.9844 L151.9688,287.7031 Q151.3438,287.125 150.75,286.8594 Q150.1563,286.5781 149.5313,286.5781 Q148.1875,286.5781 147.5,287.6563 Q146.8125,288.7188 146.8125,290.8125 Q146.8125,292.9063 147.5,293.9844 Q148.1875,295.0469 149.5313,295.0469 Q150.1563,295.0469 150.75,294.7813 Q151.3438,294.5 151.9688,293.9219 L151.9688,296.6406 Z "/><text fill="#000000" font-family="sans-serif" font-size="12" lengthAdjust="spacingAndGlyphs" textLength="26" x="163" y="295.1543">Text</text><line style="stroke: #A80036; stroke-width: 1.5;" x1="135" x2="191" y1="307" y2="307"/><line style="stroke: #A80036; stroke-width: 1.5;" x1="135" x2="191" y1="315" y2="315"/><!--MD5=[9bdaffe1e9e6a78882e081a6b8807e0b]
reverse link MonoBehaviour to CanvasSampleSaveFileImage--><path d="M100.24,72.81 C109.54,86.39 120.04,101.74 129.76,115.93 " fill="none" id="MonoBehaviour&lt;-CanvasSampleSaveFileImage" style="stroke: #A80036; stroke-width: 1.0;"/><polygon fill="none" points="94.4,76.67,88.88,56.21,105.96,68.76,94.4,76.67" style="stroke: #A80036; stroke-width: 1.0;"/><!--MD5=[a212139135bb47aa2cc132a874172b84]
reverse link IPointerDownHandler to CanvasSampleSaveFileImage--><path d="M226.45,72.81 C217.05,86.39 206.43,101.74 196.61,115.93 " fill="none" id="IPointerDownHandler&lt;-CanvasSampleSaveFileImage" style="stroke: #A80036; stroke-width: 1.0;"/><polygon fill="none" points="220.8,68.67,237.94,56.21,232.32,76.64,220.8,68.67" style="stroke: #A80036; stroke-width: 1.0;"/><!--MD5=[e39988af789efeb608ee7403153fc9e5]
link CanvasSampleSaveFileImage to Text--><path d="M163,215.09 C163,233.5 163,253.83 163,269.75 " fill="none" id="CanvasSampleSaveFileImage-&gt;Text" style="stroke: #A80036; stroke-width: 1.0;"/><polygon fill="#A80036" points="163,274.98,167,265.98,163,269.98,159,265.98,163,274.98" style="stroke: #A80036; stroke-width: 1.0;"/><text fill="#000000" font-family="sans-serif" font-size="13" lengthAdjust="spacingAndGlyphs" textLength="42" x="115.6188" y="263.9869">output</text><!--MD5=[8233a7d773dff9cb726e7bb595fb6281]
@startuml
class CanvasSampleSaveFileImage {
    Awake() : void
    + OnPointerDown(eventData:PointerEventData) : void
    Start() : void
    + OnClick() : void
}
MonoBehaviour <|- - CanvasSampleSaveFileImage
IPointerDownHandler <|- - CanvasSampleSaveFileImage
CanvasSampleSaveFileImage - -> "output" Text
@enduml

PlantUML version 1.2020.02(Sun Mar 01 10:22:07 GMT 2020)
(GPL source distribution)
Java Runtime: OpenJDK Runtime Environment
JVM: OpenJDK 64-Bit Server VM
Java Version: 11.0.9+11-Ubuntu-0ubuntu1
Operating System: Linux
Default Encoding: ANSI_X3.4-1968
Language: en
Country: US
--></g></svg>