<?xml version="1.0" encoding="UTF-8" standalone="no"?><svg xmlns="http://www.w3.org/2000/svg" xmlns:xlink="http://www.w3.org/1999/xlink" contentScriptType="application/ecmascript" contentStyleType="text/css" height="309px" preserveAspectRatio="none" style="width:346px;height:309px;" version="1.1" viewBox="0 0 346 309" width="346px" zoomAndPan="magnify"><defs><filter height="300%" id="f1f0qlu5juvi2n" width="300%" x="-1" y="-1"><feGaussianBlur result="blurOut" stdDeviation="2.0"/><feColorMatrix in="blurOut" result="blurOut2" type="matrix" values="0 0 0 0 0 0 0 0 0 0 0 0 0 0 0 0 0 0 .4 0"/><feOffset dx="4.0" dy="4.0" in="blurOut2" result="blurOut3"/><feBlend in="SourceGraphic" in2="blurOut3" mode="normal"/></filter></defs><g><!--MD5=[637e14ef854f909a6bfd925e447d711c]
class CanvasSampleOpenFileTextMultiple--><rect fill="#FEFECE" filter="url(#f1f0qlu5juvi2n)" height="73.6094" id="CanvasSampleOpenFileTextMultiple" style="stroke: #A80036; stroke-width: 1.5;" width="314" x="6" y="116"/><ellipse cx="49.35" cy="132" fill="#ADD1B2" rx="11" ry="11" style="stroke: #A80036; stroke-width: 1.0;"/><path d="M52.3188,137.6406 Q51.7406,137.9375 51.1,138.0781 Q50.4594,138.2344 49.7563,138.2344 Q47.2563,138.2344 45.9281,136.5938 Q44.6156,134.9375 44.6156,131.8125 Q44.6156,128.6875 45.9281,127.0313 Q47.2563,125.375 49.7563,125.375 Q50.4594,125.375 51.1,125.5313 Q51.7563,125.6875 52.3188,125.9844 L52.3188,128.7031 Q51.6938,128.125 51.1,127.8594 Q50.5063,127.5781 49.8813,127.5781 Q48.5375,127.5781 47.85,128.6563 Q47.1625,129.7188 47.1625,131.8125 Q47.1625,133.9063 47.85,134.9844 Q48.5375,136.0469 49.8813,136.0469 Q50.5063,136.0469 51.1,135.7813 Q51.6938,135.5 52.3188,134.9219 L52.3188,137.6406 Z "/><text fill="#000000" font-family="sans-serif" font-size="12" lengthAdjust="spacingAndGlyphs" textLength="219" x="69.65" y="136.1543">CanvasSampleOpenFileTextMultiple</text><line style="stroke: #A80036; stroke-width: 1.5;" x1="7" x2="319" y1="148" y2="148"/><line style="stroke: #A80036; stroke-width: 1.5;" x1="7" x2="319" y1="156" y2="156"/><ellipse cx="17" cy="167" fill="#84BE84" rx="3" ry="3" style="stroke: #038048; stroke-width: 1.0;"/><text fill="#000000" font-family="sans-serif" font-size="11" lengthAdjust="spacingAndGlyphs" textLength="288" x="26" y="170.2104">OnPointerDown(eventData:PointerEventData) : void</text><text fill="#000000" font-family="sans-serif" font-size="11" lengthAdjust="spacingAndGlyphs" textLength="71" x="26" y="183.0151">Start() : void</text><!--MD5=[83b3cf3d23d77c6f1e1b5291a241bc2a]
class MonoBehaviour--><rect fill="#FEFECE" filter="url(#f1f0qlu5juvi2n)" height="48" id="MonoBehaviour" style="stroke: #A80036; stroke-width: 1.5;" width="128" x="9" y="8"/><ellipse cx="24" cy="24" fill="#ADD1B2" rx="11" ry="11" style="stroke: #A80036; stroke-width: 1.0;"/><path d="M26.9688,29.6406 Q26.3906,29.9375 25.75,30.0781 Q25.1094,30.2344 24.4063,30.2344 Q21.9063,30.2344 20.5781,28.5938 Q19.2656,26.9375 19.2656,23.8125 Q19.2656,20.6875 20.5781,19.0313 Q21.9063,17.375 24.4063,17.375 Q25.1094,17.375 25.75,17.5313 Q26.4063,17.6875 26.9688,17.9844 L26.9688,20.7031 Q26.3438,20.125 25.75,19.8594 Q25.1563,19.5781 24.5313,19.5781 Q23.1875,19.5781 22.5,20.6563 Q21.8125,21.7188 21.8125,23.8125 Q21.8125,25.9063 22.5,26.9844 Q23.1875,28.0469 24.5313,28.0469 Q25.1563,28.0469 25.75,27.7813 Q26.3438,27.5 26.9688,26.9219 L26.9688,29.6406 Z "/><text fill="#000000" font-family="sans-serif" font-size="12" lengthAdjust="spacingAndGlyphs" textLength="96" x="38" y="28.1543">MonoBehaviour</text><line style="stroke: #A80036; stroke-width: 1.5;" x1="10" x2="136" y1="40" y2="40"/><line style="stroke: #A80036; stroke-width: 1.5;" x1="10" x2="136" y1="48" y2="48"/><!--MD5=[461668fedb11703ee0efd569ed7c4f48]
class IPointerDownHandler--><rect fill="#FEFECE" filter="url(#f1f0qlu5juvi2n)" height="48" id="IPointerDownHandler" style="stroke: #A80036; stroke-width: 1.5;" width="163" x="172.5" y="8"/><ellipse cx="187.5" cy="24" fill="#ADD1B2" rx="11" ry="11" style="stroke: #A80036; stroke-width: 1.0;"/><path d="M190.4688,29.6406 Q189.8906,29.9375 189.25,30.0781 Q188.6094,30.2344 187.9063,30.2344 Q185.4063,30.2344 184.0781,28.5938 Q182.7656,26.9375 182.7656,23.8125 Q182.7656,20.6875 184.0781,19.0313 Q185.4063,17.375 187.9063,17.375 Q188.6094,17.375 189.25,17.5313 Q189.9063,17.6875 190.4688,17.9844 L190.4688,20.7031 Q189.8438,20.125 189.25,19.8594 Q188.6563,19.5781 188.0313,19.5781 Q186.6875,19.5781 186,20.6563 Q185.3125,21.7188 185.3125,23.8125 Q185.3125,25.9063 186,26.9844 Q186.6875,28.0469 188.0313,28.0469 Q188.6563,28.0469 189.25,27.7813 Q189.8438,27.5 190.4688,26.9219 L190.4688,29.6406 Z "/><text fill="#000000" font-family="sans-serif" font-size="12" lengthAdjust="spacingAndGlyphs" textLength="131" x="201.5" y="28.1543">IPointerDownHandler</text><line style="stroke: #A80036; stroke-width: 1.5;" x1="173.5" x2="334.5" y1="40" y2="40"/><line style="stroke: #A80036; stroke-width: 1.5;" x1="173.5" x2="334.5" y1="48" y2="48"/><!--MD5=[02a8746eb15ecbb4566dafa16ea4db73]
class Text--><rect fill="#FEFECE" filter="url(#f1f0qlu5juvi2n)" height="48" id="Text" style="stroke: #A80036; stroke-width: 1.5;" width="58" x="134" y="250"/><ellipse cx="149" cy="266" fill="#ADD1B2" rx="11" ry="11" style="stroke: #A80036; stroke-width: 1.0;"/><path d="M151.9688,271.6406 Q151.3906,271.9375 150.75,272.0781 Q150.1094,272.2344 149.4063,272.2344 Q146.9063,272.2344 145.5781,270.5938 Q144.2656,268.9375 144.2656,265.8125 Q144.2656,262.6875 145.5781,261.0313 Q146.9063,259.375 149.4063,259.375 Q150.1094,259.375 150.75,259.5313 Q151.4063,259.6875 151.9688,259.9844 L151.9688,262.7031 Q151.3438,262.125 150.75,261.8594 Q150.1563,261.5781 149.5313,261.5781 Q148.1875,261.5781 147.5,262.6563 Q146.8125,263.7188 146.8125,265.8125 Q146.8125,267.9063 147.5,268.9844 Q148.1875,270.0469 149.5313,270.0469 Q150.1563,270.0469 150.75,269.7813 Q151.3438,269.5 151.9688,268.9219 L151.9688,271.6406 Z "/><text fill="#000000" font-family="sans-serif" font-size="12" lengthAdjust="spacingAndGlyphs" textLength="26" x="163" y="270.1543">Text</text><line style="stroke: #A80036; stroke-width: 1.5;" x1="135" x2="191" y1="282" y2="282"/><line style="stroke: #A80036; stroke-width: 1.5;" x1="135" x2="191" y1="290" y2="290"/><!--MD5=[160418886abe2f260b5d4be287beb93e]
reverse link MonoBehaviour to CanvasSampleOpenFileTextMultiple--><path d="M102.67,72.23 C113.27,86.24 125.15,101.96 135.56,115.71 " fill="none" id="MonoBehaviour&lt;-CanvasSampleOpenFileTextMultiple" style="stroke: #A80036; stroke-width: 1.0;"/><polygon fill="none" points="97.05,76.4,90.57,56.23,108.21,67.96,97.05,76.4" style="stroke: #A80036; stroke-width: 1.0;"/><!--MD5=[ffd3c0f6b71ddd35bfe88d890afa18fb]
reverse link IPointerDownHandler to CanvasSampleOpenFileTextMultiple--><path d="M224,72.23 C213.29,86.24 201.27,101.96 190.75,115.71 " fill="none" id="IPointerDownHandler&lt;-CanvasSampleOpenFileTextMultiple" style="stroke: #A80036; stroke-width: 1.0;"/><polygon fill="none" points="218.53,67.86,236.24,56.23,229.65,76.37,218.53,67.86" style="stroke: #A80036; stroke-width: 1.0;"/><!--MD5=[5da68b10d892186a16bba36bea6518b5]
link CanvasSampleOpenFileTextMultiple to Text--><path d="M163,190.03 C163,207.48 163,228.15 163,244.49 " fill="none" id="CanvasSampleOpenFileTextMultiple-&gt;Text" style="stroke: #A80036; stroke-width: 1.0;"/><polygon fill="#A80036" points="163,249.85,167,240.85,163,244.85,159,240.85,163,249.85" style="stroke: #A80036; stroke-width: 1.0;"/><text fill="#000000" font-family="sans-serif" font-size="13" lengthAdjust="spacingAndGlyphs" textLength="42" x="115.6188" y="238.8236">output</text><!--MD5=[c415989d69cb9531ffb416fb773847c0]
@startuml
class CanvasSampleOpenFileTextMultiple {
    + OnPointerDown(eventData:PointerEventData) : void
    Start() : void
}
MonoBehaviour <|- - CanvasSampleOpenFileTextMultiple
IPointerDownHandler <|- - CanvasSampleOpenFileTextMultiple
CanvasSampleOpenFileTextMultiple - -> "output" Text
@enduml

PlantUML version 1.2020.02(Sun Mar 01 10:22:07 GMT 2020)
(GPL source distribution)
Java Runtime: OpenJDK Runtime Environment
JVM: OpenJDK 64-Bit Server VM
Java Version: 11.0.9+11-Ubuntu-0ubuntu1
Operating System: Linux
Default Encoding: ANSI_X3.4-1968
Language: en
Country: US
--></g></svg>