<?xml version="1.0" encoding="UTF-8" standalone="no"?><svg xmlns="http://www.w3.org/2000/svg" xmlns:xlink="http://www.w3.org/1999/xlink" contentScriptType="application/ecmascript" contentStyleType="text/css" height="321px" preserveAspectRatio="none" style="width:346px;height:321px;" version="1.1" viewBox="0 0 346 321" width="346px" zoomAndPan="magnify"><defs><filter height="300%" id="frfvomp24jcg1" width="300%" x="-1" y="-1"><feGaussianBlur result="blurOut" stdDeviation="2.0"/><feColorMatrix in="blurOut" result="blurOut2" type="matrix" values="0 0 0 0 0 0 0 0 0 0 0 0 0 0 0 0 0 0 .4 0"/><feOffset dx="4.0" dy="4.0" in="blurOut2" result="blurOut3"/><feBlend in="SourceGraphic" in2="blurOut3" mode="normal"/></filter></defs><g><!--MD5=[349ecd0c532da4828bd19c1cfc6489e3]
class CanvasSampleSaveFileText--><rect fill="#FEFECE" filter="url(#frfvomp24jcg1)" height="86.4141" id="CanvasSampleSaveFileText" style="stroke: #A80036; stroke-width: 1.5;" width="314" x="6" y="116"/><ellipse cx="74.75" cy="132" fill="#ADD1B2" rx="11" ry="11" style="stroke: #A80036; stroke-width: 1.0;"/><path d="M77.7188,137.6406 Q77.1406,137.9375 76.5,138.0781 Q75.8594,138.2344 75.1563,138.2344 Q72.6563,138.2344 71.3281,136.5938 Q70.0156,134.9375 70.0156,131.8125 Q70.0156,128.6875 71.3281,127.0313 Q72.6563,125.375 75.1563,125.375 Q75.8594,125.375 76.5,125.5313 Q77.1563,125.6875 77.7188,125.9844 L77.7188,128.7031 Q77.0938,128.125 76.5,127.8594 Q75.9063,127.5781 75.2813,127.5781 Q73.9375,127.5781 73.25,128.6563 Q72.5625,129.7188 72.5625,131.8125 Q72.5625,133.9063 73.25,134.9844 Q73.9375,136.0469 75.2813,136.0469 Q75.9063,136.0469 76.5,135.7813 Q77.0938,135.5 77.7188,134.9219 L77.7188,137.6406 Z "/><text fill="#000000" font-family="sans-serif" font-size="12" lengthAdjust="spacingAndGlyphs" textLength="168" x="95.25" y="136.1543">CanvasSampleSaveFileText</text><line style="stroke: #A80036; stroke-width: 1.5;" x1="7" x2="319" y1="148" y2="148"/><line style="stroke: #A80036; stroke-width: 1.5;" x1="7" x2="319" y1="156" y2="156"/><ellipse cx="17" cy="167" fill="#84BE84" rx="3" ry="3" style="stroke: #038048; stroke-width: 1.0;"/><text fill="#000000" font-family="sans-serif" font-size="11" lengthAdjust="spacingAndGlyphs" textLength="288" x="26" y="170.2104">OnPointerDown(eventData:PointerEventData) : void</text><text fill="#000000" font-family="sans-serif" font-size="11" lengthAdjust="spacingAndGlyphs" textLength="71" x="26" y="183.0151">Start() : void</text><ellipse cx="17" cy="192.6094" fill="#84BE84" rx="3" ry="3" style="stroke: #038048; stroke-width: 1.0;"/><text fill="#000000" font-family="sans-serif" font-size="11" lengthAdjust="spacingAndGlyphs" textLength="85" x="26" y="195.8198">OnClick() : void</text><!--MD5=[83b3cf3d23d77c6f1e1b5291a241bc2a]
class MonoBehaviour--><rect fill="#FEFECE" filter="url(#frfvomp24jcg1)" height="48" id="MonoBehaviour" style="stroke: #A80036; stroke-width: 1.5;" width="128" x="9" y="8"/><ellipse cx="24" cy="24" fill="#ADD1B2" rx="11" ry="11" style="stroke: #A80036; stroke-width: 1.0;"/><path d="M26.9688,29.6406 Q26.3906,29.9375 25.75,30.0781 Q25.1094,30.2344 24.4063,30.2344 Q21.9063,30.2344 20.5781,28.5938 Q19.2656,26.9375 19.2656,23.8125 Q19.2656,20.6875 20.5781,19.0313 Q21.9063,17.375 24.4063,17.375 Q25.1094,17.375 25.75,17.5313 Q26.4063,17.6875 26.9688,17.9844 L26.9688,20.7031 Q26.3438,20.125 25.75,19.8594 Q25.1563,19.5781 24.5313,19.5781 Q23.1875,19.5781 22.5,20.6563 Q21.8125,21.7188 21.8125,23.8125 Q21.8125,25.9063 22.5,26.9844 Q23.1875,28.0469 24.5313,28.0469 Q25.1563,28.0469 25.75,27.7813 Q26.3438,27.5 26.9688,26.9219 L26.9688,29.6406 Z "/><text fill="#000000" font-family="sans-serif" font-size="12" lengthAdjust="spacingAndGlyphs" textLength="96" x="38" y="28.1543">MonoBehaviour</text><line style="stroke: #A80036; stroke-width: 1.5;" x1="10" x2="136" y1="40" y2="40"/><line style="stroke: #A80036; stroke-width: 1.5;" x1="10" x2="136" y1="48" y2="48"/><!--MD5=[461668fedb11703ee0efd569ed7c4f48]
class IPointerDownHandler--><rect fill="#FEFECE" filter="url(#frfvomp24jcg1)" height="48" id="IPointerDownHandler" style="stroke: #A80036; stroke-width: 1.5;" width="163" x="172.5" y="8"/><ellipse cx="187.5" cy="24" fill="#ADD1B2" rx="11" ry="11" style="stroke: #A80036; stroke-width: 1.0;"/><path d="M190.4688,29.6406 Q189.8906,29.9375 189.25,30.0781 Q188.6094,30.2344 187.9063,30.2344 Q185.4063,30.2344 184.0781,28.5938 Q182.7656,26.9375 182.7656,23.8125 Q182.7656,20.6875 184.0781,19.0313 Q185.4063,17.375 187.9063,17.375 Q188.6094,17.375 189.25,17.5313 Q189.9063,17.6875 190.4688,17.9844 L190.4688,20.7031 Q189.8438,20.125 189.25,19.8594 Q188.6563,19.5781 188.0313,19.5781 Q186.6875,19.5781 186,20.6563 Q185.3125,21.7188 185.3125,23.8125 Q185.3125,25.9063 186,26.9844 Q186.6875,28.0469 188.0313,28.0469 Q188.6563,28.0469 189.25,27.7813 Q189.8438,27.5 190.4688,26.9219 L190.4688,29.6406 Z "/><text fill="#000000" font-family="sans-serif" font-size="12" lengthAdjust="spacingAndGlyphs" textLength="131" x="201.5" y="28.1543">IPointerDownHandler</text><line style="stroke: #A80036; stroke-width: 1.5;" x1="173.5" x2="334.5" y1="40" y2="40"/><line style="stroke: #A80036; stroke-width: 1.5;" x1="173.5" x2="334.5" y1="48" y2="48"/><!--MD5=[02a8746eb15ecbb4566dafa16ea4db73]
class Text--><rect fill="#FEFECE" filter="url(#frfvomp24jcg1)" height="48" id="Text" style="stroke: #A80036; stroke-width: 1.5;" width="58" x="134" y="262"/><ellipse cx="149" cy="278" fill="#ADD1B2" rx="11" ry="11" style="stroke: #A80036; stroke-width: 1.0;"/><path d="M151.9688,283.6406 Q151.3906,283.9375 150.75,284.0781 Q150.1094,284.2344 149.4063,284.2344 Q146.9063,284.2344 145.5781,282.5938 Q144.2656,280.9375 144.2656,277.8125 Q144.2656,274.6875 145.5781,273.0313 Q146.9063,271.375 149.4063,271.375 Q150.1094,271.375 150.75,271.5313 Q151.4063,271.6875 151.9688,271.9844 L151.9688,274.7031 Q151.3438,274.125 150.75,273.8594 Q150.1563,273.5781 149.5313,273.5781 Q148.1875,273.5781 147.5,274.6563 Q146.8125,275.7188 146.8125,277.8125 Q146.8125,279.9063 147.5,280.9844 Q148.1875,282.0469 149.5313,282.0469 Q150.1563,282.0469 150.75,281.7813 Q151.3438,281.5 151.9688,280.9219 L151.9688,283.6406 Z "/><text fill="#000000" font-family="sans-serif" font-size="12" lengthAdjust="spacingAndGlyphs" textLength="26" x="163" y="282.1543">Text</text><line style="stroke: #A80036; stroke-width: 1.5;" x1="135" x2="191" y1="294" y2="294"/><line style="stroke: #A80036; stroke-width: 1.5;" x1="135" x2="191" y1="302" y2="302"/><!--MD5=[21cb8e9dbca0662cd10ed6998adc3d6a]
reverse link MonoBehaviour to CanvasSampleSaveFileText--><path d="M101.47,72.54 C111.42,86.36 122.62,101.92 132.71,115.94 " fill="none" id="MonoBehaviour&lt;-CanvasSampleSaveFileText" style="stroke: #A80036; stroke-width: 1.0;"/><polygon fill="none" points="95.72,76.54,89.72,56.22,107.08,68.36,95.72,76.54" style="stroke: #A80036; stroke-width: 1.0;"/><!--MD5=[aca422b9cb0f5a80dc57c2d51d34aacc]
reverse link IPointerDownHandler to CanvasSampleSaveFileText--><path d="M225.21,72.54 C215.15,86.36 203.83,101.92 193.62,115.94 " fill="none" id="IPointerDownHandler&lt;-CanvasSampleSaveFileText" style="stroke: #A80036; stroke-width: 1.0;"/><polygon fill="none" points="219.67,68.27,237.1,56.22,230.98,76.51,219.67,68.27" style="stroke: #A80036; stroke-width: 1.0;"/><!--MD5=[ee78c5ec6ab7501157b9c43012fe89a2]
link CanvasSampleSaveFileText to Text--><path d="M163,202.32 C163,220.14 163,240.41 163,256.42 " fill="none" id="CanvasSampleSaveFileText-&gt;Text" style="stroke: #A80036; stroke-width: 1.0;"/><polygon fill="#A80036" points="163,261.67,167,252.67,163,256.67,159,252.67,163,261.67" style="stroke: #A80036; stroke-width: 1.0;"/><text fill="#000000" font-family="sans-serif" font-size="13" lengthAdjust="spacingAndGlyphs" textLength="42" x="115.8813" y="250.9945">output</text><!--MD5=[c261b16d740d187004f219a98ad45528]
@startuml
class CanvasSampleSaveFileText {
    + OnPointerDown(eventData:PointerEventData) : void
    Start() : void
    + OnClick() : void
}
MonoBehaviour <|- - CanvasSampleSaveFileText
IPointerDownHandler <|- - CanvasSampleSaveFileText
CanvasSampleSaveFileText - -> "output" Text
@enduml

PlantUML version 1.2020.02(Sun Mar 01 10:22:07 GMT 2020)
(GPL source distribution)
Java Runtime: OpenJDK Runtime Environment
JVM: OpenJDK 64-Bit Server VM
Java Version: 11.0.9+11-Ubuntu-0ubuntu1
Operating System: Linux
Default Encoding: ANSI_X3.4-1968
Language: en
Country: US
--></g></svg>