<?xml version="1.0" encoding="UTF-8" standalone="no"?><svg xmlns="http://www.w3.org/2000/svg" xmlns:xlink="http://www.w3.org/1999/xlink" contentScriptType="application/ecmascript" contentStyleType="text/css" height="309px" preserveAspectRatio="none" style="width:346px;height:309px;" version="1.1" viewBox="0 0 346 309" width="346px" zoomAndPan="magnify"><defs><filter height="300%" id="f2i0sn81tmg8l" width="300%" x="-1" y="-1"><feGaussianBlur result="blurOut" stdDeviation="2.0"/><feColorMatrix in="blurOut" result="blurOut2" type="matrix" values="0 0 0 0 0 0 0 0 0 0 0 0 0 0 0 0 0 0 .4 0"/><feOffset dx="4.0" dy="4.0" in="blurOut2" result="blurOut3"/><feBlend in="SourceGraphic" in2="blurOut3" mode="normal"/></filter></defs><g><!--MD5=[acc55bb91402937ee370d73c9826742f]
class CanvasSampleOpenFileImage--><rect fill="#FEFECE" filter="url(#f2i0sn81tmg8l)" height="73.6094" id="CanvasSampleOpenFileImage" style="stroke: #A80036; stroke-width: 1.5;" width="314" x="6" y="116"/><ellipse cx="67.25" cy="132" fill="#ADD1B2" rx="11" ry="11" style="stroke: #A80036; stroke-width: 1.0;"/><path d="M70.2188,137.6406 Q69.6406,137.9375 69,138.0781 Q68.3594,138.2344 67.6563,138.2344 Q65.1563,138.2344 63.8281,136.5938 Q62.5156,134.9375 62.5156,131.8125 Q62.5156,128.6875 63.8281,127.0313 Q65.1563,125.375 67.6563,125.375 Q68.3594,125.375 69,125.5313 Q69.6563,125.6875 70.2188,125.9844 L70.2188,128.7031 Q69.5938,128.125 69,127.8594 Q68.4063,127.5781 67.7813,127.5781 Q66.4375,127.5781 65.75,128.6563 Q65.0625,129.7188 65.0625,131.8125 Q65.0625,133.9063 65.75,134.9844 Q66.4375,136.0469 67.7813,136.0469 Q68.4063,136.0469 69,135.7813 Q69.5938,135.5 70.2188,134.9219 L70.2188,137.6406 Z "/><text fill="#000000" font-family="sans-serif" font-size="12" lengthAdjust="spacingAndGlyphs" textLength="183" x="87.75" y="136.1543">CanvasSampleOpenFileImage</text><line style="stroke: #A80036; stroke-width: 1.5;" x1="7" x2="319" y1="148" y2="148"/><line style="stroke: #A80036; stroke-width: 1.5;" x1="7" x2="319" y1="156" y2="156"/><ellipse cx="17" cy="167" fill="#84BE84" rx="3" ry="3" style="stroke: #038048; stroke-width: 1.0;"/><text fill="#000000" font-family="sans-serif" font-size="11" lengthAdjust="spacingAndGlyphs" textLength="288" x="26" y="170.2104">OnPointerDown(eventData:PointerEventData) : void</text><text fill="#000000" font-family="sans-serif" font-size="11" lengthAdjust="spacingAndGlyphs" textLength="71" x="26" y="183.0151">Start() : void</text><!--MD5=[83b3cf3d23d77c6f1e1b5291a241bc2a]
class MonoBehaviour--><rect fill="#FEFECE" filter="url(#f2i0sn81tmg8l)" height="48" id="MonoBehaviour" style="stroke: #A80036; stroke-width: 1.5;" width="128" x="9" y="8"/><ellipse cx="24" cy="24" fill="#ADD1B2" rx="11" ry="11" style="stroke: #A80036; stroke-width: 1.0;"/><path d="M26.9688,29.6406 Q26.3906,29.9375 25.75,30.0781 Q25.1094,30.2344 24.4063,30.2344 Q21.9063,30.2344 20.5781,28.5938 Q19.2656,26.9375 19.2656,23.8125 Q19.2656,20.6875 20.5781,19.0313 Q21.9063,17.375 24.4063,17.375 Q25.1094,17.375 25.75,17.5313 Q26.4063,17.6875 26.9688,17.9844 L26.9688,20.7031 Q26.3438,20.125 25.75,19.8594 Q25.1563,19.5781 24.5313,19.5781 Q23.1875,19.5781 22.5,20.6563 Q21.8125,21.7188 21.8125,23.8125 Q21.8125,25.9063 22.5,26.9844 Q23.1875,28.0469 24.5313,28.0469 Q25.1563,28.0469 25.75,27.7813 Q26.3438,27.5 26.9688,26.9219 L26.9688,29.6406 Z "/><text fill="#000000" font-family="sans-serif" font-size="12" lengthAdjust="spacingAndGlyphs" textLength="96" x="38" y="28.1543">MonoBehaviour</text><line style="stroke: #A80036; stroke-width: 1.5;" x1="10" x2="136" y1="40" y2="40"/><line style="stroke: #A80036; stroke-width: 1.5;" x1="10" x2="136" y1="48" y2="48"/><!--MD5=[461668fedb11703ee0efd569ed7c4f48]
class IPointerDownHandler--><rect fill="#FEFECE" filter="url(#f2i0sn81tmg8l)" height="48" id="IPointerDownHandler" style="stroke: #A80036; stroke-width: 1.5;" width="163" x="172.5" y="8"/><ellipse cx="187.5" cy="24" fill="#ADD1B2" rx="11" ry="11" style="stroke: #A80036; stroke-width: 1.0;"/><path d="M190.4688,29.6406 Q189.8906,29.9375 189.25,30.0781 Q188.6094,30.2344 187.9063,30.2344 Q185.4063,30.2344 184.0781,28.5938 Q182.7656,26.9375 182.7656,23.8125 Q182.7656,20.6875 184.0781,19.0313 Q185.4063,17.375 187.9063,17.375 Q188.6094,17.375 189.25,17.5313 Q189.9063,17.6875 190.4688,17.9844 L190.4688,20.7031 Q189.8438,20.125 189.25,19.8594 Q188.6563,19.5781 188.0313,19.5781 Q186.6875,19.5781 186,20.6563 Q185.3125,21.7188 185.3125,23.8125 Q185.3125,25.9063 186,26.9844 Q186.6875,28.0469 188.0313,28.0469 Q188.6563,28.0469 189.25,27.7813 Q189.8438,27.5 190.4688,26.9219 L190.4688,29.6406 Z "/><text fill="#000000" font-family="sans-serif" font-size="12" lengthAdjust="spacingAndGlyphs" textLength="131" x="201.5" y="28.1543">IPointerDownHandler</text><line style="stroke: #A80036; stroke-width: 1.5;" x1="173.5" x2="334.5" y1="40" y2="40"/><line style="stroke: #A80036; stroke-width: 1.5;" x1="173.5" x2="334.5" y1="48" y2="48"/><!--MD5=[567e209c8df1934f374b92e4cf08da2e]
class RawImage--><rect fill="#FEFECE" filter="url(#f2i0sn81tmg8l)" height="48" id="RawImage" style="stroke: #A80036; stroke-width: 1.5;" width="95" x="115.5" y="250"/><ellipse cx="130.5" cy="266" fill="#ADD1B2" rx="11" ry="11" style="stroke: #A80036; stroke-width: 1.0;"/><path d="M133.4688,271.6406 Q132.8906,271.9375 132.25,272.0781 Q131.6094,272.2344 130.9063,272.2344 Q128.4063,272.2344 127.0781,270.5938 Q125.7656,268.9375 125.7656,265.8125 Q125.7656,262.6875 127.0781,261.0313 Q128.4063,259.375 130.9063,259.375 Q131.6094,259.375 132.25,259.5313 Q132.9063,259.6875 133.4688,259.9844 L133.4688,262.7031 Q132.8438,262.125 132.25,261.8594 Q131.6563,261.5781 131.0313,261.5781 Q129.6875,261.5781 129,262.6563 Q128.3125,263.7188 128.3125,265.8125 Q128.3125,267.9063 129,268.9844 Q129.6875,270.0469 131.0313,270.0469 Q131.6563,270.0469 132.25,269.7813 Q132.8438,269.5 133.4688,268.9219 L133.4688,271.6406 Z "/><text fill="#000000" font-family="sans-serif" font-size="12" lengthAdjust="spacingAndGlyphs" textLength="63" x="144.5" y="270.1543">RawImage</text><line style="stroke: #A80036; stroke-width: 1.5;" x1="116.5" x2="209.5" y1="282" y2="282"/><line style="stroke: #A80036; stroke-width: 1.5;" x1="116.5" x2="209.5" y1="290" y2="290"/><!--MD5=[be4ad1dfa81ef137f2aef18d6779d7ba]
reverse link MonoBehaviour to CanvasSampleOpenFileImage--><path d="M102.67,72.23 C113.27,86.24 125.15,101.96 135.56,115.71 " fill="none" id="MonoBehaviour&lt;-CanvasSampleOpenFileImage" style="stroke: #A80036; stroke-width: 1.0;"/><polygon fill="none" points="97.05,76.4,90.57,56.23,108.21,67.96,97.05,76.4" style="stroke: #A80036; stroke-width: 1.0;"/><!--MD5=[143e6c2d89cd08ee5e9f9cbe4289dcd5]
reverse link IPointerDownHandler to CanvasSampleOpenFileImage--><path d="M224,72.23 C213.29,86.24 201.27,101.96 190.75,115.71 " fill="none" id="IPointerDownHandler&lt;-CanvasSampleOpenFileImage" style="stroke: #A80036; stroke-width: 1.0;"/><polygon fill="none" points="218.53,67.86,236.24,56.23,229.65,76.37,218.53,67.86" style="stroke: #A80036; stroke-width: 1.0;"/><!--MD5=[4453cd29110a9499f35ae1fb495880d0]
link CanvasSampleOpenFileImage to RawImage--><path d="M163,190.03 C163,207.48 163,228.15 163,244.49 " fill="none" id="CanvasSampleOpenFileImage-&gt;RawImage" style="stroke: #A80036; stroke-width: 1.0;"/><polygon fill="#A80036" points="163,249.85,167,240.85,163,244.85,159,240.85,163,249.85" style="stroke: #A80036; stroke-width: 1.0;"/><text fill="#000000" font-family="sans-serif" font-size="13" lengthAdjust="spacingAndGlyphs" textLength="42" x="115.6188" y="238.8236">output</text><!--MD5=[c8b71b27bf33df84b67f90145bb5980c]
@startuml
class CanvasSampleOpenFileImage {
    + OnPointerDown(eventData:PointerEventData) : void
    Start() : void
}
MonoBehaviour <|- - CanvasSampleOpenFileImage
IPointerDownHandler <|- - CanvasSampleOpenFileImage
CanvasSampleOpenFileImage - -> "output" RawImage
@enduml

PlantUML version 1.2020.02(Sun Mar 01 10:22:07 GMT 2020)
(GPL source distribution)
Java Runtime: OpenJDK Runtime Environment
JVM: OpenJDK 64-Bit Server VM
Java Version: 11.0.9+11-Ubuntu-0ubuntu1
Operating System: Linux
Default Encoding: ANSI_X3.4-1968
Language: en
Country: US
--></g></svg>